<svg width="21" height="23" viewBox="0 0 21 23" fill="none" xmlns="http://www.w3.org/2000/svg">
<path d="M14.2422 2.15332C13.292 1.12744 11.9649 0.5625 10.5 0.5625C9.02738 0.5625 7.69584 1.12402 6.75004 2.14355C5.79398 3.17432 5.32816 4.5752 5.43754 6.08789C5.65433 9.07227 7.92533 11.5 10.5 11.5C13.0747 11.5 15.3418 9.07275 15.562 6.08887C15.6729 4.58984 15.2041 3.19189 14.2422 2.15332ZM19.0938 22.4375H1.90629C1.68132 22.4404 1.45852 22.3932 1.25412 22.2992C1.04971 22.2051 0.868835 22.0668 0.724645 21.894C0.407262 21.5146 0.279332 20.9966 0.374059 20.4727C0.786168 18.1865 2.0723 16.2661 4.09379 14.918C5.88968 13.7212 8.16459 13.0625 10.5 13.0625C12.8355 13.0625 15.1104 13.7217 16.9063 14.918C18.9278 16.2656 20.2139 18.186 20.626 20.4722C20.7207 20.9961 20.5928 21.5142 20.2754 21.8936C20.1313 22.0664 19.9504 22.2048 19.746 22.2989C19.5416 22.393 19.3188 22.4404 19.0938 22.4375Z" fill="#B90101"/>
</svg>
