<svg width="131" height="125" viewBox="0 0 131 125" fill="none" xmlns="http://www.w3.org/2000/svg">
<path d="M37.4536 23.6102C39.2516 14.1667 33.0538 5.05366 23.6102 3.25563C14.1667 1.4576 5.05365 7.65549 3.25562 17.099C1.45759 26.5425 7.65548 35.6556 17.099 37.4536C26.5425 39.2517 35.6556 33.0538 37.4536 23.6102Z" fill="#EBEBEB"/>
<path d="M21.1513 37.3508C30.3237 37.3508 37.7594 29.915 37.7594 20.7426C37.7594 11.5702 30.3237 4.13445 21.1513 4.13445C11.9789 4.13445 4.54315 11.5702 4.54315 20.7426C4.54315 29.915 11.9789 37.3508 21.1513 37.3508Z" fill="#DBDBDB"/>
<path d="M21.1513 36.3024C29.7447 36.3024 36.7111 29.336 36.7111 20.7426C36.7111 12.1491 29.7447 5.18274 21.1513 5.18274C12.5578 5.18274 5.59143 12.1491 5.59143 20.7426C5.59143 29.336 12.5578 36.3024 21.1513 36.3024Z" fill="white"/>
<path opacity="0.5" d="M36.3607 17.4416C29.2758 21.735 17.6295 28.7728 11.1187 32.6392C9.27713 31.0871 7.81975 29.1298 6.86066 26.9206L28.3953 6.98196C30.4051 8.03952 32.1594 9.52366 33.5353 11.3304C34.9113 13.1372 35.8756 15.2229 36.3607 17.4416Z" fill="#EBEBEB"/>
<path opacity="0.5" d="M36.7022 21.2874C36.646 23.0185 36.2986 24.7278 35.6745 26.3434L16.2659 35.5221C15.4199 35.2431 14.6001 34.8904 13.8159 34.4679C19.6788 31.0815 30.3887 24.9182 36.7022 21.2874Z" fill="#EBEBEB"/>
<path d="M21.3015 6.31355H21.0011V8.67226H21.3015V6.31355Z" fill="#C7C7C7"/>
<path d="M14.0679 8.17151L13.8078 8.32169L14.9872 10.3644L15.2473 10.2142L14.0679 8.17151Z" fill="#C7C7C7"/>
<path d="M8.81443 13.3261L8.66425 13.5874L10.7163 14.7668L10.8665 14.5055L8.81443 13.3261Z" fill="#C7C7C7"/>
<path d="M9.08094 20.5924H6.72223V20.8928H9.08094V20.5924Z" fill="#C7C7C7"/>
<path d="M10.6233 26.6498L8.58063 27.8291L8.73081 28.0893L10.7735 26.9099L10.6233 26.6498Z" fill="#C7C7C7"/>
<path d="M14.9875 31.1228L13.8092 33.1661L14.0694 33.3161L15.2477 31.2728L14.9875 31.1228Z" fill="#C7C7C7"/>
<path d="M21.3015 32.8159H21.0011V35.1746H21.3015V32.8159Z" fill="#C7C7C7"/>
<path d="M27.3165 31.1249L27.0564 31.2751L28.2358 33.3178L28.4959 33.1676L27.3165 31.1249Z" fill="#C7C7C7"/>
<path d="M31.6828 26.6456L31.5326 26.9057L33.5753 28.0851L33.7255 27.825L31.6828 26.6456Z" fill="#C7C7C7"/>
<path d="M35.5832 20.5924H33.2245V20.8928H35.5832V20.5924Z" fill="#C7C7C7"/>
<path d="M33.5751 13.3933L31.5326 14.5731L31.6828 14.8332L33.7253 13.6534L33.5751 13.3933Z" fill="#C7C7C7"/>
<path d="M28.2364 8.17097L27.0581 10.2143L27.3183 10.3643L28.4966 8.32102L28.2364 8.17097Z" fill="#C7C7C7"/>
<path d="M21.378 7.37956L21.8903 21.7939L20.415 21.7762L20.9775 7.37662L21.378 7.37956Z" fill="#C7C7C7"/>
<path d="M30.3565 15.7189L20.6595 21.9087L19.9557 20.6101L30.1651 15.3656L30.3565 15.7189Z" fill="#A6A6A6"/>
<path d="M21.6548 20.7426C21.6536 20.8419 21.6231 20.9387 21.567 21.0207C21.511 21.1027 21.432 21.1664 21.3399 21.2036C21.2478 21.2408 21.1467 21.2499 21.0494 21.2298C20.9521 21.2098 20.863 21.1613 20.7931 21.0907C20.7233 21.02 20.6759 20.9303 20.657 20.8328C20.638 20.7353 20.6483 20.6343 20.6866 20.5427C20.7249 20.451 20.7894 20.3727 20.8721 20.3176C20.9548 20.2626 21.0519 20.2332 21.1512 20.2332C21.2178 20.2331 21.2838 20.2464 21.3453 20.272C21.4068 20.2977 21.4625 20.3353 21.5094 20.3827C21.5562 20.4301 21.5932 20.4863 21.6181 20.5481C21.6431 20.6099 21.6555 20.676 21.6548 20.7426Z" fill="#C7C7C7"/>
<path d="M126.672 5.94543H68.511V46.1937H126.672V5.94543Z" fill="#DBDBDB"/>
<path d="M124.295 8.32184H70.8873V43.838H124.295V8.32184Z" fill="#EBEBEB"/>
<path d="M85.5284 15.233H74.4886V28.3164H85.5284V15.233Z" fill="white"/>
<path d="M80.4046 16.1253C80.4046 16.2041 80.3812 16.281 80.3374 16.3465C80.2935 16.4119 80.2313 16.4629 80.1585 16.4929C80.0857 16.5229 80.0056 16.5306 79.9284 16.515C79.8512 16.4994 79.7804 16.4612 79.7249 16.4054C79.6694 16.3495 79.6318 16.2784 79.6168 16.2011C79.6018 16.1237 79.6101 16.0437 79.6406 15.9711C79.6712 15.8985 79.7226 15.8367 79.7883 15.7933C79.8541 15.75 79.9312 15.7272 80.01 15.7278C80.062 15.7278 80.1136 15.7381 80.1617 15.7581C80.2097 15.7781 80.2534 15.8074 80.29 15.8444C80.3267 15.8813 80.3557 15.9252 80.3754 15.9734C80.395 16.0216 80.405 16.0733 80.4046 16.1253Z" fill="#455A64"/>
<path d="M76.5883 17.8538C77.7043 17.7684 78.8233 17.7626 79.9393 17.7508C81.0554 17.739 82.1714 17.7684 83.2875 17.8538C82.1714 17.9422 81.0554 17.9451 79.9393 17.9598C78.8233 17.9746 77.7043 17.9392 76.5883 17.8538Z" fill="#EBEBEB"/>
<path d="M76.5883 18.8875C77.1932 18.8164 77.8019 18.7819 78.411 18.7844C79.0192 18.7806 79.627 18.815 80.2309 18.8875C79.0208 19.0288 77.7983 19.0288 76.5883 18.8875Z" fill="#EBEBEB"/>
<path d="M76.5883 19.9387C77.3657 19.8563 78.1401 19.8386 78.9146 19.8327C79.689 19.8268 80.4664 19.8563 81.2409 19.9387C80.4664 20.0182 79.692 20.0388 78.9146 20.0418C78.1372 20.0447 77.3657 20.0035 76.5883 19.9387Z" fill="#EBEBEB"/>
<path d="M76.5883 20.9576C77.56 20.8751 78.5288 20.8574 79.5006 20.8516C80.4723 20.8457 81.4411 20.8751 82.4099 20.9576C81.4411 21.0371 80.4694 21.0577 79.5006 21.0606C78.5318 21.0636 77.56 21.0371 76.5883 20.9576Z" fill="#EBEBEB"/>
<path d="M76.5883 22C77.4334 21.9176 78.2756 21.8999 79.1178 21.894C79.9599 21.8881 80.8021 21.9176 81.6473 22C80.8021 22.0795 79.9599 22.1001 79.1178 22.1031C78.2756 22.106 77.4334 22.0707 76.5883 22Z" fill="#EBEBEB"/>
<path d="M76.5883 23.0247C77.669 22.9393 78.7467 22.9335 79.8274 22.9217C80.9081 22.9099 81.9859 22.9364 83.0666 23.0247C81.9859 23.1101 80.9081 23.116 79.8274 23.1278C78.7467 23.1396 77.669 23.1101 76.5883 23.0247Z" fill="#EBEBEB"/>
<path d="M76.5883 24.0613C77.9787 23.9239 79.3793 23.9239 80.7697 24.0613C80.0753 24.1353 79.3773 24.1697 78.679 24.1643C77.9807 24.1681 77.2828 24.1337 76.5883 24.0613Z" fill="#EBEBEB"/>
<path d="M76.5883 25.0919C77.7043 25.0065 78.8233 25.0007 79.9393 24.9889C81.0554 24.9771 82.1714 25.0065 83.2875 25.0919C82.1714 25.1773 81.0554 25.1832 79.9393 25.195C78.8233 25.2068 77.7043 25.1773 76.5883 25.0919Z" fill="#EBEBEB"/>
<path d="M76.5883 26.1226C77.7043 26.0372 78.8233 26.0313 79.9393 26.0195C81.0554 26.0077 82.1714 26.0372 83.2875 26.1226C82.1714 26.2109 81.0554 26.2139 79.9393 26.2256C78.8233 26.2374 77.7043 26.2109 76.5883 26.1226Z" fill="#EBEBEB"/>
<path d="M121.307 11.2106H110.267V24.2939H121.307V11.2106Z" fill="white"/>
<path d="M116.186 12.0999C116.184 12.1781 116.159 12.2541 116.114 12.3183C116.07 12.3825 116.007 12.4321 115.934 12.4608C115.862 12.4896 115.782 12.4962 115.705 12.4799C115.629 12.4635 115.559 12.425 115.504 12.3691C115.449 12.3131 115.412 12.2423 115.398 12.1654C115.383 12.0886 115.391 12.0091 115.422 11.937C115.452 11.8648 115.503 11.8033 115.568 11.76C115.633 11.7167 115.71 11.6936 115.788 11.6935C115.841 11.6935 115.894 11.7041 115.942 11.7246C115.991 11.7452 116.035 11.7752 116.072 11.8131C116.109 11.8509 116.139 11.8958 116.158 11.9451C116.177 11.9943 116.187 12.047 116.186 12.0999Z" fill="#455A64"/>
<path d="M112.37 13.8314C113.486 13.743 114.602 13.7401 115.718 13.7254C116.834 13.7106 117.95 13.743 119.066 13.8314C117.95 13.9168 116.834 13.9227 115.718 13.9344C114.602 13.9462 113.486 13.9168 112.37 13.8314Z" fill="#EBEBEB"/>
<path d="M112.37 14.8649C113.579 14.7236 114.8 14.7236 116.009 14.8649C114.8 15.0023 113.579 15.0023 112.37 14.8649Z" fill="#EBEBEB"/>
<path d="M112.37 15.8985C113.917 15.7611 115.474 15.7611 117.022 15.8985C116.248 15.978 115.47 15.9987 114.696 16.0016C113.921 16.0045 113.144 15.978 112.37 15.8985Z" fill="#EBEBEB"/>
<path d="M112.37 16.9321C113.338 16.8497 114.31 16.832 115.279 16.8291C116.248 16.8261 117.219 16.8497 118.191 16.9321C117.219 17.0146 116.251 17.0323 115.279 17.0352C114.307 17.0382 113.338 17.0117 112.37 16.9321Z" fill="#EBEBEB"/>
<path d="M112.37 17.9657C113.212 17.8774 114.048 17.8774 114.899 17.8774C115.75 17.8774 116.583 17.898 117.426 17.9804C116.583 18.0629 115.741 18.0806 114.899 18.0835C114.057 18.0865 113.212 18.0452 112.37 17.9657Z" fill="#EBEBEB"/>
<path d="M112.37 18.9994C113.447 18.914 114.528 18.9081 115.609 18.8963C116.689 18.8845 117.767 18.914 118.848 18.9994C117.77 19.0877 116.689 19.0906 115.609 19.1024C114.528 19.1142 113.459 19.0848 112.37 18.9994Z" fill="#EBEBEB"/>
<path d="M112.37 20.0329C113.76 19.8955 115.161 19.8955 116.551 20.0329C115.161 20.1743 113.76 20.1743 112.37 20.0329Z" fill="#EBEBEB"/>
<path d="M112.37 21.0665C113.486 20.9811 114.602 20.9752 115.718 20.9635C116.834 20.9517 117.95 20.9811 119.066 21.0665C117.95 21.1549 116.834 21.1607 115.718 21.1725C114.602 21.1843 113.486 21.1519 112.37 21.0665Z" fill="#EBEBEB"/>
<path d="M112.37 22.1001C113.486 22.0147 114.602 22.0088 115.718 21.997C116.834 21.9853 117.95 22.0147 119.066 22.1001C117.95 22.1884 116.834 22.1943 115.718 22.2061C114.602 22.2179 113.486 22.1884 112.37 22.1001Z" fill="#EBEBEB"/>
<path d="M106.966 21.8645H93.9003V37.3449H106.966V21.8645Z" fill="white"/>
<path d="M100.829 23.9524C100.829 24.031 100.806 24.1078 100.762 24.1732C100.718 24.2386 100.656 24.2895 100.584 24.3196C100.511 24.3497 100.431 24.3576 100.354 24.3423C100.277 24.3269 100.206 24.2891 100.15 24.2335C100.095 24.1779 100.057 24.107 100.042 24.0299C100.026 23.9528 100.034 23.8729 100.064 23.8002C100.094 23.7276 100.145 23.6655 100.211 23.6218C100.276 23.5781 100.353 23.5548 100.432 23.5548C100.484 23.5544 100.536 23.5644 100.584 23.5843C100.633 23.6041 100.677 23.6334 100.714 23.6704C100.75 23.7074 100.78 23.7514 100.8 23.7998C100.819 23.8482 100.829 23.9 100.829 23.9524Z" fill="#455A64"/>
<path d="M95.7289 25.7251C96.2085 25.6541 96.6928 25.6197 97.1777 25.622C97.6626 25.6182 98.147 25.6527 98.6265 25.7251C97.6658 25.8664 96.6896 25.8664 95.7289 25.7251Z" fill="#EBEBEB"/>
<path d="M95.7289 26.8941C96.9756 26.7567 98.2337 26.7567 99.4804 26.8941C98.2337 27.0315 96.9756 27.0315 95.7289 26.8941Z" fill="#EBEBEB"/>
<path d="M95.7289 28.0602C96.8831 27.9228 98.0495 27.9228 99.2036 28.0602C98.0495 28.1977 96.8831 28.1977 95.7289 28.0602Z" fill="#EBEBEB"/>
<path d="M95.7289 29.2293C96.8828 29.0879 98.0497 29.0879 99.2036 29.2293C98.6274 29.3017 98.047 29.3362 97.4663 29.3323C96.8855 29.3347 96.3053 29.3003 95.7289 29.2293Z" fill="#EBEBEB"/>
<path d="M95.7289 30.3953C96.7303 30.2579 97.7458 30.2579 98.7472 30.3953C98.2481 30.4691 97.744 30.5036 97.2395 30.4984C96.7341 30.5022 96.2291 30.4678 95.7289 30.3953Z" fill="#EBEBEB"/>
<path d="M95.7289 31.5615C97.013 31.424 98.3082 31.424 99.5923 31.5615C98.3084 31.7028 97.0128 31.7028 95.7289 31.5615Z" fill="#EBEBEB"/>
<path d="M95.7289 32.7305C96.7872 32.5892 97.8597 32.5892 98.918 32.7305C98.3901 32.8029 97.8577 32.8374 97.3249 32.8336C96.7912 32.836 96.2579 32.8016 95.7289 32.7305Z" fill="#EBEBEB"/>
<path d="M95.7289 33.8966C96.3929 33.8241 97.0604 33.7897 97.7283 33.7936C98.3963 33.7882 99.0639 33.8227 99.7278 33.8966C98.3984 34.0341 97.0583 34.0341 95.7289 33.8966Z" fill="#EBEBEB"/>
<path d="M95.7289 35.0627C96.393 34.9917 97.0605 34.9573 97.7283 34.9597C98.3962 34.9558 99.0638 34.9902 99.7278 35.0627C98.3986 35.2041 97.0581 35.2041 95.7289 35.0627Z" fill="#EBEBEB"/>
<path d="M101.439 25.7251C102.068 25.654 102.702 25.6196 103.335 25.622C103.97 25.6182 104.604 25.6526 105.234 25.7251C103.973 25.8664 102.7 25.8664 101.439 25.7251Z" fill="#EBEBEB"/>
<path d="M101.439 26.8941C102.264 26.7567 103.107 26.7567 103.933 26.8941C103.107 27.0315 102.264 27.0315 101.439 26.8941Z" fill="#EBEBEB"/>
<path d="M101.439 28.0602C102.625 27.9228 103.824 27.9228 105.011 28.0602C103.824 28.1977 102.625 28.1977 101.439 28.0602Z" fill="#EBEBEB"/>
<path d="M101.439 29.2293C102.593 29.0879 103.76 29.0879 104.913 29.2293C104.337 29.3017 103.757 29.3362 103.176 29.3323C102.595 29.3348 102.015 29.3004 101.439 29.2293Z" fill="#EBEBEB"/>
<path d="M101.439 30.3953C102.7 30.2579 103.973 30.2579 105.234 30.3953C104.604 30.4693 103.97 30.5037 103.335 30.4984C102.701 30.5022 102.068 30.4678 101.439 30.3953Z" fill="#EBEBEB"/>
<path d="M101.439 31.5615C102.44 31.4241 103.456 31.4241 104.457 31.5615C103.456 31.7028 102.44 31.7028 101.439 31.5615Z" fill="#EBEBEB"/>
<path d="M101.439 32.7305C102.625 32.5892 103.824 32.5892 105.011 32.7305C104.418 32.8029 103.821 32.8373 103.223 32.8336C102.627 32.8359 102.031 32.8015 101.439 32.7305Z" fill="#EBEBEB"/>
<path d="M101.439 33.8966C101.895 33.8241 102.357 33.7897 102.82 33.7936C103.282 33.7884 103.744 33.8229 104.201 33.8966C103.285 34.034 102.354 34.034 101.439 33.8966Z" fill="#EBEBEB"/>
<path d="M101.439 35.0627C101.877 34.9918 102.32 34.9574 102.764 34.9597C103.208 34.9559 103.651 34.9904 104.089 35.0627C103.211 35.204 102.316 35.204 101.439 35.0627Z" fill="#EBEBEB"/>
<path d="M91.1557 11.6376H84.5125V18.2808H91.1557V11.6376Z" fill="#B90101"/>
<path d="M88.2316 12.3119C88.2316 12.3908 88.2081 12.4679 88.1642 12.5334C88.1202 12.5989 88.0578 12.6498 87.9848 12.6797C87.9118 12.7096 87.8316 12.7171 87.7543 12.7013C87.677 12.6855 87.6062 12.6471 87.5509 12.5909C87.4955 12.5347 87.4581 12.4633 87.4435 12.3858C87.4288 12.3083 87.4375 12.2282 87.4685 12.1557C87.4995 12.0831 87.5514 12.0215 87.6175 11.9785C87.6837 11.9355 87.7611 11.9132 87.84 11.9144C87.9444 11.9159 88.044 11.9585 88.1172 12.0329C88.1905 12.1073 88.2316 12.2075 88.2316 12.3119Z" fill="#455A64"/>
<path d="M124.263 8.32184H123.368V43.8762H124.263V8.32184Z" fill="#C7C7C7"/>
<path d="M67.3979 125C102.178 125 130.373 122.231 130.373 118.816C130.373 115.401 102.178 112.632 67.3979 112.632C32.6175 112.632 4.42242 115.401 4.42242 118.816C4.42242 122.231 32.6175 125 67.3979 125Z" fill="#EBEBEB"/>
<path d="M2.82635 107.561L18.557 107.488L34.2906 107.464L65.7548 107.414L97.219 107.464L112.953 107.488L128.683 107.561L112.953 107.632L97.219 107.659L65.7548 107.709L34.2906 107.659L18.557 107.632L2.82635 107.561Z" fill="#263238"/>
<path d="M118.053 25.4659H10.5415V98.5713H118.053V25.4659Z" fill="#263238"/>
<path d="M118.053 87.7877H10.5414V98.5712H118.053V87.7877Z" fill="#B90101"/>
<path opacity="0.4" d="M118.053 87.7877H10.5414V98.5712H118.053V87.7877Z" fill="white"/>
<path d="M85.2456 111.749H43.3454V115.25H85.2456V111.749Z" fill="#B90101"/>
<path opacity="0.3" d="M85.2456 111.749H43.3454V115.25H85.2456V111.749Z" fill="white"/>
<path d="M80.2574 111.752H48.3367L49.1465 105.677L49.1878 105.388L49.2614 104.82L49.2996 104.531L49.3762 103.963L49.388 103.875L49.4145 103.677L49.4911 103.106L49.5293 102.82L50.0977 98.5742H78.4964L79.0294 102.579L79.0589 102.77L79.1472 103.436L79.1708 103.627L79.2061 103.875L79.262 104.293L79.2856 104.484L79.3739 105.15L79.4004 105.341L80.2574 111.752Z" fill="#B90101"/>
<g opacity="0.4">
<path d="M80.2574 111.752H48.3367L49.1465 105.677L49.1878 105.388L49.2614 104.82L49.2996 104.531L49.3762 103.963L49.388 103.875L49.4145 103.677L49.4911 103.106L49.5293 102.82L50.0977 98.5742H78.4964L79.0294 102.579L79.0589 102.77L79.1472 103.436L79.1708 103.627L79.2061 103.875L79.262 104.293L79.2856 104.484L79.3739 105.15L79.4004 105.341L80.2574 111.752Z" fill="white"/>
</g>
<path d="M66.0491 92.4551C66.0491 92.8074 65.9446 93.1519 65.7489 93.4448C65.5531 93.7378 65.2749 93.9662 64.9493 94.101C64.6238 94.2358 64.2656 94.2711 63.92 94.2024C63.5744 94.1337 63.257 93.964 63.0078 93.7148C62.7587 93.4657 62.589 93.1482 62.5203 92.8026C62.4515 92.4571 62.4868 92.0988 62.6216 91.7733C62.7565 91.4478 62.9848 91.1695 63.2778 90.9738C63.5708 90.778 63.9152 90.6735 64.2676 90.6735C64.7401 90.6735 65.1932 90.8612 65.5273 91.1953C65.8614 91.5294 66.0491 91.9826 66.0491 92.4551Z" fill="#37474F"/>
<g opacity="0.16">
<path d="M79.2061 103.875L49.5294 102.82L50.0977 98.5742H78.4965L79.2061 103.875Z" fill="black"/>
</g>
<path d="M113 30.2273H15.1266V82.8708H113V30.2273Z" fill="white"/>
<path d="M113.127 83H15V30.1109H113.127V83ZM15.2532 82.7467H112.873V30.3641H15.2532V82.7467Z" fill="#263238"/>
<path d="M113 30.2273H15.1266V32.2534H113V30.2273Z" fill="#455A64"/>
<path d="M16.6658 31.2404C16.6658 31.3406 16.6361 31.4385 16.5805 31.5218C16.5248 31.6051 16.4458 31.67 16.3532 31.7084C16.2607 31.7467 16.1589 31.7568 16.0607 31.7372C15.9625 31.7177 15.8723 31.6694 15.8014 31.5986C15.7306 31.5277 15.6824 31.4375 15.6629 31.3392C15.6433 31.241 15.6534 31.1391 15.6917 31.0466C15.73 30.954 15.7949 30.8749 15.8782 30.8193C15.9614 30.7636 16.0593 30.7339 16.1595 30.7339C16.2938 30.7339 16.4225 30.7873 16.5175 30.8822C16.6125 30.9772 16.6658 31.1061 16.6658 31.2404Z" fill="#C7C7C7"/>
<path d="M18.7165 31.2404C18.7165 31.3406 18.6868 31.4385 18.6311 31.5218C18.5755 31.6051 18.4964 31.67 18.4039 31.7084C18.3114 31.7467 18.2096 31.7568 18.1113 31.7372C18.0131 31.7177 17.9229 31.6694 17.8521 31.5986C17.7813 31.5277 17.7331 31.4375 17.7135 31.3392C17.694 31.241 17.704 31.1391 17.7423 31.0466C17.7807 30.954 17.8456 30.8749 17.9288 30.8193C18.0121 30.7636 18.11 30.7339 18.2101 30.7339C18.3444 30.7339 18.4732 30.7873 18.5682 30.8822C18.6631 30.9772 18.7165 31.1061 18.7165 31.2404Z" fill="white"/>
<path d="M20.7671 31.2404C20.7671 31.3406 20.7374 31.4385 20.6817 31.5218C20.6261 31.6051 20.547 31.67 20.4545 31.7084C20.362 31.7467 20.2602 31.7568 20.1619 31.7372C20.0637 31.7177 19.9735 31.6694 19.9027 31.5986C19.8319 31.5277 19.7837 31.4375 19.7641 31.3392C19.7446 31.241 19.7546 31.1391 19.7929 31.0466C19.8313 30.954 19.8962 30.8749 19.9794 30.8193C20.0627 30.7636 20.1606 30.7339 20.2607 30.7339C20.395 30.7339 20.5238 30.7873 20.6188 30.8822C20.7137 30.9772 20.7671 31.1061 20.7671 31.2404Z" fill="#B90101"/>
<path d="M19.3545 59.1552L55.3469 59.1552V36.5109H19.3545V59.1552Z" fill="#B90101"/>
<path opacity="0.6" d="M19.3545 59.1552L55.3469 59.1552V36.5109H19.3545V59.1552Z" fill="white"/>
<path d="M35.3292 54.2773H55.3469L45.3393 42.0902L35.3292 54.2773Z" fill="#B90101"/>
<path opacity="0.1" d="M35.3292 54.2773H55.3469L45.3393 42.0902L35.3292 54.2773Z" fill="black"/>
<path d="M27.4886 54.29H44.0152L35.7519 46.3527L27.4886 54.29Z" fill="#B90101"/>
<path d="M55.3444 54.2773H19.3519V59.1552H55.3444V54.2773Z" fill="#B90101"/>
<path d="M27.0861 45.3186C28.3922 44.7814 29.0156 43.2867 28.4786 41.9801C27.9416 40.6735 26.4475 40.0498 25.1414 40.587C23.8353 41.1242 23.2119 42.6189 23.7489 43.9255C24.2859 45.2321 25.78 45.8558 27.0861 45.3186Z" fill="#B90101"/>
<path d="M60.519 78.4919H80.5241V62.2323H60.519V78.4919Z" fill="#B90101"/>
<path opacity="0.6" d="M60.519 78.4919H80.5241V62.2323H60.519V78.4919Z" fill="white"/>
<path d="M66.152 74.9867H80.5242L73.3394 66.2364L66.152 74.9867Z" fill="#B90101"/>
<path opacity="0.1" d="M66.152 74.9867H80.5242L73.3394 66.2364L66.152 74.9867Z" fill="black"/>
<path d="M60.5216 74.9969H72.3874L66.4533 69.2984L60.5216 74.9969Z" fill="#B90101"/>
<path d="M80.5267 74.9867H60.5216V78.4893H80.5267V74.9867Z" fill="#B90101"/>
<path d="M64.7267 68.455C65.7894 68.455 66.6508 67.5932 66.6508 66.5302C66.6508 65.4672 65.7894 64.6054 64.7267 64.6054C63.6641 64.6054 62.8027 65.4672 62.8027 66.5302C62.8027 67.5932 63.6641 68.455 64.7267 68.455Z" fill="#B90101"/>
<path d="M101.099 42.2346H60.4659V43.6959H101.099V42.2346Z" fill="#A6A6A6"/>
<path d="M108.114 45.2611H60.4659V46.7225H108.114V45.2611Z" fill="#DBDBDB"/>
<path d="M108.114 48.2876H60.4659V49.7489H108.114V48.2876Z" fill="#DBDBDB"/>
<path d="M108.114 51.3166H60.4659V52.778H108.114V51.3166Z" fill="#DBDBDB"/>
<path d="M108.114 54.3432H60.4659V55.8045H108.114V54.3432Z" fill="#DBDBDB"/>
<path d="M86.5394 57.3697H60.4659V58.831H86.5394V57.3697Z" fill="#DBDBDB"/>
<path d="M105.013 62.1867H82.3723V63.6278H105.013V62.1867Z" fill="#A6A6A6"/>
<path d="M108.114 65.1676H82.3723V66.6087H108.114V65.1676Z" fill="#DBDBDB"/>
<path d="M108.114 68.1511H82.3723V69.5922H108.114V68.1511Z" fill="#DBDBDB"/>
<path d="M108.114 71.132H82.3723V72.5731H108.114V71.132Z" fill="#DBDBDB"/>
<path d="M108.114 74.1129H82.3723V75.554H108.114V74.1129Z" fill="#DBDBDB"/>
<path d="M102.532 77.0939H82.3723V78.535H102.532V77.0939Z" fill="#DBDBDB"/>
<path d="M108.114 36.4424H60.4659V40.7403H108.114V36.4424Z" fill="#B90101"/>
<path d="M55.3444 62.1867H19.3519V66.4846H55.3444V62.1867Z" fill="#B90101"/>
<path d="M55.3444 68.0498H19.3519V69.5035H55.3444V68.0498Z" fill="#DBDBDB"/>
<path d="M55.3444 71.0611H19.3519V72.5149H55.3444V71.0611Z" fill="#DBDBDB"/>
<path d="M55.3444 74.0699H19.3519V75.5236H55.3444V74.0699Z" fill="#DBDBDB"/>
<path d="M44.0127 77.0812H19.3519V78.5349H44.0127V77.0812Z" fill="#DBDBDB"/>
<path d="M113 32.2535H110.777V82.8734H113V32.2535Z" fill="#DBDBDB"/>
<path d="M111.886 58.7449C111.734 58.7449 111.588 58.6843 111.48 58.5765C111.372 58.4687 111.312 58.3224 111.312 58.17V33.3298C111.312 33.1773 111.372 33.0311 111.48 32.9233C111.588 32.8155 111.734 32.7549 111.886 32.7549C112.039 32.7549 112.185 32.8155 112.293 32.9233C112.4 33.0311 112.461 33.1773 112.461 33.3298V58.17C112.461 58.3224 112.4 58.4687 112.293 58.5765C112.185 58.6843 112.039 58.7449 111.886 58.7449Z" fill="#A6A6A6"/>
<g opacity="0.3">
<path d="M86.088 30.2187L33.5897 82.7169H22.6001L75.1013 30.2187H86.088Z" fill="white"/>
<path d="M113.091 57.4926V68.4822L98.8562 82.7169H87.8665L113.091 57.4926Z" fill="white"/>
<path d="M37.5532 30.2187L15.5002 52.2716V41.2849L26.5665 30.2187H37.5532Z" fill="white"/>
<path d="M113.091 42.8574V47.4452L77.8162 82.7169H73.2313L113.091 42.8574Z" fill="white"/>
<path d="M57.162 30.2187L15.5002 71.8804V67.2955L52.5771 30.2187H57.162Z" fill="white"/>
<path d="M96.468 30.2187L43.9698 82.7169H42.7507L95.246 30.2187H96.468Z" fill="white"/>
<path d="M22.9327 30.2187L15.5002 37.6482V36.429L21.7106 30.2187H22.9327Z" fill="white"/>
</g>
<path d="M114.999 38.2843L112.14 38.8114L111.501 41.8267L110.862 38.8114L108.003 38.2813L110.85 37.5864L111.501 34.7388L112.152 37.5864L114.999 38.2843Z" fill="#B90101"/>
<path d="M107.299 32.76L105.703 33.0544L105.346 34.7388L104.987 33.0544L103.391 32.76L104.981 32.3713L105.346 30.7782L105.709 32.3713L107.299 32.76Z" fill="#B90101"/>
<path d="M23.1067 68.9534L21.5106 69.2479L21.1514 70.9322L20.7951 69.2479L19.1961 68.9534L20.7892 68.5647L21.1514 66.9716L21.5165 68.5647L23.1067 68.9534Z" fill="#B90101"/>
<g opacity="0.8">
<path d="M114.999 38.2843L112.14 38.8114L111.501 41.8267L110.862 38.8114L108.003 38.2813L110.85 37.5864L111.501 34.7388L112.152 37.5864L114.999 38.2843Z" fill="white"/>
<path d="M107.299 32.76L105.703 33.0544L105.346 34.7388L104.987 33.0544L103.391 32.76L104.981 32.3713L105.346 30.7782L105.709 32.3713L107.299 32.76Z" fill="white"/>
<path d="M23.1067 68.9534L21.5106 69.2479L21.1514 70.9322L20.7951 69.2479L19.1961 68.9534L20.7892 68.5647L21.1514 66.9716L21.5165 68.5647L23.1067 68.9534Z" fill="white"/>
</g>
<path d="M100.62 118.99H92.575V120.244H100.62V118.99Z" fill="#455A64"/>
<path d="M100.62 118.99H92.575V119.817H100.62V118.99Z" fill="#263238"/>
<path d="M83.0254 115.615C83.5147 116.337 84.2006 116.902 85.0018 117.246C85.8029 117.589 86.6857 117.696 87.5455 117.553C87.8243 117.501 88.0975 117.422 88.3612 117.317C88.7612 117.165 89.1425 116.967 89.4979 116.728L88.4761 115.215C88.2865 115.348 88.0843 115.463 87.8724 115.556C85.9583 116.425 84.7451 114.914 84.5066 114.57C83.4023 113.021 83.0077 109.481 84.1238 108.118C84.2003 108.018 84.5213 107.859 85.817 108.133C86.0555 108.189 86.3294 108.248 86.6356 108.333C86.8732 108.413 87.1192 108.467 87.3688 108.492L87.4042 107.582L87.4925 106.672C87.4071 106.657 87.2776 106.622 87.1068 106.572C86.5081 106.398 85.8967 106.271 85.2781 106.192C84.324 106.095 83.3258 106.207 82.7133 106.961C80.9082 109.163 81.6561 113.672 83.0254 115.615Z" fill="#455A64"/>
<path opacity="0.1" d="M88.4878 115.206C88.2983 115.339 88.0961 115.454 87.8842 115.548L88.373 117.314C88.773 117.162 89.1543 116.964 89.5096 116.725L88.4878 115.206Z" fill="black"/>
<path d="M85.2899 106.183L85.8287 108.124C86.0673 108.18 86.3411 108.239 86.6474 108.324C86.885 108.405 87.131 108.458 87.3806 108.483L87.4159 107.573L87.5043 106.663C87.4189 106.649 87.2893 106.613 87.1185 106.563C86.5198 106.389 85.9084 106.262 85.2899 106.183Z" fill="#263238"/>
<path d="M107.298 103.813C107.298 103.813 106.336 112.011 104.669 115.465C103.002 118.919 100.673 119.293 99.2271 119.293H93.9678C92.522 119.293 90.1956 118.907 88.5289 115.465C86.8622 112.023 85.8964 103.813 85.8964 103.813H107.298Z" fill="#455A64"/>
<path d="M106.262 110.117C106.186 110.468 106.112 110.812 106.035 111.16H87.1627L86.933 110.117H106.262Z" fill="#37474F"/>
<path d="M105.776 112.205C105.576 112.98 105.358 113.722 105.117 114.378H88.0785C87.84 113.722 87.6221 112.98 87.4189 112.205H105.776Z" fill="#37474F"/>
<path d="M24.5494 84.0185C24.4531 82.4045 24.2246 80.8011 23.8662 79.2245C23.5276 77.8022 23.0476 76.3505 22.1524 75.1755C21.3337 74.1037 20.1588 73.2497 18.7925 73.0848C17.4791 72.9229 16.2423 73.5088 15.2588 74.3392C14.0397 75.364 13.1062 76.7245 12.2287 78.0437C11.2681 79.518 10.394 81.0469 9.61086 82.6227C9.58436 82.6757 9.66387 82.7199 9.69037 82.6669C10.3736 81.3308 11.1614 80.0508 12.0461 78.8388C12.8473 77.6746 13.7489 76.5829 14.7405 75.576C15.6446 74.6926 16.8018 73.871 18.1005 73.8298C19.3991 73.7886 20.6035 74.5189 21.3867 75.523C22.2702 76.645 22.7089 78.0466 23.0446 79.41C23.3883 80.9125 23.6138 82.4396 23.719 83.9773C23.9751 87.137 24.0458 90.3172 24.1165 93.4857C24.1577 95.2791 24.1813 97.0724 24.1989 98.8657C24.1989 99.7727 24.1989 100.683 24.2196 101.59C24.1855 102.468 24.221 103.347 24.3256 104.219C24.355 104.396 24.6436 104.378 24.673 104.219C24.7796 103.393 24.82 102.56 24.7938 101.728C24.7938 100.868 24.8173 100.005 24.8232 99.1455C24.8389 97.469 24.8458 95.7944 24.8438 94.1218C24.8232 90.7472 24.7791 87.3725 24.5494 84.0185Z" fill="#A6A6A6"/>
<path d="M14.2371 75.7262C13.9426 75.841 14.3401 72.4723 13.0121 72.0424C11.1363 71.4328 6.82819 72.5341 4.45181 75.7262C3.9885 76.3786 3.63811 77.1043 3.41527 77.8729C4.59315 77.2987 8.51256 75.4877 9.49315 76.0413C10.3766 76.5478 4.78161 78.3087 3.05307 79.4395C2.9762 79.9065 2.9241 80.3774 2.897 80.85C3.90704 80.155 6.65739 78.3529 7.88534 78.3529C9.25168 78.3529 4.72272 80.7499 2.87933 82.4755C2.94834 84.1433 3.30705 85.7864 3.93943 87.3313C4.40764 86.4479 5.44123 84.7164 6.77813 83.7976C8.6274 82.5049 9.42836 84.5839 7.10499 86.2329C5.86232 87.1163 4.96713 87.8348 4.3988 88.3236C4.92088 89.3333 5.61891 90.2418 6.4601 91.0063C7.28792 90.0651 8.33606 89.3438 9.51082 88.9067C9.9643 88.7477 10.6887 88.5445 11.5927 88.2441C11.9056 87.1149 12.1165 85.9599 12.2229 84.7929C12.273 83.4236 13.8955 84.1834 13.2388 86.6157C13.1122 87.0751 13.0003 87.452 12.8943 87.7671C13.5907 87.5219 14.2558 87.1958 14.8761 86.7953C14.9644 85.9973 14.8319 84.1628 14.505 82.4342C14.0987 80.2787 15.7418 80.1256 16.0981 82.8406C16.263 84.0921 16.0245 85.3907 15.945 86.2359C17.8119 85.1551 19.3491 82.9554 19.3491 82.9554C19.1809 81.7409 18.7422 80.5796 18.0652 79.5572C17.1523 78.1821 18.1418 77.6402 19.0546 78.8829C19.564 79.5749 19.8674 80.741 20.0323 81.6333C21.9934 75.096 19.5699 73.5795 14.2371 75.7262ZM5.34111 82.8907C4.83462 82.1545 6.58378 80.8117 6.96364 81.2681C7.44952 81.8541 5.8476 83.6239 5.34111 82.8907ZM17.0375 79.8753C16.3249 80.3906 15.6476 78.6974 16.107 78.4029C16.5663 78.1085 17.6412 79.4365 17.0375 79.8753Z" fill="#B90101"/>
<path d="M15.4002 78.9183C15.1588 78.4412 14.9085 77.9701 14.6317 77.5107C14.3789 77.0573 14.0831 76.6293 13.7483 76.2327C13.8248 76.1414 13.8984 76.0442 13.9779 75.9529C14.0074 75.9147 13.9544 75.8617 13.922 75.8999C13.8307 76.003 13.7483 76.1061 13.6599 76.1944C13.6429 76.2041 13.6303 76.2199 13.6246 76.2386C13.2948 76.6312 12.9826 77.0366 12.6882 77.4548C12.1637 77.5753 11.6465 77.7257 11.1392 77.9053C10.6151 78.079 10.0968 78.2616 9.58738 78.4766C9.53438 78.4972 9.56088 78.5855 9.61388 78.562C10.1174 78.3382 10.6298 78.1232 11.151 77.9465C11.6722 77.7698 12.1463 77.652 12.6469 77.5107C12.485 77.7404 12.326 77.973 12.1728 78.2056C11.2315 78.5047 10.3157 78.8789 9.43426 79.3246C8.50667 79.7634 7.61737 80.2758 6.73102 80.797C6.68096 80.8264 6.73102 80.903 6.77813 80.8736C7.6501 80.364 8.54743 79.8991 9.46665 79.4807C10.3236 79.0802 11.2129 78.7504 12.0757 78.3676C9.9113 81.7776 8.60385 85.694 6.86058 89.3249C6.83702 89.3779 6.91948 89.4191 6.94009 89.3661C7.47308 88.094 8.08852 86.8543 8.66863 85.5998C9.18985 84.4779 9.69928 83.3471 10.2205 82.2222C10.3736 81.8924 10.5297 81.5656 10.6887 81.2358C10.5945 83.0526 10.6328 84.899 10.3353 86.6923C10.3353 86.704 10.34 86.7152 10.3483 86.7235C10.3566 86.7318 10.3678 86.7365 10.3795 86.7365C10.3912 86.7365 10.4025 86.7318 10.4107 86.7235C10.419 86.7152 10.4237 86.704 10.4237 86.6923C10.5503 84.7547 10.8919 82.8436 10.8772 80.8942C10.8788 80.8854 10.8788 80.8764 10.8772 80.8677C11.2453 80.1285 11.6398 79.3953 12.055 78.6827C12.7765 80.3818 13.5274 82.1074 13.8719 83.9302C13.8719 83.9861 13.975 83.9626 13.9573 83.9037C13.4685 82.075 13.0121 80.2463 12.1316 78.5561C12.5948 77.7866 13.1073 77.0479 13.6658 76.3446C13.9073 76.7951 14.2194 77.228 14.4933 77.655C14.7671 78.082 15.0263 78.5001 15.2736 78.9359C15.8106 79.8536 16.2667 80.8162 16.637 81.8129C16.6576 81.8689 16.746 81.8394 16.7224 81.7864C16.3043 80.8294 15.8832 79.8576 15.4002 78.9183Z" fill="#263238"/>
<path d="M32.5738 83.0497C31.175 81.648 29.5525 79.8105 27.3911 79.8105C25.3092 79.8105 23.775 81.4919 22.8916 83.2234C21.9699 85.0315 21.6401 87.0839 21.3809 89.0775C21.0742 91.4665 20.8895 93.8695 20.8273 96.2773C20.789 97.6113 20.7949 98.9511 20.8273 100.288C20.8209 101.642 20.9193 102.995 21.1218 104.334C21.1601 104.549 21.5076 104.558 21.5193 104.334C21.5841 103.209 21.537 102.078 21.5193 100.951C21.5017 99.8227 21.5193 98.7332 21.5723 97.6231C21.6548 95.3821 21.8168 93.1412 22.0818 90.9121C22.3115 88.9656 22.494 86.9662 23.0741 85.0845C23.6012 83.3883 24.5848 81.4478 26.3133 80.7028C28.6691 79.6868 30.9542 81.5449 32.4972 83.1115C32.5443 83.1469 32.615 83.0909 32.5738 83.0497Z" fill="#A6A6A6"/>
<path d="M36.8258 85.2406C34.95 85.0492 35.4683 84.0303 37.1733 84.4779C38.0883 84.7255 38.9498 85.1398 39.7146 85.6999C39.7696 84.1844 39.512 82.6738 38.9578 81.2623C37.3912 80.8706 35.9689 81.5567 34.5083 82.2428C33.0478 82.929 32.0731 81.1533 33.7898 80.2993C34.5085 79.9446 35.2967 79.7532 36.0981 79.7389C36.8994 79.7247 37.694 79.8879 38.4248 80.2169C38.2893 79.9813 38.1539 79.7634 38.0067 79.5573C37.6037 78.9685 37.1233 78.4366 36.5785 77.976C35.3005 78.079 34.5908 78.8594 34.2227 79.1185C33.6838 79.4719 32.8387 79.0537 33.3746 78.291C33.7957 77.7021 34.847 77.4076 35.7039 77.3458C34.1638 76.4388 32.6267 76.4359 31.758 76.8305C30.2473 77.5166 30.6714 81.4978 30.6714 81.4978C30.6714 81.4978 26.7108 79.3776 25.4151 81.0443C25.0019 81.6266 24.7206 82.2918 24.5906 82.9937C25.9922 82.4755 27.7149 82.3518 27.8769 83.191C28.0476 84.0744 25.6772 83.8153 24.4463 83.9596C24.299 85.7264 24.7113 87.8054 26.1277 89.2601C27.3291 86.9485 30.0029 85.1934 30.3828 86.4656C30.7627 87.7377 27.8916 88.0645 26.7166 89.7931C27.2262 90.1656 27.7801 90.4732 28.3657 90.7089C29.0047 89.7489 30.0766 88.4238 30.5919 88.8272C31.1072 89.2306 29.7585 90.167 28.8869 90.9209C30.1273 91.3708 31.4014 91.7213 32.6973 91.9692C33.0154 90.6353 33.6249 89.3896 34.2139 89.5045C34.8028 89.6193 33.6603 91.0151 33.1685 92.0664C34.8987 92.4057 36.6499 92.6271 38.4101 92.7289C38.5161 92.6995 39.2375 90.594 39.5615 87.9762C38.6963 87.6269 37.7735 87.4422 36.8405 87.4314C35.5154 87.3666 35.3888 85.8589 37.3706 86.071C38.2013 86.1913 38.9888 86.5172 39.6616 87.0192C39.6792 86.7424 39.6969 86.4597 39.7087 86.1711C38.8208 85.6685 37.84 85.3519 36.8258 85.2406ZM36.3311 83.1793C36.5343 82.7287 37.7446 82.8848 37.6268 83.4413C37.509 83.9979 36.1633 83.5621 36.3311 83.1793ZM26.4222 86.919C26.3486 86.5451 27.1583 86.2005 27.2732 86.5038C27.388 86.8071 26.5223 87.4226 26.4222 86.919ZM32.1202 90.0228C31.4753 89.6871 32.397 88.2177 32.9889 88.4532C33.4718 88.6358 32.7739 90.3467 32.1202 90.0228Z" fill="#B90101"/>
<path d="M38.1716 92.4374C37.2882 90.9503 36.4048 89.4544 35.4684 87.9968C35.0355 87.3166 34.585 86.6511 34.105 85.9973L34.317 85.9473C34.4348 85.9208 34.5526 85.8972 34.6733 85.8766C34.9442 85.8295 35.221 85.7912 35.4949 85.7618C35.7687 85.7323 36.0161 85.7235 36.2782 85.7205C36.5567 85.7028 36.8364 85.7177 37.1115 85.7647C37.1439 85.7647 37.1498 85.7176 37.1115 85.7205C36.8347 85.7205 36.552 85.694 36.2723 85.6911C35.9925 85.6881 35.7305 85.6911 35.4625 85.7088C35.1945 85.7264 34.956 85.75 34.7057 85.7883C34.5673 85.8089 34.4289 85.8324 34.2905 85.8619C34.2063 85.8743 34.1227 85.891 34.0402 85.9119C33.5602 85.2523 33.0596 84.6015 32.5413 83.9655C34.0821 83.2175 35.7224 82.6949 37.4119 82.4136C37.4384 82.4136 37.4296 82.3636 37.4119 82.3695C35.6997 82.6071 34.0353 83.1119 32.4795 83.8654L31.5961 82.8229C31.2751 82.4372 30.9306 82.0603 30.6391 81.6451C30.638 81.6414 30.636 81.6381 30.6334 81.6354C30.6307 81.6326 30.6275 81.6306 30.6239 81.6294C30.6203 81.6282 30.6164 81.6279 30.6127 81.6285C30.6089 81.6291 30.6054 81.6306 30.6023 81.6329C30.5993 81.6352 30.5969 81.6382 30.5952 81.6416C30.5936 81.645 30.5928 81.6488 30.5929 81.6526C30.5931 81.6564 30.5941 81.6601 30.596 81.6634C30.5979 81.6667 30.6005 81.6695 30.6037 81.6716C31.0035 82.112 31.3799 82.5729 31.7315 83.0526C31.0957 83.4961 30.4907 83.9821 29.9205 84.5073C29.3316 85.0315 28.7544 85.5723 28.1891 86.1298C28.1714 86.1505 28.1891 86.1829 28.2214 86.1622C28.7751 85.6116 29.3522 85.0845 29.9529 84.5868C30.5537 84.0892 31.1868 83.6268 31.7904 83.1321L32.2056 83.6769L32.4147 83.9508C32.4179 83.9587 32.4229 83.9658 32.4294 83.9714C32.6621 84.2658 32.8918 84.5603 33.1214 84.8754C32.8519 85.2662 32.6211 85.6824 32.4324 86.1181C32.2351 86.5362 32.0613 86.9691 31.8994 87.4049C31.583 88.3135 31.3359 89.2447 31.1603 90.1906C31.1603 90.22 31.1956 90.2348 31.2015 90.2053C31.3932 89.273 31.6641 88.3588 32.0113 87.4726C32.185 87.0191 32.3823 86.5745 32.5855 86.1328C32.7887 85.6911 32.9919 85.3436 33.1744 84.9372C33.3747 85.2023 33.572 85.4702 33.7634 85.7382C33.8193 85.8148 33.8723 85.8943 33.9283 85.9738C33.9283 85.9914 33.9283 86.015 33.9489 86.015C34.5614 86.866 35.1415 87.7406 35.7157 88.624C35.6807 88.6846 35.6549 88.7501 35.6392 88.8184C35.6009 88.9244 35.5685 89.0333 35.5361 89.1423C35.4743 89.3602 35.4213 89.581 35.38 89.8019C35.3388 90.0227 35.3123 90.223 35.2917 90.435C35.2905 90.6764 35.2728 90.9175 35.2387 91.1565C35.2387 91.1918 35.2887 91.1947 35.2829 91.1565C35.2673 90.9314 35.2842 90.7053 35.3329 90.4851C35.3653 90.2554 35.4065 90.0286 35.4595 89.8019C35.5125 89.5752 35.5626 89.3926 35.6244 89.1923C35.6539 89.0922 35.6863 88.9941 35.7216 88.8979C35.7393 88.8449 35.7658 88.7919 35.7835 88.733C36.0485 89.1492 36.3106 89.5663 36.5697 89.9845L38.098 92.4845C38.1304 92.5169 38.1981 92.4786 38.1716 92.4374Z" fill="#263238"/>
<path d="M24.4552 103.863C24.4316 103.018 24.2991 102.17 24.2078 101.333C24.1165 100.497 24.0223 99.649 23.931 98.8068C23.7602 97.1843 23.663 95.5264 23.2802 93.9333C22.9974 92.5451 22.3038 91.274 21.2896 90.2848C20.7674 89.7619 20.0812 89.4343 19.3461 89.3572C18.6077 89.3363 17.883 89.5599 17.2848 89.9933C16.603 90.4963 16.0149 91.1153 15.5474 91.822C15.0435 92.521 14.5917 93.2562 14.1958 94.0217C14.1781 94.0482 14.2252 94.0688 14.24 94.0393C14.99 92.7637 15.9848 91.6489 17.167 90.7589C17.6931 90.3261 18.3355 90.0587 19.0133 89.9904C19.3436 89.9847 19.6718 90.0448 19.9786 90.1671C20.2855 90.2895 20.565 90.4716 20.8008 90.703C21.7843 91.5569 22.3526 92.8143 22.6913 94.0482C23.0947 95.5205 23.2243 97.0488 23.4245 98.5506C23.5423 99.434 23.6571 100.332 23.7749 101.224C23.8927 102.117 23.9663 103.021 24.1548 103.895C24.1591 103.935 24.179 103.972 24.2102 103.997C24.2414 104.022 24.2813 104.034 24.3212 104.029C24.361 104.025 24.3975 104.005 24.4226 103.974C24.4478 103.943 24.4595 103.903 24.4552 103.863Z" fill="#A6A6A6"/>
<path d="M19.2283 91.2007C17.2907 91.1624 15.2412 92.6053 15.2412 92.6053C15.2412 92.6053 16.3278 88.8361 13.3006 88.9597C11.5014 89.0304 9.25457 90.918 8.80403 93.8627C9.49604 93.4946 10.9596 92.7849 12.1168 92.7643C13.6864 92.7348 13.7924 93.9628 11.628 94.1512C10.6474 94.2038 9.67559 94.3647 8.73041 94.6312C8.69472 95.5513 8.81723 96.4706 9.09261 97.3492C10.2999 96.616 12.3612 95.8386 12.4231 96.8486C12.4672 97.5995 10.3382 97.6613 9.28696 97.9234C9.72982 99.0776 10.3389 100.161 11.095 101.139C12.5717 100.923 14.0297 100.595 15.4561 100.156C15.4608 99.6263 15.4155 99.0978 15.3207 98.5771C15.0645 97.2344 16.0539 97.2079 16.1805 98.5006C16.2252 98.9824 16.1944 99.4682 16.0892 99.9405C17.0718 99.6136 18.0119 99.1707 18.8897 98.6213C18.861 97.5999 18.6506 96.5918 18.2683 95.6442C17.8826 94.593 18.6482 93.9893 19.2901 95.1996C19.7053 95.977 19.5375 97.4375 19.3991 98.2591C19.7478 97.9917 20.0571 97.6765 20.3178 97.3227C22.3821 94.4398 21.1512 91.2301 19.2283 91.2007ZM10.8771 91.8956C10.9478 91.3508 12.2994 91.4539 12.2317 91.8779C12.1639 92.302 10.7888 92.4934 10.8712 91.8838L10.8771 91.8956ZM9.36941 96.3127C9.50193 95.9622 10.085 96.0182 10.0585 96.2891C10.032 96.56 9.27518 96.5365 9.36352 96.3097L9.36941 96.3127ZM17.3967 98.2091C16.6104 98.2414 16.8696 96.6101 17.326 96.5453C17.7088 96.5011 17.9886 98.1826 17.3908 98.2061L17.3967 98.2091Z" fill="#B90101"/>
<path d="M16.69 98.3563C16.6135 98.1531 16.5457 97.947 16.4839 97.7379C16.5428 97.947 16.5928 98.159 16.6341 98.371C16.64 98.4122 16.7047 98.3945 16.69 98.3563Z" fill="#263238"/>
<path d="M15.889 95.7326C15.7477 95.3144 15.5945 94.9022 15.4267 94.4899C15.3383 94.272 15.25 94.0541 15.1528 93.8391C15.0851 93.6467 14.9952 93.4629 14.8849 93.2914C14.9788 93.1218 15.0605 92.9456 15.1293 92.7643C15.1305 92.7605 15.1303 92.7564 15.1289 92.7527C15.1275 92.749 15.1249 92.7459 15.1215 92.7439C15.1181 92.7418 15.1141 92.741 15.1102 92.7415C15.1063 92.742 15.1026 92.7438 15.0998 92.7466C14.8782 93.0348 14.6812 93.3412 14.5109 93.6624L14.2635 94.0953C14.0921 94.1103 13.9219 94.1368 13.7541 94.1748C13.5745 94.2072 13.3919 94.2425 13.2123 94.2838L12.6734 94.4104C12.4967 94.4516 12.3171 94.5105 12.1375 94.54C12.133 94.5385 12.1283 94.5381 12.1237 94.5388C12.1191 94.5395 12.1148 94.5413 12.111 94.5441C12.1072 94.5468 12.1041 94.5504 12.102 94.5545C12.0999 94.5587 12.0988 94.5633 12.0988 94.5679C12.0988 94.5726 12.0999 94.5772 12.102 94.5813C12.1041 94.5855 12.1072 94.589 12.111 94.5918C12.1148 94.5945 12.1191 94.5963 12.1237 94.597C12.1283 94.5977 12.133 94.5974 12.1375 94.5959C12.3213 94.5307 12.5105 94.4814 12.7028 94.4487C12.8766 94.4104 13.0503 94.3809 13.227 94.3544C13.4037 94.3279 13.5804 94.3073 13.757 94.2896L14.1575 94.2573C14.0839 94.3839 14.0103 94.5105 13.9396 94.6371L13.9072 94.699C13.7605 94.6982 13.6142 94.715 13.4714 94.749C13.3153 94.7785 13.1593 94.8079 13.0061 94.8433C12.6881 94.911 12.376 94.9875 12.0638 95.0729C11.4072 95.2555 10.7623 95.4646 10.1144 95.6766C10.0791 95.6766 10.1144 95.7443 10.138 95.7326C10.7794 95.5157 11.4321 95.3338 12.0933 95.1878C12.4054 95.1201 12.7146 95.0464 13.0238 94.9817L13.492 94.8845C13.6098 94.858 13.7364 94.8433 13.8542 94.805C13.5185 95.4204 13.2064 96.0447 12.9178 96.6837C12.2906 98.0707 11.7605 99.5018 11.2216 100.927C11.2216 100.962 11.2658 100.986 11.2776 100.951C11.8013 99.5312 12.408 98.1438 13.0945 96.7956C13.2152 96.5482 13.3418 96.3038 13.4626 96.0565C13.4626 96.1065 13.4861 96.1566 13.495 96.2067C13.5244 96.3775 13.5568 96.5453 13.5833 96.7131C13.6422 97.0518 13.6981 97.3875 13.7482 97.7291C13.8926 98.4212 13.9744 99.1248 13.9926 99.8316C13.9926 99.8758 14.0574 99.8728 14.0515 99.8316C14.0083 99.4916 13.9828 99.1495 13.975 98.8068C13.9543 98.4535 13.9278 98.0972 13.8866 97.7467C13.8454 97.3963 13.8042 97.0665 13.7482 96.7279L13.6599 96.2214C13.6502 96.0947 13.6172 95.9709 13.5627 95.8562C13.7423 95.4999 13.9161 95.1436 14.0957 94.7903C14.2753 94.4369 14.4343 94.1247 14.6081 93.7949C14.6817 93.6536 14.7612 93.5152 14.8377 93.3709C14.8923 93.5453 14.9592 93.7155 15.038 93.8803C15.1145 94.0717 15.1941 94.2631 15.2736 94.4546C15.4444 94.8756 15.6063 95.3026 15.7683 95.7296C15.998 96.3362 16.2512 96.9546 16.4397 97.5848C16.2542 96.9723 16.0981 96.3421 15.889 95.7326Z" fill="#263238"/>
<path d="M29.5171 102.217L29.3051 106.722L28.7574 118.339H16.7724L16.2247 106.722L16.0127 102.217H29.5171Z" fill="#455A64"/>
<path d="M29.5171 102.217L29.3051 106.722H16.2247L16.0127 102.217H29.5171Z" fill="#263238"/>
<path d="M30.3712 100.394H15.1617V104.037H30.3712V100.394Z" fill="#455A64"/>
<path d="M19.8467 118.339H17.7441V120.247H19.8467V118.339Z" fill="#455A64"/>
<path d="M19.8467 118.339H17.7441V119.293H19.8467V118.339Z" fill="#263238"/>
<path d="M27.7886 118.339H25.686V120.247H27.7886V118.339Z" fill="#455A64"/>
<path d="M27.7886 118.339H25.686V119.293H27.7886V118.339Z" fill="#263238"/>
<path d="M118.394 115.833L127.767 76.2857L116.604 59.7452L114.896 60.8966L125.553 76.6891L116.389 115.356L118.394 115.833Z" fill="#DBDBDB"/>
<path d="M128.451 76.4771C128.451 76.832 128.346 77.1792 128.15 77.4745C127.953 77.7699 127.673 78.0002 127.345 78.1363C127.017 78.2724 126.656 78.3082 126.308 78.2391C125.96 78.17 125.64 77.9991 125.389 77.7481C125.138 77.4971 124.967 77.1773 124.898 76.8292C124.829 76.481 124.865 76.1202 125.001 75.7924C125.137 75.4646 125.367 75.1845 125.663 74.9877C125.958 74.7909 126.305 74.6861 126.66 74.6867C127.135 74.6875 127.59 74.8764 127.925 75.212C128.261 75.5476 128.45 76.0025 128.451 76.4771Z" fill="#B90101"/>
<path d="M104.165 55.7257L112.584 65.1252L116.471 60.3254L118.839 57.3983L112.525 50.3575L109.357 52.3923L104.165 55.7257Z" fill="#B90101"/>
<path opacity="0.1" d="M104.165 55.7257L112.584 65.1252L116.471 60.3254L109.357 52.3923L104.165 55.7257Z" fill="black"/>
<path d="M91.9568 60.3636L106.642 76.7509L116.392 64.3125L105.388 52.0301L91.9568 60.3636Z" fill="#B90101"/>
<path d="M106.677 120.247H128.403L127.069 113.421H108.011L106.677 120.247Z" fill="#B90101"/>
</svg>
