<svg width="25" height="25" viewBox="0 0 25 25" fill="none" xmlns="http://www.w3.org/2000/svg">
<path d="M18.75 10.9375V19.9219C18.75 20.1784 18.6995 20.4323 18.6013 20.6693C18.5032 20.9063 18.3593 21.1216 18.1779 21.3029C17.9966 21.4843 17.7813 21.6282 17.5443 21.7263C17.3073 21.8245 17.0534 21.875 16.7969 21.875H5.07812C4.56012 21.875 4.06334 21.6692 3.69706 21.3029C3.33078 20.9367 3.125 20.4399 3.125 19.9219V8.20312C3.125 7.68512 3.33078 7.18834 3.69706 6.82206C4.06334 6.45578 4.56012 6.25 5.07812 6.25H13.2559" stroke="#828282" stroke-width="2" stroke-linecap="round" stroke-linejoin="round"/>
<path d="M22.4581 2.6001C22.3867 2.5217 22.3002 2.45858 22.2038 2.41456C22.1074 2.37053 22.003 2.34652 21.897 2.34396C21.791 2.34141 21.6857 2.36036 21.5872 2.39969C21.4888 2.43901 21.3993 2.49789 21.3243 2.57275L20.7203 3.17383C20.6471 3.24708 20.606 3.34639 20.606 3.44995C20.606 3.55351 20.6471 3.65282 20.7203 3.72607L21.274 4.27881C21.3103 4.31527 21.3534 4.34421 21.4009 4.36395C21.4484 4.3837 21.4994 4.39386 21.5508 4.39386C21.6023 4.39386 21.6532 4.3837 21.7007 4.36395C21.7483 4.34421 21.7914 4.31527 21.8277 4.27881L22.4166 3.69287C22.7144 3.39551 22.7422 2.91113 22.4581 2.6001ZM19.4991 4.39453L10.6846 13.1934C10.6312 13.2466 10.5923 13.3127 10.5718 13.3853L10.1641 14.5996C10.1544 14.6326 10.1537 14.6675 10.1621 14.7008C10.1706 14.7342 10.1879 14.7646 10.2122 14.7889C10.2365 14.8132 10.2669 14.8305 10.3002 14.8389C10.3335 14.8474 10.3685 14.8467 10.4014 14.8369L11.6148 14.4292C11.6874 14.4087 11.7535 14.3698 11.8067 14.3164L20.6055 5.50098C20.6869 5.4187 20.7326 5.30763 20.7326 5.19189C20.7326 5.07615 20.6869 4.96509 20.6055 4.88281L20.1197 4.39453C20.0373 4.31238 19.9257 4.26625 19.8094 4.26625C19.6931 4.26625 19.5815 4.31238 19.4991 4.39453Z" fill="#828282"/>
</svg>
