<svg width="33" height="33" viewBox="0 0 33 33" fill="none" xmlns="http://www.w3.org/2000/svg">
<path d="M9.5425 2.75C10.1145 2.75 10.5779 3.1955 10.5779 3.7455V5.753C11.4964 5.7365 12.5262 5.7365 13.6854 5.7365H19.206C20.3637 5.7365 21.3936 5.7365 22.3121 5.75437V3.74687C22.3121 3.19687 22.7755 2.75 23.3475 2.75C23.9195 2.75 24.3829 3.1955 24.3829 3.7455V5.84375C26.3697 5.99638 27.6746 6.37175 28.6316 7.29437C29.5914 8.21562 29.9819 9.46963 30.14 11.3809L30.25 12.375H2.75V11.3795C2.9095 9.46825 3.3 8.21425 4.25837 7.293C5.21675 6.37175 6.52025 5.995 8.50712 5.84238V3.7455C8.50712 3.1955 8.9705 2.75 9.5425 2.75Z" fill="#828282"/>
<path opacity="0.5" d="M30.2499 19.25V16.5C30.2499 15.3464 30.2444 13.2894 30.2265 12.375H2.76367C2.7458 13.2894 2.74992 15.3464 2.74992 16.5V19.25C2.74992 24.4351 2.74992 27.0284 4.36142 28.6385C5.97292 30.2486 8.56342 30.25 13.7499 30.25H19.2499C24.4337 30.25 27.0269 30.25 28.6384 28.6385C30.2499 27.027 30.2499 24.4365 30.2499 19.25Z" fill="#828282"/>
<path d="M24.75 23.375C24.75 23.7397 24.6051 24.0894 24.3473 24.3473C24.0894 24.6051 23.7397 24.75 23.375 24.75C23.0103 24.75 22.6606 24.6051 22.4027 24.3473C22.1449 24.0894 22 23.7397 22 23.375C22 23.0103 22.1449 22.6606 22.4027 22.4027C22.6606 22.1449 23.0103 22 23.375 22C23.7397 22 24.0894 22.1449 24.3473 22.4027C24.6051 22.6606 24.75 23.0103 24.75 23.375ZM24.75 17.875C24.75 18.2397 24.6051 18.5894 24.3473 18.8473C24.0894 19.1051 23.7397 19.25 23.375 19.25C23.0103 19.25 22.6606 19.1051 22.4027 18.8473C22.1449 18.5894 22 18.2397 22 17.875C22 17.5103 22.1449 17.1606 22.4027 16.9027C22.6606 16.6449 23.0103 16.5 23.375 16.5C23.7397 16.5 24.0894 16.6449 24.3473 16.9027C24.6051 17.1606 24.75 17.5103 24.75 17.875ZM17.875 23.375C17.875 23.7397 17.7301 24.0894 17.4723 24.3473C17.2144 24.6051 16.8647 24.75 16.5 24.75C16.1353 24.75 15.7856 24.6051 15.5277 24.3473C15.2699 24.0894 15.125 23.7397 15.125 23.375C15.125 23.0103 15.2699 22.6606 15.5277 22.4027C15.7856 22.1449 16.1353 22 16.5 22C16.8647 22 17.2144 22.1449 17.4723 22.4027C17.7301 22.6606 17.875 23.0103 17.875 23.375ZM17.875 17.875C17.875 18.2397 17.7301 18.5894 17.4723 18.8473C17.2144 19.1051 16.8647 19.25 16.5 19.25C16.1353 19.25 15.7856 19.1051 15.5277 18.8473C15.2699 18.5894 15.125 18.2397 15.125 17.875C15.125 17.5103 15.2699 17.1606 15.5277 16.9027C15.7856 16.6449 16.1353 16.5 16.5 16.5C16.8647 16.5 17.2144 16.6449 17.4723 16.9027C17.7301 17.1606 17.875 17.5103 17.875 17.875ZM11 23.375C11 23.7397 10.8551 24.0894 10.5973 24.3473C10.3394 24.6051 9.98967 24.75 9.625 24.75C9.26033 24.75 8.91059 24.6051 8.65273 24.3473C8.39487 24.0894 8.25 23.7397 8.25 23.375C8.25 23.0103 8.39487 22.6606 8.65273 22.4027C8.91059 22.1449 9.26033 22 9.625 22C9.98967 22 10.3394 22.1449 10.5973 22.4027C10.8551 22.6606 11 23.0103 11 23.375ZM11 17.875C11 18.2397 10.8551 18.5894 10.5973 18.8473C10.3394 19.1051 9.98967 19.25 9.625 19.25C9.26033 19.25 8.91059 19.1051 8.65273 18.8473C8.39487 18.5894 8.25 18.2397 8.25 17.875C8.25 17.5103 8.39487 17.1606 8.65273 16.9027C8.91059 16.6449 9.26033 16.5 9.625 16.5C9.98967 16.5 10.3394 16.6449 10.5973 16.9027C10.8551 17.1606 11 17.5103 11 17.875Z" fill="#828282"/>
</svg>
