<svg width="20" height="20" viewBox="0 0 20 20" fill="none" xmlns="http://www.w3.org/2000/svg">
<path d="M6.875 16.25V18.75M3.125 1.25H10.625C10.9565 1.25 11.2745 1.3817 11.5089 1.61612C11.7433 1.85054 11.875 2.16848 11.875 2.5V18.5938C11.875 18.6352 11.8585 18.6749 11.8292 18.7042C11.7999 18.7335 11.7602 18.75 11.7188 18.75H1.875V2.5C1.875 2.16848 2.0067 1.85054 2.24112 1.61612C2.47554 1.3817 2.79348 1.25 3.125 1.25ZM12.5 7.5H16.875C17.2065 7.5 17.5245 7.6317 17.7589 7.86612C17.9933 8.10054 18.125 8.41848 18.125 8.75V18.75H11.875V8.125C11.875 7.95924 11.9408 7.80027 12.0581 7.68306C12.1753 7.56585 12.3342 7.5 12.5 7.5Z" stroke="white" stroke-linecap="round" stroke-linejoin="round"/>
<path d="M3.83105 16.8699C3.70161 16.8868 3.57012 16.8628 3.45503 16.8012C3.33993 16.7396 3.24703 16.6435 3.18934 16.5264C3.13165 16.4093 3.11208 16.277 3.13337 16.1482C3.15466 16.0194 3.21575 15.9006 3.30806 15.8082C3.40037 15.7159 3.51926 15.6548 3.64806 15.6336C3.77686 15.6123 3.90909 15.6318 4.02619 15.6895C4.1433 15.7472 4.2394 15.8401 4.30101 15.9552C4.36262 16.0703 4.38665 16.2018 4.36972 16.3312C4.35186 16.4678 4.28936 16.5947 4.19194 16.6921C4.09453 16.7895 3.96765 16.852 3.83105 16.8699ZM3.83105 13.7449C3.70161 13.7618 3.57012 13.7378 3.45503 13.6762C3.33993 13.6146 3.24703 13.5185 3.18934 13.4014C3.13165 13.2843 3.11208 13.152 3.13337 13.0232C3.15466 12.8944 3.21575 12.7756 3.30806 12.6832C3.40037 12.5909 3.51926 12.5298 3.64806 12.5086C3.77686 12.4873 3.90909 12.5068 4.02619 12.5645C4.1433 12.6222 4.2394 12.7151 4.30101 12.8302C4.36262 12.9453 4.38665 13.0768 4.36972 13.2062C4.35186 13.3428 4.28936 13.4697 4.19194 13.5671C4.09453 13.6645 3.96765 13.727 3.83105 13.7449ZM3.83105 10.6199C3.70161 10.6368 3.57012 10.6128 3.45503 10.5512C3.33993 10.4896 3.24703 10.3935 3.18934 10.2764C3.13165 10.1593 3.11208 10.027 3.13337 9.89824C3.15466 9.76945 3.21575 9.65055 3.30806 9.55824C3.40037 9.46593 3.51926 9.40485 3.64806 9.38355C3.77686 9.36226 3.90909 9.38183 4.02619 9.43952C4.1433 9.49721 4.2394 9.59012 4.30101 9.70521C4.36262 9.8203 4.38665 9.95179 4.36972 10.0812C4.35186 10.2178 4.28936 10.3447 4.19194 10.4421C4.09453 10.5395 3.96765 10.602 3.83105 10.6199ZM3.83105 7.49491C3.70161 7.51184 3.57012 7.48781 3.45503 7.4262C3.33993 7.36458 3.24703 7.26848 3.18934 7.15138C3.13165 7.03427 3.11208 6.90204 3.13337 6.77324C3.15466 6.64445 3.21575 6.52555 3.30806 6.43324C3.40037 6.34093 3.51926 6.27985 3.64806 6.25855C3.77686 6.23726 3.90909 6.25683 4.02619 6.31452C4.1433 6.37221 4.2394 6.46512 4.30101 6.58021C4.36262 6.6953 4.38665 6.82679 4.36972 6.95623C4.35186 7.09284 4.28936 7.21971 4.19194 7.31713C4.09453 7.41454 3.96765 7.47704 3.83105 7.49491ZM3.83105 4.36991C3.70161 4.38684 3.57012 4.36281 3.45503 4.3012C3.33993 4.23958 3.24703 4.14348 3.18934 4.02638C3.13165 3.90927 3.11208 3.77704 3.13337 3.64824C3.15466 3.51945 3.21575 3.40055 3.30806 3.30824C3.40037 3.21593 3.51926 3.15485 3.64806 3.13355C3.77686 3.11226 3.90909 3.13183 4.02619 3.18952C4.1433 3.24721 4.2394 3.34012 4.30101 3.45521C4.36262 3.5703 4.38665 3.70179 4.36972 3.83123C4.35186 3.96784 4.28936 4.09471 4.19194 4.19213C4.09453 4.28954 3.96765 4.35204 3.83105 4.36991ZM6.95605 13.7449C6.82661 13.7618 6.69512 13.7378 6.58003 13.6762C6.46494 13.6146 6.37203 13.5185 6.31434 13.4014C6.25665 13.2843 6.23708 13.152 6.25837 13.0232C6.27966 12.8944 6.34075 12.7756 6.43306 12.6832C6.52537 12.5909 6.64426 12.5298 6.77306 12.5086C6.90186 12.4873 7.03409 12.5068 7.15119 12.5645C7.2683 12.6222 7.3644 12.7151 7.42601 12.8302C7.48762 12.9453 7.51165 13.0768 7.49472 13.2062C7.47686 13.3428 7.41436 13.4697 7.31694 13.5671C7.21953 13.6645 7.09265 13.727 6.95605 13.7449ZM6.95605 10.6199C6.82661 10.6368 6.69512 10.6128 6.58003 10.5512C6.46494 10.4896 6.37203 10.3935 6.31434 10.2764C6.25665 10.1593 6.23708 10.027 6.25837 9.89824C6.27966 9.76945 6.34075 9.65055 6.43306 9.55824C6.52537 9.46593 6.64426 9.40485 6.77306 9.38355C6.90186 9.36226 7.03409 9.38183 7.15119 9.43952C7.2683 9.49721 7.3644 9.59012 7.42601 9.70521C7.48762 9.8203 7.51165 9.95179 7.49472 10.0812C7.47686 10.2178 7.41436 10.3447 7.31694 10.4421C7.21953 10.5395 7.09265 10.602 6.95605 10.6199ZM6.95605 7.49491C6.82661 7.51184 6.69512 7.48781 6.58003 7.4262C6.46494 7.36458 6.37203 7.26848 6.31434 7.15138C6.25665 7.03427 6.23708 6.90204 6.25837 6.77324C6.27966 6.64445 6.34075 6.52555 6.43306 6.43324C6.52537 6.34093 6.64426 6.27985 6.77306 6.25855C6.90186 6.23726 7.03409 6.25683 7.15119 6.31452C7.2683 6.37221 7.3644 6.46512 7.42601 6.58021C7.48762 6.6953 7.51165 6.82679 7.49472 6.95623C7.47686 7.09284 7.41436 7.21971 7.31694 7.31713C7.21953 7.41454 7.09265 7.47704 6.95605 7.49491ZM6.95605 4.36991C6.82661 4.38684 6.69512 4.36281 6.58003 4.3012C6.46494 4.23958 6.37203 4.14348 6.31434 4.02638C6.25665 3.90927 6.23708 3.77704 6.25837 3.64824C6.27966 3.51945 6.34075 3.40055 6.43306 3.30824C6.52537 3.21593 6.64426 3.15485 6.77306 3.13355C6.90186 3.11226 7.03409 3.13183 7.15119 3.18952C7.2683 3.24721 7.3644 3.34012 7.42601 3.45521C7.48762 3.5703 7.51165 3.70179 7.49472 3.83123C7.47686 3.96784 7.41436 4.09471 7.31694 4.19213C7.21953 4.28954 7.09265 4.35204 6.95605 4.36991ZM10.0811 16.8699C9.95161 16.8868 9.82012 16.8628 9.70502 16.8012C9.58993 16.7396 9.49703 16.6435 9.43934 16.5264C9.38165 16.4093 9.36208 16.277 9.38337 16.1482C9.40466 16.0194 9.46575 15.9006 9.55806 15.8082C9.65037 15.7159 9.76926 15.6548 9.89806 15.6336C10.0269 15.6123 10.1591 15.6318 10.2762 15.6895C10.3933 15.7472 10.4894 15.8401 10.551 15.9552C10.6126 16.0703 10.6367 16.2018 10.6197 16.3312C10.6019 16.4678 10.5394 16.5947 10.4419 16.6921C10.3445 16.7895 10.2177 16.852 10.0811 16.8699ZM10.0811 13.7449C9.95161 13.7618 9.82012 13.7378 9.70502 13.6762C9.58993 13.6146 9.49703 13.5185 9.43934 13.4014C9.38165 13.2843 9.36208 13.152 9.38337 13.0232C9.40466 12.8944 9.46575 12.7756 9.55806 12.6832C9.65037 12.5909 9.76926 12.5298 9.89806 12.5086C10.0269 12.4873 10.1591 12.5068 10.2762 12.5645C10.3933 12.6222 10.4894 12.7151 10.551 12.8302C10.6126 12.9453 10.6367 13.0768 10.6197 13.2062C10.6019 13.3428 10.5394 13.4697 10.4419 13.5671C10.3445 13.6645 10.2177 13.727 10.0811 13.7449ZM10.0811 10.6199C9.95161 10.6368 9.82012 10.6128 9.70502 10.5512C9.58993 10.4896 9.49703 10.3935 9.43934 10.2764C9.38165 10.1593 9.36208 10.027 9.38337 9.89824C9.40466 9.76945 9.46575 9.65055 9.55806 9.55824C9.65037 9.46593 9.76926 9.40485 9.89806 9.38355C10.0269 9.36226 10.1591 9.38183 10.2762 9.43952C10.3933 9.49721 10.4894 9.59012 10.551 9.70521C10.6126 9.8203 10.6367 9.95179 10.6197 10.0812C10.6019 10.2178 10.5394 10.3447 10.4419 10.4421C10.3445 10.5395 10.2177 10.602 10.0811 10.6199Z" fill="white"/>
<path d="M10.4428 7.31748C10.6861 7.07416 10.6851 6.67868 10.4406 6.43415C10.1961 6.18961 9.80057 6.18862 9.55726 6.43194C9.31394 6.67525 9.31493 7.07073 9.55947 7.31527C9.804 7.5598 10.1995 7.56079 10.4428 7.31748Z" fill="white"/>
<path d="M10.0811 4.36991C9.95161 4.38684 9.82012 4.36281 9.70502 4.3012C9.58993 4.23958 9.49703 4.14348 9.43934 4.02638C9.38165 3.90927 9.36208 3.77704 9.38337 3.64824C9.40466 3.51945 9.46575 3.40055 9.55806 3.30824C9.65037 3.21593 9.76926 3.15485 9.89806 3.13355C10.0269 3.11226 10.1591 3.13183 10.2762 3.18952C10.3933 3.24721 10.4894 3.34012 10.551 3.45521C10.6126 3.5703 10.6367 3.70179 10.6197 3.83123C10.6019 3.96784 10.5394 4.09471 10.4419 4.19213C10.3445 4.28954 10.2177 4.35204 10.0811 4.36991ZM15.6248 15.625C15.5012 15.625 15.3804 15.6616 15.2776 15.7303C15.1748 15.799 15.0947 15.8966 15.0474 16.0108C15.0001 16.125 14.9877 16.2507 15.0118 16.3719C15.0359 16.4932 15.0955 16.6045 15.1829 16.6919C15.2703 16.7793 15.3816 16.8389 15.5029 16.863C15.6241 16.8871 15.7498 16.8747 15.864 16.8274C15.9782 16.7801 16.0758 16.7 16.1445 16.5972C16.2131 16.4944 16.2498 16.3736 16.2498 16.25C16.2498 16.0842 16.184 15.9253 16.0667 15.808C15.9495 15.6908 15.7906 15.625 15.6248 15.625ZM15.6248 12.5C15.5012 12.5 15.3804 12.5366 15.2776 12.6053C15.1748 12.674 15.0947 12.7716 15.0474 12.8858C15.0001 13 14.9877 13.1257 15.0118 13.2469C15.0359 13.3682 15.0955 13.4795 15.1829 13.5669C15.2703 13.6543 15.3816 13.7139 15.5029 13.738C15.6241 13.7621 15.7498 13.7497 15.864 13.7024C15.9782 13.6551 16.0758 13.575 16.1445 13.4722C16.2131 13.3694 16.2498 13.2486 16.2498 13.125C16.2498 12.9592 16.184 12.8003 16.0667 12.683C15.9495 12.5658 15.7906 12.5 15.6248 12.5ZM15.6248 9.37498C15.5012 9.37498 15.3804 9.41164 15.2776 9.48032C15.1748 9.54899 15.0947 9.6466 15.0474 9.76081C15.0001 9.87501 14.9877 10.0007 15.0118 10.1219C15.0359 10.2432 15.0955 10.3545 15.1829 10.4419C15.2703 10.5293 15.3816 10.5889 15.5029 10.613C15.6241 10.6371 15.7498 10.6247 15.864 10.5774C15.9782 10.5301 16.0758 10.45 16.1445 10.3472C16.2131 10.2444 16.2498 10.1236 16.2498 9.99998C16.2498 9.83422 16.184 9.67525 16.0667 9.55804C15.9495 9.44083 15.7906 9.37498 15.6248 9.37498ZM13.1248 15.625C13.0012 15.625 12.8804 15.6616 12.7776 15.7303C12.6748 15.799 12.5947 15.8966 12.5474 16.0108C12.5001 16.125 12.4877 16.2507 12.5118 16.3719C12.5359 16.4932 12.5955 16.6045 12.6829 16.6919C12.7703 16.7793 12.8816 16.8389 13.0029 16.863C13.1241 16.8871 13.2498 16.8747 13.364 16.8274C13.4782 16.7801 13.5758 16.7 13.6445 16.5972C13.7131 16.4944 13.7498 16.3736 13.7498 16.25C13.7498 16.0842 13.684 15.9253 13.5667 15.808C13.4495 15.6908 13.2906 15.625 13.1248 15.625ZM13.1248 12.5C13.0012 12.5 12.8804 12.5366 12.7776 12.6053C12.6748 12.674 12.5947 12.7716 12.5474 12.8858C12.5001 13 12.4877 13.1257 12.5118 13.2469C12.5359 13.3682 12.5955 13.4795 12.6829 13.5669C12.7703 13.6543 12.8816 13.7139 13.0029 13.738C13.1241 13.7621 13.2498 13.7497 13.364 13.7024C13.4782 13.6551 13.5758 13.575 13.6445 13.4722C13.7131 13.3694 13.7498 13.2486 13.7498 13.125C13.7498 12.9592 13.684 12.8003 13.5667 12.683C13.4495 12.5658 13.2906 12.5 13.1248 12.5ZM13.1248 9.37498C13.0012 9.37498 12.8804 9.41164 12.7776 9.48032C12.6748 9.54899 12.5947 9.6466 12.5474 9.76081C12.5001 9.87501 12.4877 10.0007 12.5118 10.1219C12.5359 10.2432 12.5955 10.3545 12.6829 10.4419C12.7703 10.5293 12.8816 10.5889 13.0029 10.613C13.1241 10.6371 13.2498 10.6247 13.364 10.5774C13.4782 10.5301 13.5758 10.45 13.6445 10.3472C13.7131 10.2444 13.7498 10.1236 13.7498 9.99998C13.7498 9.83422 13.684 9.67525 13.5667 9.55804C13.4495 9.44083 13.2906 9.37498 13.1248 9.37498Z" fill="white"/>
</svg>
