<svg width="25" height="25" viewBox="0 0 25 25" fill="none" xmlns="http://www.w3.org/2000/svg">
<path d="M9.96094 2.34375H3.32031C2.78097 2.34375 2.34375 2.78097 2.34375 3.32031V9.96094C2.34375 10.5003 2.78097 10.9375 3.32031 10.9375H9.96094C10.5003 10.9375 10.9375 10.5003 10.9375 9.96094V3.32031C10.9375 2.78097 10.5003 2.34375 9.96094 2.34375Z" stroke="#828282" stroke-width="2" stroke-linecap="round" stroke-linejoin="round"/>
<path d="M21.6797 2.34375H15.0391C14.4997 2.34375 14.0625 2.78097 14.0625 3.32031V9.96094C14.0625 10.5003 14.4997 10.9375 15.0391 10.9375H21.6797C22.219 10.9375 22.6562 10.5003 22.6562 9.96094V3.32031C22.6562 2.78097 22.219 2.34375 21.6797 2.34375Z" stroke="#828282" stroke-width="2" stroke-linecap="round" stroke-linejoin="round"/>
<path d="M9.96094 14.0625H3.32031C2.78097 14.0625 2.34375 14.4997 2.34375 15.0391V21.6797C2.34375 22.219 2.78097 22.6562 3.32031 22.6562H9.96094C10.5003 22.6562 10.9375 22.219 10.9375 21.6797V15.0391C10.9375 14.4997 10.5003 14.0625 9.96094 14.0625Z" stroke="#828282" stroke-width="2" stroke-linecap="round" stroke-linejoin="round"/>
<path d="M21.6797 14.0625H15.0391C14.4997 14.0625 14.0625 14.4997 14.0625 15.0391V21.6797C14.0625 22.219 14.4997 22.6562 15.0391 22.6562H21.6797C22.219 22.6562 22.6562 22.219 22.6562 21.6797V15.0391C22.6562 14.4997 22.219 14.0625 21.6797 14.0625Z" stroke="#828282" stroke-width="2" stroke-linecap="round" stroke-linejoin="round"/>
</svg>
