<svg width="25" height="25" viewBox="0 0 25 25" fill="none" xmlns="http://www.w3.org/2000/svg">
<path d="M9.96094 11.7188H3.32031C2.85411 11.7188 2.40701 11.5336 2.07735 11.2039C1.7477 10.8742 1.5625 10.4271 1.5625 9.96094V3.32031C1.5625 2.85411 1.7477 2.40701 2.07735 2.07735C2.40701 1.7477 2.85411 1.5625 3.32031 1.5625H9.96094C10.4271 1.5625 10.8742 1.7477 11.2039 2.07735C11.5336 2.40701 11.7188 2.85411 11.7188 3.32031V9.96094C11.7188 10.4271 11.5336 10.8742 11.2039 11.2039C10.8742 11.5336 10.4271 11.7188 9.96094 11.7188ZM21.6797 11.7188H15.0391C14.5729 11.7188 14.1258 11.5336 13.7961 11.2039C13.4664 10.8742 13.2812 10.4271 13.2812 9.96094V3.32031C13.2812 2.85411 13.4664 2.40701 13.7961 2.07735C14.1258 1.7477 14.5729 1.5625 15.0391 1.5625H21.6797C22.1459 1.5625 22.593 1.7477 22.9226 2.07735C23.2523 2.40701 23.4375 2.85411 23.4375 3.32031V9.96094C23.4375 10.4271 23.2523 10.8742 22.9226 11.2039C22.593 11.5336 22.1459 11.7188 21.6797 11.7188ZM9.96094 23.4375H3.32031C2.85411 23.4375 2.40701 23.2523 2.07735 22.9226C1.7477 22.593 1.5625 22.1459 1.5625 21.6797V15.0391C1.5625 14.5729 1.7477 14.1258 2.07735 13.7961C2.40701 13.4664 2.85411 13.2812 3.32031 13.2812H9.96094C10.4271 13.2812 10.8742 13.4664 11.2039 13.7961C11.5336 14.1258 11.7188 14.5729 11.7188 15.0391V21.6797C11.7188 22.1459 11.5336 22.593 11.2039 22.9226C10.8742 23.2523 10.4271 23.4375 9.96094 23.4375ZM21.6797 23.4375H15.0391C14.5729 23.4375 14.1258 23.2523 13.7961 22.9226C13.4664 22.593 13.2812 22.1459 13.2812 21.6797V15.0391C13.2812 14.5729 13.4664 14.1258 13.7961 13.7961C14.1258 13.4664 14.5729 13.2812 15.0391 13.2812H21.6797C22.1459 13.2812 22.593 13.4664 22.9226 13.7961C23.2523 14.1258 23.4375 14.5729 23.4375 15.0391V21.6797C23.4375 22.1459 23.2523 22.593 22.9226 22.9226C22.593 23.2523 22.1459 23.4375 21.6797 23.4375Z" fill="#B90101"/>
</svg>
