<svg width="34" height="33" viewBox="0 0 34 33" fill="none" xmlns="http://www.w3.org/2000/svg">
<path fill-rule="evenodd" clip-rule="evenodd" d="M4.1814 5.15625C4.1814 4.88275 4.29153 4.62044 4.48758 4.42705C4.68363 4.23365 4.94952 4.125 5.22677 4.125H26.1343C26.4116 4.125 26.6775 4.23365 26.8735 4.42705C27.0695 4.62044 27.1797 4.88275 27.1797 5.15625V9.28125C27.1796 9.51694 27.0977 9.74551 26.9476 9.92888L19.5777 18.9276V27.8438C19.5779 28.0098 19.5374 28.1735 19.4597 28.3208C19.382 28.4681 19.2694 28.5947 19.1315 28.6899C18.9935 28.7851 18.8343 28.846 18.6674 28.8674C18.5005 28.8889 18.3308 28.8702 18.1727 28.8131L12.4691 26.7506C12.2679 26.6779 12.0942 26.5459 11.9715 26.3725C11.8488 26.1991 11.7832 25.9927 11.7834 25.7812V18.9276L4.41347 9.92888C4.26336 9.74551 4.18146 9.51694 4.1814 9.28125V5.15625ZM29.2704 19.5938V21.6562H20.9074V19.5938H29.2704ZM27.1797 25.7812H20.9074V23.7188H27.1797V25.7812Z" fill="#828282"/>
</svg>
