<svg width="25" height="25" viewBox="0 0 25 25" fill="none" xmlns="http://www.w3.org/2000/svg">
<path d="M12.5 3.90625C10.8003 3.90625 9.13881 4.41026 7.72557 5.35456C6.31234 6.29885 5.21085 7.64101 4.56041 9.21131C3.90997 10.7816 3.73979 12.5095 4.07138 14.1766C4.40297 15.8436 5.22145 17.3748 6.42331 18.5767C7.62516 19.7786 9.15642 20.597 10.8234 20.9286C12.4905 21.2602 14.2184 21.09 15.7887 20.4396C17.359 19.7891 18.7012 18.6877 19.6454 17.2744C20.5897 15.8612 21.0938 14.1997 21.0938 12.5C21.0938 10.2208 20.1883 8.03494 18.5767 6.4233C16.9651 4.81166 14.7792 3.90625 12.5 3.90625Z" stroke="#828282" stroke-width="2" stroke-miterlimit="10"/>
<path d="M9.76562 9.87744C9.76562 9.87744 9.80664 9.02295 10.7212 8.28711C11.2637 7.8501 11.9141 7.72363 12.5 7.71484C13.0337 7.70801 13.5103 7.79639 13.7954 7.93213C14.2837 8.16455 15.2344 8.73193 15.2344 9.93848C15.2344 11.208 14.4043 11.7847 13.4585 12.4189C12.5127 13.0532 12.2559 13.7417 12.2559 14.4531" stroke="#828282" stroke-width="2" stroke-miterlimit="10" stroke-linecap="round"/>
<path d="M12.207 17.9688C12.7464 17.9688 13.1836 17.5315 13.1836 16.9922C13.1836 16.4528 12.7464 16.0156 12.207 16.0156C11.6677 16.0156 11.2305 16.4528 11.2305 16.9922C11.2305 17.5315 11.6677 17.9688 12.207 17.9688Z" fill="#828282"/>
</svg>
