<svg width="25" height="25" viewBox="0 0 25 25" fill="none" xmlns="http://www.w3.org/2000/svg">
<path d="M21.0938 6.25H3.90625C2.61183 6.25 1.5625 7.29933 1.5625 8.59375V19.5312C1.5625 20.8257 2.61183 21.875 3.90625 21.875H21.0938C22.3882 21.875 23.4375 20.8257 23.4375 19.5312V8.59375C23.4375 7.29933 22.3882 6.25 21.0938 6.25Z" stroke="#828282" stroke-width="2" stroke-linejoin="round"/>
<path d="M7.03125 6.25V4.6875C7.03125 4.2731 7.19587 3.87567 7.4889 3.58265C7.78192 3.28962 8.17935 3.125 8.59375 3.125H16.4062C16.8207 3.125 17.2181 3.28962 17.5111 3.58265C17.8041 3.87567 17.9688 4.2731 17.9688 4.6875V6.25M23.4375 11.7188H1.5625M15.625 11.7188V12.8906C15.625 12.9942 15.5838 13.0936 15.5106 13.1668C15.4373 13.2401 15.338 13.2812 15.2344 13.2812H9.76562C9.66202 13.2812 9.56267 13.2401 9.48941 13.1668C9.41615 13.0936 9.375 12.9942 9.375 12.8906V11.7188" stroke="#828282" stroke-width="2" stroke-linecap="round" stroke-linejoin="round"/>
</svg>
