<svg width="204" height="150" viewBox="0 0 204 150" fill="none" xmlns="http://www.w3.org/2000/svg">
<path d="M183.324 139.74H169.85V139.842H183.324V139.74Z" fill="#EBEBEB"/>
<path d="M135.042 140.846H131.507V140.948H135.042V140.846Z" fill="#EBEBEB"/>
<path d="M169.443 135.965H161.636V136.066H169.443V135.965Z" fill="#EBEBEB"/>
<path d="M39.2065 136.648H21.6357V136.75H39.2065V136.648Z" fill="#EBEBEB"/>
<path d="M45.4067 136.648H42.8315V136.75H45.4067V136.648Z" fill="#EBEBEB"/>
<path d="M91.8901 138.365H53.7788V138.467H91.8901V138.365Z" fill="#EBEBEB"/>
<path d="M96.7114 115.05H18.1618C17.5457 115.05 16.9549 114.805 16.5192 114.369C16.0836 113.934 15.8389 113.343 15.8389 112.727V2.30262C15.8442 1.69007 16.0913 1.10442 16.5264 0.673173C16.9615 0.241923 17.5493 -2.34843e-05 18.1618 1.7097e-09H96.7114C97.3275 1.7097e-09 97.9183 0.24474 98.354 0.68038C98.7896 1.11602 99.0343 1.70688 99.0343 2.32296V112.727C99.0343 113.343 98.7896 113.934 98.354 114.369C97.9183 114.805 97.3275 115.05 96.7114 115.05ZM18.1618 0.0813651C17.573 0.0824405 17.0087 0.31681 16.5924 0.733144C16.176 1.14948 15.9416 1.71384 15.9406 2.30262V112.727C15.9416 113.316 16.176 113.88 16.5924 114.296C17.0087 114.713 17.573 114.947 18.1618 114.948H96.7114C97.3002 114.947 97.8645 114.713 98.2809 114.296C98.6972 113.88 98.9316 113.316 98.9326 112.727V2.30262C98.9316 1.71384 98.6972 1.14948 98.2809 0.733144C97.8645 0.31681 97.3002 0.0824405 96.7114 0.0813651H18.1618Z" fill="#EBEBEB"/>
<path d="M184.711 1.7097e-09H106.154C105.538 0.00107556 104.948 0.24616 104.512 0.681568C104.077 1.11698 103.832 1.70721 103.831 2.32296V112.727C103.832 113.343 104.077 113.933 104.512 114.368C104.948 114.804 105.538 115.049 106.154 115.05H184.711C185.327 115.05 185.918 114.805 186.354 114.369C186.789 113.934 187.034 113.343 187.034 112.727V2.30262C187.029 1.69007 186.782 1.10442 186.347 0.673173C185.912 0.241923 185.324 -2.34843e-05 184.711 1.7097e-09ZM186.932 112.747C186.931 113.336 186.697 113.9 186.281 114.317C185.864 114.733 185.3 114.967 184.711 114.968H106.154C105.565 114.967 105 114.733 104.584 114.317C104.168 113.9 103.933 113.336 103.932 112.747V2.30262C103.933 1.71384 104.168 1.14948 104.584 0.733144C105 0.31681 105.565 0.0824405 106.154 0.0813651H184.711C185.3 0.0824405 185.864 0.31681 186.281 0.733144C186.697 1.14948 186.931 1.71384 186.932 2.30262V112.747Z" fill="#EBEBEB"/>
<path d="M203.706 133.194H0.293945V133.296H203.706V133.194Z" fill="#EBEBEB"/>
<path d="M55.1666 7.36353H24.667V110.831H55.1666V7.36353Z" fill="#FAFAFA"/>
<path d="M50.6264 7.36353H48.8445L38.2061 110.831H39.9879L50.6264 7.36353Z" fill="#F5F5F5"/>
<path d="M55.4839 6.05353H24.4717V7.45707H55.4839V6.05353Z" fill="#EBEBEB"/>
<path d="M55.4839 110.742H24.4717V112.552H55.4839V110.742Z" fill="#EBEBEB"/>
<path d="M56.688 114.789H23.0762V3.49054H56.6961L56.688 114.789ZM25.631 112.226H54.1087V6.04539H25.631V112.226Z" fill="#F0F0F0"/>
<path d="M92.0733 7.36353H61.5737V110.831H92.0733V7.36353Z" fill="#FAFAFA"/>
<path d="M83.6154 7.36353H73.8924L63.2539 110.831H72.977L83.6154 7.36353Z" fill="#F5F5F5"/>
<path d="M92.3906 6.05353H61.3784V7.45707H92.3906V6.05353Z" fill="#EBEBEB"/>
<path d="M92.3906 110.742H61.3784V112.552H92.3906V110.742Z" fill="#EBEBEB"/>
<path d="M93.5991 114.789H59.9751V3.49054H93.5991V114.789ZM62.5381 112.226H91.0361V6.04539H62.5381V112.226Z" fill="#F0F0F0"/>
<path d="M128.984 7.36353H98.4849V110.831H128.984V7.36353Z" fill="#FAFAFA"/>
<path d="M115.279 7.36353H113.497L102.858 110.831H104.644L115.279 7.36353Z" fill="#F5F5F5"/>
<path d="M129.302 6.05353H98.2896V7.45707H129.302V6.05353Z" fill="#EBEBEB"/>
<path d="M129.302 110.742H98.2896V112.552H129.302V110.742Z" fill="#EBEBEB"/>
<path d="M130.506 114.789H96.8862V3.49054H130.506V114.789ZM99.4492 112.226H127.927V6.04539H99.4492V112.226Z" fill="#F0F0F0"/>
<path d="M141.214 30.6991L141.063 59.4612L174.402 59.6357L174.553 30.8737L141.214 30.6991Z" fill="#E0E0E0"/>
<path d="M141.214 30.7024L174.553 30.877L174.581 25.4947L141.242 25.3202L141.214 30.7024Z" fill="#E6E6E6"/>
<path d="M140.095 58.6518L173.434 58.8267L174.557 30.8738L141.218 30.6989L140.095 58.6518Z" fill="#F5F5F5"/>
<path d="M148.634 37.6068L165.135 37.6963L165.334 32.7737L148.83 32.6883L148.634 37.6068Z" fill="#EBEBEB"/>
<path d="M167.657 44.0631L172.067 44.0875L172.242 39.6775L167.836 39.6572L167.657 44.0631Z" fill="#E0E0E0"/>
<path d="M161.404 44.0305L165.814 44.0549L165.989 39.645L161.583 39.6246L161.404 44.0305Z" fill="#E0E0E0"/>
<path d="M167.421 50.0068L171.827 50.0312L172.002 45.6253L167.596 45.6009L167.421 50.0068Z" fill="#E0E0E0"/>
<path d="M167.181 55.9505L171.587 55.9749L171.766 51.569L167.356 51.5446L167.181 55.9505Z" fill="#EBEBEB"/>
<path d="M161.168 49.9742L165.574 49.9986L165.753 45.5886L161.343 45.5683L161.168 49.9742Z" fill="#E0E0E0"/>
<path d="M154.916 49.9417L159.321 49.9661L159.5 45.5561L155.09 45.5358L154.916 49.9417Z" fill="#E0E0E0"/>
<path d="M148.663 49.9091L153.068 49.9335L153.247 45.5236L148.838 45.5032L148.663 49.9091Z" fill="#E0E0E0"/>
<path d="M142.41 49.8766L146.816 49.901L146.995 45.491L142.585 45.4707L142.41 49.8766Z" fill="#E0E0E0"/>
<path d="M160.928 55.9179L165.334 55.9423L165.513 51.5364L161.103 51.512L160.928 55.9179Z" fill="#EBEBEB"/>
<path d="M154.675 55.8854L159.081 55.9098L159.26 51.4998L154.85 51.4795L154.675 55.8854Z" fill="#EBEBEB"/>
<path d="M148.422 55.8528L152.828 55.8772L153.007 51.4672L148.597 51.4469L148.422 55.8528Z" fill="#E0E0E0"/>
<path d="M155.151 43.998L159.561 44.0224L159.736 39.6124L155.33 39.5921L155.151 43.998Z" fill="#EBEBEB"/>
<path d="M148.898 43.9654L153.308 43.9857L153.483 39.5798L149.077 39.5595L148.898 43.9654Z" fill="#EBEBEB"/>
<path d="M142.646 43.9329L147.055 43.9532L147.23 39.5473L142.825 39.5229L142.646 43.9329Z" fill="#EBEBEB"/>
<path d="M142.17 55.8203L146.576 55.8447L146.755 51.4347L142.349 51.4144L142.17 55.8203Z" fill="#E0E0E0"/>
<path d="M157.812 23.9375C157.43 23.9367 157.057 24.0491 156.739 24.2605C156.422 24.4719 156.174 24.7728 156.027 25.1251C155.881 25.4774 155.842 25.8652 155.916 26.2396C155.99 26.6139 156.173 26.9579 156.443 27.228C156.712 27.498 157.056 27.6821 157.43 27.7568C157.804 27.8316 158.192 27.7936 158.545 27.6478C158.897 27.502 159.199 27.2548 159.411 26.9376C159.623 26.6204 159.736 26.2474 159.736 25.8659C159.736 25.3551 159.533 24.8653 159.173 24.5037C158.812 24.1422 158.323 23.9386 157.812 23.9375ZM157.812 27.3263C157.522 27.3272 157.238 27.2418 156.997 27.0812C156.755 26.9206 156.567 26.6919 156.455 26.4241C156.344 26.1563 156.315 25.8615 156.371 25.5771C156.428 25.2926 156.567 25.0313 156.772 24.8262C156.977 24.6211 157.239 24.4815 157.523 24.4252C157.807 24.3688 158.102 24.3981 158.37 24.5095C158.638 24.6208 158.867 24.8092 159.027 25.0507C159.188 25.2921 159.273 25.5758 159.272 25.8659C159.272 26.2532 159.118 26.6247 158.845 26.8986C158.571 27.1725 158.199 27.3263 157.812 27.3263Z" fill="#E6E6E6"/>
<path d="M100.039 150C143.603 150 178.918 147.938 178.918 145.395C178.918 142.851 143.603 140.79 100.039 140.79C56.4755 140.79 21.1602 142.851 21.1602 145.395C21.1602 147.938 56.4755 150 100.039 150Z" fill="#F5F5F5"/>
<path d="M128.997 108.419H152.718C152.718 108.419 147.381 109.639 143.577 110.16V112.324H138.138V110.16C134.334 109.623 128.997 108.419 128.997 108.419Z" fill="#263238"/>
<path d="M153.402 102.853H148.821C149.342 99.6822 149.342 96.4475 148.821 93.2766H153.402C153.919 96.4479 153.919 99.6819 153.402 102.853Z" fill="#263238"/>
<path d="M144.379 112.324H137.336V128.345H144.379V112.324Z" fill="#263238"/>
<path opacity="0.2" d="M144.379 112.324H137.336V128.345H144.379V112.324Z" fill="white"/>
<path d="M161.038 94.3831H141.307C140.773 94.3902 140.244 94.2784 139.759 94.0557C139.273 93.8331 138.843 93.5053 138.5 93.0959C138.157 92.6866 137.91 92.2061 137.775 91.6892C137.641 91.1723 137.623 90.632 137.723 90.1074C138.665 83.038 139.17 75.9173 139.237 68.7858C139.22 68.3017 139.302 67.8193 139.478 67.3679C139.653 66.9165 139.919 66.5056 140.258 66.16C140.598 65.8145 141.004 65.5416 141.452 65.358C141.9 65.1744 142.381 65.0838 142.865 65.0918H159.48C160.519 65.1089 161.519 65.4869 162.31 66.1609C163.1 66.8348 163.632 67.7629 163.813 68.7858C164.785 75.8533 165.322 82.9739 165.42 90.1074C165.379 91.2467 164.901 92.3265 164.085 93.1227C163.269 93.9188 162.178 94.3702 161.038 94.3831Z" fill="#B90101"/>
<path d="M161.917 90.0952C161.821 82.9617 161.284 75.8409 160.31 68.7736C160.126 67.7529 159.594 66.8277 158.804 66.1562C158.013 65.4846 157.014 65.1084 155.977 65.0918H142.865C142.381 65.0838 141.9 65.1744 141.452 65.358C141.004 65.5416 140.598 65.8145 140.258 66.16C139.919 66.5056 139.653 66.9165 139.478 67.3679C139.302 67.8193 139.22 68.3017 139.237 68.7858C139.17 75.9173 138.665 83.038 137.723 90.1074C137.623 90.632 137.641 91.1723 137.775 91.6892C137.91 92.2061 138.157 92.6866 138.5 93.0959C138.843 93.5053 139.273 93.8331 139.759 94.0557C140.244 94.2784 140.773 94.3902 141.307 94.3831H157.54C158.681 94.3701 159.774 93.9169 160.589 93.118C161.405 92.3191 161.88 91.2362 161.917 90.0952Z" fill="#B90101"/>
<path opacity="0.5" d="M161.917 90.0952C161.821 82.9617 161.284 75.8409 160.31 68.7736C160.126 67.7529 159.594 66.8277 158.804 66.1562C158.013 65.4846 157.014 65.1084 155.977 65.0918H142.865C142.381 65.0838 141.9 65.1744 141.452 65.358C141.004 65.5416 140.598 65.8145 140.258 66.16C139.919 66.5056 139.653 66.9165 139.478 67.3679C139.302 67.8193 139.22 68.3017 139.237 68.7858C139.17 75.9173 138.665 83.038 137.723 90.1074C137.623 90.632 137.641 91.1723 137.775 91.6892C137.91 92.2061 138.157 92.6866 138.5 93.0959C138.843 93.5053 139.273 93.8331 139.759 94.0557C140.244 94.2784 140.773 94.3902 141.307 94.3831H157.54C158.681 94.3701 159.774 93.9169 160.589 93.118C161.405 92.3191 161.88 91.2362 161.917 90.0952Z" fill="white"/>
<path d="M152.718 130.59C152.719 130.678 152.699 130.765 152.661 130.844C152.624 130.923 152.569 130.993 152.5 131.048C152.432 131.103 152.352 131.142 152.267 131.162C152.181 131.182 152.092 131.183 152.007 131.164C149.846 130.696 143.382 129.333 140.86 129.333C138.337 129.333 131.869 130.696 129.709 131.164C129.623 131.183 129.534 131.182 129.449 131.162C129.363 131.142 129.283 131.103 129.215 131.048C129.147 130.993 129.091 130.923 129.054 130.844C129.016 130.765 128.996 130.678 128.997 130.59C128.996 130.237 129.117 129.894 129.34 129.62C129.562 129.345 129.871 129.155 130.217 129.081C132.743 128.536 138.508 127.356 140.86 127.356C143.211 127.356 148.972 128.536 151.498 129.081C151.844 129.155 152.153 129.345 152.376 129.62C152.598 129.894 152.719 130.237 152.718 130.59Z" fill="#263238"/>
<path d="M128.997 129.394C128.594 129.394 128.201 129.514 127.866 129.737C127.532 129.961 127.271 130.278 127.117 130.65C126.963 131.022 126.923 131.431 127.001 131.825C127.08 132.22 127.274 132.582 127.558 132.867C127.843 133.151 128.205 133.345 128.6 133.424C128.994 133.502 129.403 133.462 129.775 133.308C130.147 133.154 130.464 132.893 130.688 132.559C130.911 132.224 131.031 131.831 131.031 131.429C131.031 130.889 130.816 130.372 130.435 129.99C130.053 129.609 129.536 129.394 128.997 129.394ZM128.997 132.523C128.779 132.523 128.567 132.458 128.386 132.338C128.206 132.217 128.065 132.046 127.982 131.845C127.899 131.644 127.877 131.423 127.919 131.21C127.962 130.997 128.066 130.801 128.22 130.648C128.373 130.494 128.569 130.39 128.782 130.347C128.995 130.305 129.216 130.327 129.417 130.41C129.618 130.493 129.789 130.634 129.91 130.814C130.031 130.995 130.095 131.207 130.095 131.424C130.095 131.716 129.979 131.995 129.773 132.201C129.567 132.407 129.288 132.523 128.997 132.523Z" fill="#B90101"/>
<path d="M140.86 129.394C140.457 129.394 140.064 129.514 139.73 129.737C139.395 129.961 139.134 130.278 138.981 130.65C138.827 131.022 138.786 131.431 138.865 131.825C138.943 132.22 139.137 132.582 139.421 132.867C139.706 133.151 140.068 133.345 140.463 133.424C140.858 133.502 141.267 133.462 141.638 133.308C142.01 133.154 142.328 132.893 142.551 132.559C142.775 132.224 142.894 131.831 142.894 131.429C142.894 130.889 142.68 130.372 142.298 129.99C141.917 129.609 141.399 129.394 140.86 129.394ZM140.86 132.523C140.643 132.523 140.43 132.458 140.25 132.338C140.069 132.217 139.928 132.046 139.845 131.845C139.762 131.644 139.74 131.423 139.782 131.21C139.825 130.997 139.929 130.801 140.083 130.648C140.237 130.494 140.432 130.39 140.646 130.347C140.859 130.305 141.079 130.327 141.28 130.41C141.481 130.493 141.652 130.634 141.773 130.814C141.894 130.995 141.958 131.207 141.958 131.424C141.958 131.716 141.843 131.995 141.637 132.201C141.431 132.407 141.151 132.523 140.86 132.523Z" fill="#B90101"/>
<path d="M152.475 129.394C152.072 129.394 151.679 129.514 151.344 129.737C151.01 129.961 150.749 130.278 150.595 130.65C150.441 131.022 150.401 131.431 150.48 131.825C150.558 132.22 150.752 132.582 151.036 132.867C151.321 133.151 151.683 133.345 152.078 133.424C152.472 133.502 152.881 133.462 153.253 133.308C153.625 133.154 153.942 132.893 154.166 132.559C154.389 132.224 154.509 131.831 154.509 131.429C154.509 130.889 154.294 130.372 153.913 129.99C153.531 129.609 153.014 129.394 152.475 129.394ZM152.475 132.523C152.257 132.523 152.045 132.458 151.864 132.338C151.684 132.217 151.543 132.046 151.46 131.845C151.377 131.644 151.355 131.423 151.397 131.21C151.44 130.997 151.544 130.801 151.698 130.648C151.851 130.494 152.047 130.39 152.26 130.347C152.473 130.305 152.694 130.327 152.895 130.41C153.096 130.493 153.267 130.634 153.388 130.814C153.509 130.995 153.573 131.207 153.573 131.424C153.573 131.716 153.457 131.995 153.251 132.201C153.045 132.407 152.766 132.523 152.475 132.523Z" fill="#B90101"/>
<path d="M146.865 102.548C138.951 102.85 131.027 102.569 123.155 101.706C122.786 101.653 122.411 101.68 122.054 101.787C121.697 101.894 121.368 102.077 121.09 102.324C120.811 102.572 120.59 102.877 120.441 103.218C120.293 103.559 120.221 103.929 120.23 104.301V104.708C120.25 105.51 120.556 106.279 121.092 106.875C121.628 107.472 122.36 107.858 123.155 107.963C131.022 108.818 138.941 109.097 146.848 108.797L146.865 102.548Z" fill="#B90101"/>
<path opacity="0.5" d="M146.865 102.548C138.951 102.85 131.027 102.569 123.155 101.706C122.786 101.653 122.411 101.68 122.054 101.787C121.697 101.894 121.368 102.077 121.09 102.324C120.811 102.572 120.59 102.877 120.441 103.218C120.293 103.559 120.221 103.929 120.23 104.301V104.708C120.25 105.51 120.556 106.279 121.092 106.875C121.628 107.472 122.36 107.858 123.155 107.963C131.022 108.818 138.941 109.097 146.848 108.797L146.865 102.548Z" fill="white"/>
<path d="M158.699 107.955C154.175 108.362 149.712 108.675 145.172 108.858C144.808 108.867 144.446 108.803 144.107 108.67C143.768 108.536 143.46 108.336 143.2 108.081C142.94 107.826 142.734 107.521 142.594 107.185C142.454 106.849 142.383 106.488 142.385 106.124V105.432C142.385 104.688 142.677 103.972 143.198 103.44C143.719 102.908 144.427 102.601 145.172 102.585C149.712 102.406 154.175 102.105 158.699 101.682C159.046 101.634 159.399 101.662 159.735 101.763C160.07 101.865 160.379 102.037 160.642 102.269C160.905 102.5 161.115 102.786 161.258 103.105C161.4 103.425 161.473 103.772 161.469 104.122V104.814C161.463 105.584 161.18 106.325 160.671 106.902C160.162 107.479 159.462 107.853 158.699 107.955Z" fill="#B90101"/>
<path d="M171.144 138.861H169.826L169.472 89.7942H171.144V138.861Z" fill="#B90101"/>
<path opacity="0.5" d="M171.144 138.861H169.826L169.472 89.7942H171.144V138.861Z" fill="white"/>
<path d="M172.462 138.861H171.144V89.7942H172.816L172.462 138.861Z" fill="#B90101"/>
<path opacity="0.3" d="M172.462 138.861H171.144V89.7942H172.816L172.462 138.861Z" fill="white"/>
<path d="M94.0793 138.861H92.7612L92.4072 89.7942H94.0793V138.861Z" fill="#B90101"/>
<path opacity="0.5" d="M94.0793 138.861H92.7612L92.4072 89.7942H94.0793V138.861Z" fill="white"/>
<path d="M95.3931 138.861H94.0791V89.7942H95.7511L95.3931 138.861Z" fill="#B90101"/>
<path opacity="0.3" d="M95.3931 138.861H94.0791V89.7942H95.7511L95.3931 138.861Z" fill="white"/>
<path d="M156.588 86.5884H78.9941V89.7901H156.588V86.5884Z" fill="#263238"/>
<path opacity="0.2" d="M156.588 86.5884H78.9941V89.7901H156.588V86.5884Z" fill="white"/>
<path d="M175.464 86.5884H155.241V89.7901H175.464V86.5884Z" fill="#263238"/>
<path opacity="0.5" d="M175.464 86.5884H155.241V89.7901H175.464V86.5884Z" fill="black"/>
<path d="M160.684 89.7942H83.6196V95.0748H160.684V89.7942Z" fill="#B90101"/>
<path d="M160.688 95.0747H171.144V89.7941H160.688V95.0747Z" fill="#B90101"/>
<mask id="mask0_5_6821" style="mask-type:luminance" maskUnits="userSpaceOnUse" x="160" y="89" width="12" height="7">
<path d="M160.688 95.0747H171.144V89.7941H160.688V95.0747Z" fill="white"/>
</mask>
<g mask="url(#mask0_5_6821)">
<path opacity="0.3" d="M160.688 95.0747H171.144V89.7941H160.688V95.0747Z" fill="#B90101"/>
</g>
<g opacity="0.3">
<path d="M160.688 95.0747H171.144V89.7941H160.688V95.0747Z" fill="black"/>
<mask id="mask1_5_6821" style="mask-type:luminance" maskUnits="userSpaceOnUse" x="160" y="89" width="12" height="7">
<path d="M160.688 95.0747H171.144V89.7941H160.688V95.0747Z" fill="white"/>
</mask>
<g mask="url(#mask1_5_6821)">
<path opacity="0.3" d="M160.688 95.0747H171.144V89.7941H160.688V95.0747Z" fill="black"/>
</g>
</g>
<path d="M83.6198 142.116H82.3058L81.9478 89.7942H83.6198V142.116Z" fill="#B90101"/>
<path opacity="0.5" d="M83.6198 142.116H82.3058L81.9478 89.7942H83.6198V142.116Z" fill="white"/>
<path d="M84.9377 142.116H83.6196V89.7942H85.2917L84.9377 142.116Z" fill="#B90101"/>
<path opacity="0.3" d="M84.9377 142.116H83.6196V89.7942H85.2917L84.9377 142.116Z" fill="white"/>
<path d="M160.688 142.116H159.37L159.016 89.7942H160.688V142.116Z" fill="#B90101"/>
<path opacity="0.5" d="M160.688 142.116H159.37L159.016 89.7942H160.688V142.116Z" fill="white"/>
<path d="M162.003 142.116H160.688V89.7942H162.361L162.003 142.116Z" fill="#B90101"/>
<path opacity="0.3" d="M162.003 142.116H160.688V89.7942H162.361L162.003 142.116Z" fill="white"/>
<path d="M132.727 53.4323H130.388L132.105 78.1102H134.44C134.53 78.1117 134.62 78.0942 134.703 78.0589C134.786 78.0236 134.86 77.9713 134.921 77.9053C134.983 77.8393 135.03 77.7612 135.059 77.6759C135.088 77.5907 135.099 77.5002 135.091 77.4104L133.464 54.132C133.448 53.9454 133.364 53.7712 133.229 53.6422C133.093 53.5133 132.915 53.4386 132.727 53.4323Z" fill="#263238"/>
<path opacity="0.3" d="M132.727 53.4323H130.388L132.105 78.1102H134.44C134.53 78.1117 134.62 78.0942 134.703 78.0589C134.786 78.0236 134.86 77.9713 134.921 77.9053C134.983 77.8393 135.03 77.7612 135.059 77.6759C135.088 77.5907 135.099 77.5002 135.091 77.4104L133.464 54.132C133.448 53.9454 133.364 53.7712 133.229 53.6422C133.093 53.5133 132.915 53.4386 132.727 53.4323Z" fill="white"/>
<path d="M133.11 78.1101H98.0944C97.9044 78.1078 97.7221 78.0349 97.583 77.9055C97.4439 77.7762 97.3579 77.5997 97.3417 77.4104L95.7145 54.132C95.7065 54.0422 95.7174 53.9517 95.7466 53.8665C95.7759 53.7812 95.8227 53.7031 95.8841 53.6371C95.9454 53.5711 96.02 53.5188 96.1029 53.4835C96.1858 53.4482 96.2753 53.4307 96.3654 53.4322H131.385C131.574 53.4346 131.756 53.5077 131.895 53.6372C132.033 53.7666 132.118 53.943 132.133 54.132L133.761 77.4104C133.768 77.5 133.757 77.5902 133.727 77.6752C133.698 77.7602 133.651 77.8381 133.59 77.9039C133.528 77.9697 133.454 78.0221 133.371 78.0576C133.289 78.0931 133.2 78.111 133.11 78.1101Z" fill="#263238"/>
<path opacity="0.6" d="M133.11 78.1101H98.0944C97.9044 78.1078 97.7221 78.0349 97.583 77.9055C97.4439 77.7762 97.3579 77.5997 97.3417 77.4104L95.7145 54.132C95.7065 54.0422 95.7174 53.9517 95.7466 53.8665C95.7759 53.7812 95.8227 53.7031 95.8841 53.6371C95.9454 53.5711 96.02 53.5188 96.1029 53.4835C96.1858 53.4482 96.2753 53.4307 96.3654 53.4322H131.385C131.574 53.4346 131.756 53.5077 131.895 53.6372C132.033 53.7666 132.118 53.943 132.133 54.132L133.761 77.4104C133.768 77.5 133.757 77.5902 133.727 77.6752C133.698 77.7602 133.651 77.8381 133.59 77.9039C133.528 77.9697 133.454 78.0221 133.371 78.0576C133.289 78.0931 133.2 78.111 133.11 78.1101Z" fill="white"/>
<path opacity="0.1" d="M114.737 72.1462C109.559 72.2682 98.0942 78.1102 98.0942 78.1102H133.11C133.11 78.1102 120.27 72.0079 114.737 72.1462Z" fill="black"/>
<path d="M119.282 73.5212C119.271 73.2863 119.169 73.0648 118.999 72.9027C118.828 72.7406 118.602 72.6503 118.367 72.6506H112.098C111.862 72.6493 111.635 72.7392 111.465 72.9015C111.294 73.0638 111.193 73.2859 111.182 73.5212L110.543 86.5884H119.9L119.282 73.5212Z" fill="#263238"/>
<path opacity="0.4" d="M119.282 73.5212C119.271 73.2863 119.169 73.0648 118.999 72.9027C118.828 72.7406 118.602 72.6503 118.367 72.6506H112.098C111.862 72.6493 111.635 72.7392 111.465 72.9015C111.294 73.0638 111.193 73.2859 111.182 73.5212L110.543 86.5884H119.9L119.282 73.5212Z" fill="white"/>
<path d="M119.99 73.5212C119.978 73.2862 119.877 73.0648 119.706 72.9027C119.536 72.7406 119.31 72.6503 119.075 72.6506H118.367C118.602 72.6503 118.828 72.7406 118.999 72.9027C119.169 73.0648 119.271 73.2862 119.282 73.5212L119.9 86.5884H120.604L119.99 73.5212Z" fill="#263238"/>
<path d="M124.302 87.6705H123.297C123.246 87.6705 123.197 87.6505 123.161 87.6148C123.124 87.579 123.103 87.5304 123.102 87.4793V86.4135C123.103 86.3624 123.124 86.3137 123.161 86.278C123.197 86.2422 123.246 86.2222 123.297 86.2222H124.017C124.06 86.2217 124.102 86.2355 124.135 86.2613C124.169 86.2871 124.194 86.3234 124.205 86.3646L124.489 87.4305C124.497 87.459 124.498 87.4888 124.492 87.5177C124.486 87.5466 124.473 87.5737 124.455 87.5969C124.437 87.6201 124.414 87.6389 124.387 87.6517C124.361 87.6644 124.332 87.6709 124.302 87.6705Z" fill="#263238"/>
<path d="M125.693 87.6705H124.688C124.663 87.6705 124.638 87.6656 124.615 87.656C124.592 87.6464 124.571 87.6323 124.553 87.6145C124.535 87.5968 124.521 87.5757 124.512 87.5525C124.502 87.5293 124.497 87.5044 124.497 87.4793V86.4135C124.497 86.3883 124.502 86.3635 124.512 86.3403C124.521 86.3171 124.535 86.296 124.553 86.2782C124.571 86.2605 124.592 86.2464 124.615 86.2368C124.638 86.2272 124.663 86.2222 124.688 86.2222H125.408C125.451 86.2217 125.493 86.2355 125.526 86.2613C125.56 86.2871 125.585 86.3234 125.595 86.3646L125.88 87.4305C125.888 87.459 125.889 87.4888 125.883 87.5177C125.877 87.5466 125.864 87.5737 125.846 87.5969C125.828 87.6201 125.805 87.6389 125.778 87.6517C125.752 87.6644 125.723 87.6709 125.693 87.6705Z" fill="#263238"/>
<path d="M127.085 87.6705H126.08C126.055 87.6705 126.03 87.6656 126.007 87.656C125.984 87.6464 125.962 87.6323 125.945 87.6145C125.927 87.5968 125.913 87.5757 125.903 87.5525C125.894 87.5293 125.889 87.5044 125.889 87.4793V86.4135C125.889 86.3883 125.894 86.3635 125.903 86.3403C125.913 86.3171 125.927 86.296 125.945 86.2782C125.962 86.2605 125.984 86.2464 126.007 86.2368C126.03 86.2272 126.055 86.2222 126.08 86.2222H126.816C126.859 86.2217 126.9 86.2355 126.934 86.2613C126.968 86.2871 126.992 86.3234 127.003 86.3646L127.288 87.4305C127.296 87.4604 127.297 87.4918 127.29 87.522C127.283 87.5522 127.269 87.5803 127.249 87.6039C127.229 87.6275 127.204 87.6459 127.175 87.6575C127.147 87.6691 127.116 87.6736 127.085 87.6705Z" fill="#263238"/>
<path d="M128.476 87.6705H127.471C127.42 87.6705 127.372 87.6504 127.336 87.6145C127.3 87.5787 127.28 87.53 127.28 87.4793V86.4134C127.28 86.3627 127.3 86.3141 127.336 86.2782C127.372 86.2424 127.42 86.2222 127.471 86.2222H128.195C128.237 86.2226 128.278 86.2368 128.311 86.2625C128.344 86.2882 128.368 86.3241 128.378 86.3646L128.663 87.4305C128.671 87.459 128.671 87.4888 128.665 87.5177C128.66 87.5466 128.647 87.5737 128.629 87.5969C128.611 87.6201 128.588 87.6389 128.561 87.6516C128.534 87.6644 128.505 87.6709 128.476 87.6705Z" fill="#263238"/>
<path d="M129.867 87.6705H128.85C128.8 87.6705 128.751 87.6504 128.715 87.6145C128.679 87.5787 128.659 87.53 128.659 87.4793V86.4134C128.659 86.3627 128.679 86.3141 128.715 86.2782C128.751 86.2424 128.8 86.2222 128.85 86.2222H129.575C129.616 86.2226 129.657 86.2368 129.69 86.2625C129.723 86.2882 129.747 86.3241 129.758 86.3646L130.042 87.4305C130.05 87.458 130.051 87.4868 130.046 87.5148C130.04 87.5427 130.029 87.5692 130.012 87.5922C129.995 87.6152 129.974 87.6341 129.949 87.6477C129.924 87.6613 129.896 87.6691 129.867 87.6705Z" fill="#263238"/>
<path d="M131.259 87.6705H130.254C130.228 87.6695 130.203 87.6634 130.18 87.6525C130.157 87.6417 130.136 87.6263 130.119 87.6074C130.102 87.5884 130.089 87.5662 130.081 87.5422C130.073 87.5181 130.069 87.4926 130.071 87.4671V86.4012C130.071 86.3761 130.076 86.3513 130.085 86.3281C130.095 86.3049 130.109 86.2838 130.127 86.266C130.144 86.2483 130.166 86.2342 130.189 86.2246C130.212 86.215 130.237 86.21 130.262 86.21H130.986C131.028 86.2104 131.069 86.2246 131.102 86.2503C131.135 86.276 131.158 86.3119 131.169 86.3524L131.454 87.4183C131.464 87.4482 131.467 87.4802 131.461 87.5113C131.456 87.5425 131.443 87.5719 131.424 87.5969C131.405 87.6219 131.379 87.6417 131.351 87.6545C131.322 87.6674 131.29 87.6729 131.259 87.6705Z" fill="#263238"/>
<path d="M132.65 87.6705H131.645C131.62 87.6705 131.595 87.6656 131.572 87.656C131.549 87.6464 131.528 87.6323 131.51 87.6145C131.492 87.5968 131.478 87.5757 131.469 87.5525C131.459 87.5293 131.454 87.5044 131.454 87.4793V86.4134C131.454 86.3883 131.459 86.3635 131.469 86.3403C131.478 86.3171 131.492 86.296 131.51 86.2782C131.528 86.2605 131.549 86.2464 131.572 86.2368C131.595 86.2272 131.62 86.2222 131.645 86.2222H132.369C132.411 86.2226 132.452 86.2368 132.485 86.2625C132.518 86.2882 132.542 86.3241 132.553 86.3646L132.837 87.4305C132.845 87.459 132.846 87.4888 132.84 87.5177C132.834 87.5466 132.821 87.5737 132.803 87.5969C132.785 87.6201 132.762 87.6389 132.735 87.6516C132.709 87.6644 132.68 87.6709 132.65 87.6705Z" fill="#263238"/>
<path d="M134.041 87.6705H133.036C133.011 87.6705 132.986 87.6656 132.963 87.656C132.94 87.6464 132.919 87.6323 132.901 87.6145C132.883 87.5968 132.869 87.5757 132.86 87.5525C132.85 87.5293 132.845 87.5044 132.845 87.4793V86.4134C132.845 86.3883 132.85 86.3635 132.86 86.3403C132.869 86.3171 132.883 86.296 132.901 86.2782C132.919 86.2605 132.94 86.2464 132.963 86.2368C132.986 86.2272 133.011 86.2222 133.036 86.2222H133.761C133.802 86.2226 133.843 86.2368 133.876 86.2625C133.909 86.2882 133.933 86.3241 133.944 86.3646L134.228 87.4305C134.236 87.459 134.237 87.4888 134.231 87.5177C134.225 87.5466 134.212 87.5737 134.194 87.5969C134.176 87.6201 134.153 87.6389 134.126 87.6516C134.1 87.6644 134.071 87.6709 134.041 87.6705Z" fill="#263238"/>
<path d="M135.433 87.6705H134.428C134.403 87.6705 134.378 87.6656 134.355 87.656C134.332 87.6464 134.311 87.6323 134.293 87.6145C134.275 87.5968 134.261 87.5757 134.251 87.5525C134.242 87.5293 134.237 87.5044 134.237 87.4793V86.4134C134.237 86.3883 134.242 86.3635 134.251 86.3403C134.261 86.3171 134.275 86.296 134.293 86.2782C134.311 86.2605 134.332 86.2464 134.355 86.2368C134.378 86.2272 134.403 86.2222 134.428 86.2222H135.152C135.194 86.2226 135.235 86.2368 135.268 86.2625C135.301 86.2882 135.325 86.3241 135.335 86.3646L135.62 87.4305C135.628 87.459 135.628 87.4888 135.622 87.5177C135.617 87.5466 135.604 87.5737 135.586 87.5969C135.568 87.6201 135.545 87.6389 135.518 87.6516C135.491 87.6644 135.462 87.6709 135.433 87.6705Z" fill="#263238"/>
<path d="M136.824 87.6705H135.819C135.794 87.6705 135.769 87.6656 135.746 87.656C135.723 87.6464 135.702 87.6323 135.684 87.6145C135.666 87.5968 135.652 87.5757 135.642 87.5525C135.633 87.5293 135.628 87.5044 135.628 87.4793V86.4134C135.628 86.3883 135.633 86.3635 135.642 86.3403C135.652 86.3171 135.666 86.296 135.684 86.2782C135.702 86.2605 135.723 86.2464 135.746 86.2368C135.769 86.2272 135.794 86.2222 135.819 86.2222H136.543C136.585 86.2226 136.626 86.2368 136.659 86.2625C136.692 86.2882 136.716 86.3241 136.726 86.3646L137.011 87.4305C137.019 87.459 137.019 87.4888 137.014 87.5177C137.008 87.5466 136.995 87.5737 136.977 87.5969C136.959 87.6201 136.936 87.6389 136.909 87.6516C136.883 87.6644 136.853 87.6709 136.824 87.6705Z" fill="#263238"/>
<path d="M138.207 87.6705H137.202C137.152 87.6705 137.103 87.6504 137.067 87.6145C137.031 87.5787 137.011 87.53 137.011 87.4793V86.4134C137.011 86.3627 137.031 86.3141 137.067 86.2782C137.103 86.2424 137.152 86.2222 137.202 86.2222H137.927C137.968 86.2226 138.009 86.2368 138.042 86.2625C138.075 86.2882 138.099 86.3241 138.11 86.3646L138.394 87.4305C138.402 87.459 138.403 87.4888 138.397 87.5177C138.391 87.5466 138.378 87.5737 138.36 87.5969C138.342 87.6201 138.319 87.6389 138.292 87.6516C138.266 87.6644 138.237 87.6709 138.207 87.6705Z" fill="#263238"/>
<path d="M139.607 87.6705H138.614C138.563 87.6705 138.515 87.6504 138.479 87.6145C138.443 87.5787 138.423 87.53 138.423 87.4793V86.4134C138.423 86.3627 138.443 86.3141 138.479 86.2782C138.515 86.2424 138.563 86.2222 138.614 86.2222H139.338C139.38 86.2226 139.421 86.2368 139.454 86.2625C139.487 86.2882 139.511 86.3241 139.521 86.3646L139.806 87.4305C139.814 87.46 139.815 87.491 139.808 87.5208C139.802 87.5507 139.788 87.5785 139.768 87.602C139.749 87.6255 139.724 87.644 139.696 87.6559C139.668 87.6679 139.637 87.6729 139.607 87.6705Z" fill="#263238"/>
<path d="M141.002 87.6705H139.993C139.942 87.6705 139.894 87.6504 139.858 87.6145C139.822 87.5787 139.802 87.53 139.802 87.4793V86.4134C139.802 86.3627 139.822 86.3141 139.858 86.2782C139.894 86.2424 139.942 86.2222 139.993 86.2222H140.717C140.759 86.2226 140.8 86.2368 140.833 86.2625C140.866 86.2882 140.889 86.3241 140.9 86.3646L141.185 87.4305C141.192 87.4587 141.193 87.4881 141.188 87.5167C141.182 87.5452 141.17 87.5721 141.152 87.5953C141.134 87.6184 141.112 87.6372 141.086 87.6503C141.06 87.6633 141.031 87.6702 141.002 87.6705Z" fill="#263238"/>
<path d="M142.393 87.6705H141.385C141.334 87.6705 141.285 87.6504 141.249 87.6145C141.214 87.5787 141.193 87.53 141.193 87.4793V86.4134C141.193 86.3627 141.214 86.3141 141.249 86.2782C141.285 86.2424 141.334 86.2222 141.385 86.2222H142.109C142.151 86.2226 142.191 86.2368 142.224 86.2625C142.257 86.2882 142.281 86.3241 142.292 86.3646L142.577 87.4305C142.584 87.4587 142.585 87.4881 142.579 87.5167C142.574 87.5452 142.561 87.5721 142.544 87.5953C142.526 87.6184 142.503 87.6372 142.477 87.6503C142.451 87.6633 142.423 87.6702 142.393 87.6705Z" fill="#263238"/>
<path d="M143.785 87.6705H142.776C142.725 87.6705 142.676 87.6504 142.64 87.6145C142.605 87.5787 142.584 87.53 142.584 87.4793V86.4134C142.584 86.3627 142.605 86.3141 142.64 86.2782C142.676 86.2424 142.725 86.2222 142.776 86.2222H143.496C143.538 86.2226 143.578 86.2368 143.611 86.2625C143.644 86.2882 143.668 86.3241 143.679 86.3646L143.964 87.4305C143.971 87.4583 143.972 87.4875 143.966 87.5157C143.961 87.544 143.949 87.5706 143.932 87.5937C143.915 87.6168 143.893 87.6357 143.867 87.649C143.842 87.6623 143.813 87.6696 143.785 87.6705Z" fill="#263238"/>
<g opacity="0.8">
<path d="M124.302 87.6705H123.297C123.246 87.6705 123.197 87.6505 123.161 87.6148C123.124 87.579 123.103 87.5304 123.102 87.4793V86.4135C123.103 86.3624 123.124 86.3137 123.161 86.278C123.197 86.2422 123.246 86.2222 123.297 86.2222H124.017C124.06 86.2217 124.102 86.2355 124.135 86.2613C124.169 86.2871 124.194 86.3234 124.205 86.3646L124.489 87.4305C124.497 87.459 124.498 87.4888 124.492 87.5177C124.486 87.5466 124.473 87.5737 124.455 87.5969C124.437 87.6201 124.414 87.6389 124.387 87.6517C124.361 87.6644 124.332 87.6709 124.302 87.6705Z" fill="white"/>
<path d="M125.694 87.6705H124.689C124.664 87.6705 124.639 87.6656 124.616 87.656C124.592 87.6464 124.571 87.6323 124.554 87.6145C124.536 87.5968 124.522 87.5757 124.512 87.5525C124.503 87.5293 124.498 87.5044 124.498 87.4793V86.4135C124.498 86.3883 124.503 86.3635 124.512 86.3403C124.522 86.3171 124.536 86.296 124.554 86.2782C124.571 86.2605 124.592 86.2464 124.616 86.2368C124.639 86.2272 124.664 86.2222 124.689 86.2222H125.409C125.451 86.2217 125.493 86.2355 125.527 86.2613C125.561 86.2871 125.585 86.3234 125.596 86.3646L125.881 87.4305C125.888 87.459 125.889 87.4888 125.883 87.5177C125.877 87.5466 125.865 87.5737 125.847 87.5969C125.829 87.6201 125.805 87.6389 125.779 87.6517C125.752 87.6644 125.723 87.6709 125.694 87.6705Z" fill="white"/>
<path d="M127.085 87.6705H126.08C126.055 87.6705 126.03 87.6656 126.007 87.656C125.984 87.6464 125.962 87.6323 125.945 87.6145C125.927 87.5968 125.913 87.5757 125.903 87.5525C125.894 87.5293 125.889 87.5044 125.889 87.4793V86.4135C125.889 86.3883 125.894 86.3635 125.903 86.3403C125.913 86.3171 125.927 86.296 125.945 86.2782C125.962 86.2605 125.984 86.2464 126.007 86.2368C126.03 86.2272 126.055 86.2222 126.08 86.2222H126.816C126.859 86.2217 126.9 86.2355 126.934 86.2613C126.968 86.2871 126.992 86.3234 127.003 86.3646L127.288 87.4305C127.296 87.4604 127.297 87.4918 127.29 87.522C127.283 87.5522 127.269 87.5803 127.249 87.6039C127.229 87.6275 127.204 87.6459 127.175 87.6575C127.147 87.6691 127.116 87.6736 127.085 87.6705Z" fill="white"/>
<path d="M128.476 87.6706H127.471C127.421 87.6706 127.372 87.6504 127.336 87.6146C127.3 87.5787 127.28 87.5301 127.28 87.4794V86.4135C127.28 86.3628 127.3 86.3142 127.336 86.2783C127.372 86.2424 127.421 86.2223 127.471 86.2223H128.196C128.238 86.2227 128.278 86.2368 128.311 86.2626C128.344 86.2883 128.368 86.3242 128.379 86.3647L128.663 87.4306C128.671 87.459 128.672 87.4889 128.666 87.5177C128.66 87.5466 128.648 87.5737 128.629 87.597C128.611 87.6202 128.588 87.6389 128.561 87.6517C128.535 87.6645 128.506 87.6709 128.476 87.6706Z" fill="white"/>
<path d="M129.867 87.6706H128.85C128.8 87.6706 128.751 87.6504 128.715 87.6146C128.679 87.5787 128.659 87.5301 128.659 87.4794V86.4135C128.659 86.3628 128.679 86.3142 128.715 86.2783C128.751 86.2424 128.8 86.2223 128.85 86.2223H129.575C129.616 86.2227 129.657 86.2368 129.69 86.2626C129.723 86.2883 129.747 86.3242 129.758 86.3647L130.042 87.4306C130.05 87.4581 130.051 87.4868 130.046 87.5148C130.04 87.5428 130.029 87.5693 130.012 87.5923C129.995 87.6153 129.974 87.6342 129.949 87.6478C129.924 87.6613 129.896 87.6691 129.867 87.6706Z" fill="white"/>
<path d="M131.259 87.6706H130.254C130.228 87.6695 130.203 87.6634 130.18 87.6526C130.157 87.6417 130.136 87.6264 130.119 87.6074C130.102 87.5885 130.089 87.5663 130.081 87.5422C130.073 87.5181 130.069 87.4926 130.071 87.4672V86.4013C130.071 86.3762 130.076 86.3513 130.085 86.3281C130.095 86.3049 130.109 86.2838 130.127 86.2661C130.144 86.2483 130.166 86.2342 130.189 86.2246C130.212 86.215 130.237 86.2101 130.262 86.2101H130.986C131.028 86.2105 131.069 86.2246 131.102 86.2503C131.135 86.2761 131.158 86.312 131.169 86.3525L131.454 87.4184C131.464 87.4483 131.467 87.4802 131.461 87.5114C131.456 87.5426 131.443 87.572 131.424 87.597C131.405 87.6219 131.379 87.6417 131.351 87.6546C131.322 87.6674 131.29 87.6729 131.259 87.6706Z" fill="white"/>
<path d="M132.65 87.6706H131.645C131.62 87.6706 131.595 87.6656 131.572 87.656C131.549 87.6464 131.528 87.6323 131.51 87.6146C131.492 87.5968 131.478 87.5757 131.469 87.5525C131.459 87.5294 131.454 87.5045 131.454 87.4794V86.4135C131.454 86.3884 131.459 86.3635 131.469 86.3403C131.478 86.3171 131.492 86.2961 131.51 86.2783C131.528 86.2605 131.549 86.2464 131.572 86.2368C131.595 86.2272 131.62 86.2223 131.645 86.2223H132.369C132.411 86.2227 132.452 86.2368 132.485 86.2626C132.518 86.2883 132.542 86.3242 132.553 86.3647L132.837 87.4306C132.845 87.459 132.846 87.4889 132.84 87.5177C132.834 87.5466 132.821 87.5737 132.803 87.597C132.785 87.6202 132.762 87.6389 132.735 87.6517C132.709 87.6645 132.68 87.6709 132.65 87.6706Z" fill="white"/>
<path d="M134.042 87.6706H133.037C133.012 87.6706 132.987 87.6656 132.964 87.656C132.941 87.6464 132.919 87.6323 132.902 87.6146C132.884 87.5968 132.87 87.5757 132.86 87.5525C132.851 87.5294 132.846 87.5045 132.846 87.4794V86.4135C132.846 86.3884 132.851 86.3635 132.86 86.3403C132.87 86.3171 132.884 86.2961 132.902 86.2783C132.919 86.2605 132.941 86.2464 132.964 86.2368C132.987 86.2272 133.012 86.2223 133.037 86.2223H133.761C133.803 86.2227 133.844 86.2368 133.877 86.2626C133.91 86.2883 133.933 86.3242 133.944 86.3647L134.229 87.4306C134.236 87.459 134.237 87.4889 134.231 87.5177C134.225 87.5466 134.213 87.5737 134.195 87.597C134.177 87.6202 134.153 87.6389 134.127 87.6517C134.1 87.6645 134.071 87.6709 134.042 87.6706Z" fill="white"/>
<path d="M135.433 87.6706H134.428C134.403 87.6706 134.378 87.6656 134.355 87.656C134.332 87.6464 134.311 87.6323 134.293 87.6146C134.275 87.5968 134.261 87.5757 134.251 87.5525C134.242 87.5294 134.237 87.5045 134.237 87.4794V86.4135C134.237 86.3884 134.242 86.3635 134.251 86.3403C134.261 86.3171 134.275 86.2961 134.293 86.2783C134.311 86.2605 134.332 86.2464 134.355 86.2368C134.378 86.2272 134.403 86.2223 134.428 86.2223H135.152C135.194 86.2227 135.235 86.2368 135.268 86.2626C135.301 86.2883 135.325 86.3242 135.335 86.3647L135.62 87.4306C135.628 87.459 135.628 87.4889 135.622 87.5177C135.617 87.5466 135.604 87.5737 135.586 87.597C135.568 87.6202 135.545 87.6389 135.518 87.6517C135.491 87.6645 135.462 87.6709 135.433 87.6706Z" fill="white"/>
<path d="M136.824 87.6706H135.819C135.794 87.6706 135.769 87.6656 135.746 87.656C135.723 87.6464 135.702 87.6323 135.684 87.6146C135.666 87.5968 135.652 87.5757 135.642 87.5525C135.633 87.5294 135.628 87.5045 135.628 87.4794V86.4135C135.628 86.3884 135.633 86.3635 135.642 86.3403C135.652 86.3171 135.666 86.2961 135.684 86.2783C135.702 86.2605 135.723 86.2464 135.746 86.2368C135.769 86.2272 135.794 86.2223 135.819 86.2223H136.543C136.585 86.2227 136.626 86.2368 136.659 86.2626C136.692 86.2883 136.716 86.3242 136.726 86.3647L137.011 87.4306C137.019 87.459 137.019 87.4889 137.014 87.5177C137.008 87.5466 136.995 87.5737 136.977 87.597C136.959 87.6202 136.936 87.6389 136.909 87.6517C136.883 87.6645 136.853 87.6709 136.824 87.6706Z" fill="white"/>
<path d="M138.207 87.6706H137.202C137.152 87.6706 137.103 87.6504 137.067 87.6146C137.031 87.5787 137.011 87.5301 137.011 87.4794V86.4135C137.011 86.3628 137.031 86.3142 137.067 86.2783C137.103 86.2424 137.152 86.2223 137.202 86.2223H137.927C137.968 86.2227 138.009 86.2368 138.042 86.2626C138.075 86.2883 138.099 86.3242 138.11 86.3647L138.394 87.4306C138.402 87.459 138.403 87.4889 138.397 87.5177C138.391 87.5466 138.378 87.5737 138.36 87.597C138.342 87.6202 138.319 87.6389 138.292 87.6517C138.266 87.6645 138.237 87.6709 138.207 87.6706Z" fill="white"/>
<path d="M139.607 87.6706H138.615C138.564 87.6706 138.515 87.6504 138.479 87.6146C138.443 87.5787 138.423 87.5301 138.423 87.4794V86.4135C138.423 86.3628 138.443 86.3142 138.479 86.2783C138.515 86.2424 138.564 86.2223 138.615 86.2223H139.339C139.381 86.2227 139.421 86.2368 139.454 86.2626C139.487 86.2883 139.511 86.3242 139.522 86.3647L139.807 87.4306C139.814 87.4601 139.815 87.4911 139.809 87.5209C139.802 87.5507 139.788 87.5786 139.769 87.6021C139.749 87.6256 139.725 87.6441 139.696 87.656C139.668 87.6679 139.638 87.6729 139.607 87.6706Z" fill="white"/>
<path d="M141.002 87.6706H139.993C139.943 87.6706 139.894 87.6504 139.858 87.6146C139.822 87.5787 139.802 87.5301 139.802 87.4794V86.4135C139.802 86.3628 139.822 86.3142 139.858 86.2783C139.894 86.2424 139.943 86.2223 139.993 86.2223H140.718C140.76 86.2227 140.8 86.2368 140.833 86.2626C140.866 86.2883 140.89 86.3242 140.901 86.3647L141.185 87.4306C141.193 87.4587 141.194 87.4882 141.188 87.5167C141.182 87.5453 141.17 87.5722 141.153 87.5953C141.135 87.6185 141.112 87.6373 141.086 87.6503C141.06 87.6634 141.031 87.6703 141.002 87.6706Z" fill="white"/>
<path d="M142.393 87.6706H141.385C141.334 87.6706 141.285 87.6504 141.249 87.6146C141.214 87.5787 141.193 87.5301 141.193 87.4794V86.4135C141.193 86.3628 141.214 86.3142 141.249 86.2783C141.285 86.2424 141.334 86.2223 141.385 86.2223H142.109C142.151 86.2227 142.191 86.2368 142.224 86.2626C142.257 86.2883 142.281 86.3242 142.292 86.3647L142.577 87.4306C142.584 87.4587 142.585 87.4882 142.579 87.5167C142.574 87.5453 142.561 87.5722 142.544 87.5953C142.526 87.6185 142.503 87.6373 142.477 87.6503C142.451 87.6634 142.423 87.6703 142.393 87.6706Z" fill="white"/>
<path d="M143.785 87.6706H142.776C142.725 87.6706 142.677 87.6504 142.641 87.6146C142.605 87.5787 142.585 87.5301 142.585 87.4794V86.4135C142.585 86.3628 142.605 86.3142 142.641 86.2783C142.677 86.2424 142.725 86.2223 142.776 86.2223H143.496C143.538 86.2227 143.579 86.2368 143.612 86.2626C143.645 86.2883 143.669 86.3242 143.679 86.3647L143.964 87.4306C143.971 87.4584 143.972 87.4875 143.967 87.5158C143.962 87.544 143.95 87.5707 143.933 87.5938C143.915 87.6168 143.893 87.6357 143.868 87.649C143.842 87.6623 143.814 87.6697 143.785 87.6706Z" fill="white"/>
</g>
<path d="M144.798 86.9464H122.284V88.6225H144.798V86.9464Z" fill="#263238"/>
<path opacity="0.5" d="M144.798 86.9464H122.284V88.6225H144.798V86.9464Z" fill="white"/>
<path d="M104.441 99.7532V97.4221C104.382 97.4221 104.325 97.3985 104.283 97.3566C104.241 97.3146 104.217 97.2577 104.217 97.1984C104.217 97.139 104.241 97.0821 104.283 97.0401C104.325 96.9982 104.382 96.9746 104.441 96.9746H107.102V100.205H104.441C104.381 100.205 104.324 100.181 104.281 100.139C104.239 100.096 104.215 100.039 104.215 99.979C104.215 99.9191 104.239 99.8617 104.281 99.8193C104.324 99.777 104.381 99.7532 104.441 99.7532Z" fill="#B90101"/>
<path opacity="0.3" d="M104.441 99.7532V97.4221C104.382 97.4221 104.325 97.3985 104.283 97.3566C104.241 97.3146 104.217 97.2577 104.217 97.1984C104.217 97.139 104.241 97.0821 104.283 97.0401C104.325 96.9982 104.382 96.9746 104.441 96.9746H107.102V100.205H104.441C104.381 100.205 104.324 100.181 104.281 100.139C104.239 100.096 104.215 100.039 104.215 99.979C104.215 99.9191 104.239 99.8617 104.281 99.8193C104.324 99.777 104.381 99.7532 104.441 99.7532Z" fill="white"/>
<path d="M106.495 97.4221H104.429V99.7491H106.495V97.4221Z" fill="#B90101"/>
<path opacity="0.8" d="M106.495 97.4221H104.429V99.7491H106.495V97.4221Z" fill="white"/>
<path d="M106.068 99.9729H113.233C113.725 99.9729 114.123 99.3545 114.123 98.5856C114.123 97.8167 113.717 97.1984 113.233 97.1984H106.068V99.9729Z" fill="#B90101"/>
<path opacity="0.9" d="M106.068 99.9729H113.233C113.725 99.9729 114.123 99.3545 114.123 98.5856C114.123 97.8167 113.717 97.1984 113.233 97.1984H106.068V99.9729Z" fill="white"/>
<path d="M106.068 96.9746C108.416 96.9746 110.763 96.9339 113.107 96.9746C114.734 97.0031 114.799 100.091 113.225 100.197C112.126 100.274 110.999 100.197 109.897 100.197H106.068C106.015 100.189 105.966 100.163 105.93 100.122C105.894 100.081 105.875 100.029 105.875 99.9749C105.875 99.9208 105.894 99.8685 105.93 99.8278C105.966 99.787 106.015 99.7605 106.068 99.7532H112.736C113.253 99.7532 113.619 99.7532 113.818 99.1389C113.989 98.6101 113.936 97.5401 113.233 97.4221C113.153 97.416 113.073 97.416 112.993 97.4221H106.068C106.009 97.4221 105.952 97.3986 105.91 97.3566C105.868 97.3146 105.845 97.2577 105.845 97.1984C105.845 97.139 105.868 97.0821 105.91 97.0402C105.952 96.9982 106.009 96.9746 106.068 96.9746Z" fill="#B90101"/>
<path d="M114.966 103.496V100.575C115.04 100.575 115.112 100.545 115.164 100.493C115.217 100.44 115.246 100.369 115.246 100.294C115.246 100.22 115.217 100.148 115.164 100.096C115.112 100.043 115.04 100.014 114.966 100.014H111.634V104.082H114.966C115.043 104.082 115.118 104.051 115.173 103.996C115.228 103.941 115.259 103.867 115.259 103.789C115.259 103.711 115.228 103.637 115.173 103.582C115.118 103.527 115.043 103.496 114.966 103.496Z" fill="#B90101"/>
<path opacity="0.3" d="M114.966 103.496V100.575C115.04 100.575 115.112 100.545 115.164 100.493C115.217 100.44 115.246 100.369 115.246 100.294C115.246 100.22 115.217 100.148 115.164 100.096C115.112 100.043 115.04 100.014 114.966 100.014H111.634V104.082H114.966C115.043 104.082 115.118 104.051 115.173 103.996C115.228 103.941 115.259 103.867 115.259 103.789C115.259 103.711 115.228 103.637 115.173 103.582C115.118 103.527 115.043 103.496 114.966 103.496Z" fill="white"/>
<path d="M114.965 100.575H112.378V103.492H114.965V100.575Z" fill="#B90101"/>
<path opacity="0.8" d="M114.965 100.575H112.378V103.492H114.965V100.575Z" fill="white"/>
<path d="M112.919 103.773H103.945C103.327 103.773 102.826 102.996 102.826 102.036C102.826 101.075 103.327 100.294 103.945 100.294H112.919V103.773Z" fill="#B90101"/>
<path opacity="0.9" d="M112.919 103.773H103.945C103.327 103.773 102.826 102.996 102.826 102.036C102.826 101.075 103.327 100.294 103.945 100.294H112.919V103.773Z" fill="white"/>
<path d="M112.919 100.014C109.982 100.014 107.036 99.9607 104.099 100.014C102.085 100.05 101.976 103.919 103.953 104.053C105.328 104.147 106.744 104.053 108.123 104.053H112.919C112.987 104.045 113.05 104.012 113.095 103.961C113.141 103.909 113.166 103.843 113.166 103.775C113.166 103.706 113.141 103.64 113.095 103.588C113.05 103.537 112.987 103.504 112.919 103.496H104.563C103.92 103.496 103.456 103.496 103.208 102.723C102.993 102.064 103.062 100.721 103.945 100.575C104.045 100.567 104.145 100.567 104.246 100.575H112.919C112.994 100.575 113.065 100.545 113.118 100.493C113.17 100.44 113.2 100.369 113.2 100.294C113.2 100.22 113.17 100.148 113.118 100.096C113.065 100.043 112.994 100.014 112.919 100.014Z" fill="#B90101"/>
<g opacity="0.3">
<path d="M112.919 100.014C109.982 100.014 107.036 99.9607 104.099 100.014C102.085 100.05 101.976 103.919 103.953 104.053C105.328 104.147 106.744 104.053 108.123 104.053H112.919C112.987 104.045 113.05 104.012 113.095 103.961C113.141 103.909 113.166 103.843 113.166 103.775C113.166 103.706 113.141 103.64 113.095 103.588C113.05 103.537 112.987 103.504 112.919 103.496H104.563C103.92 103.496 103.456 103.496 103.208 102.723C102.993 102.064 103.062 100.721 103.945 100.575C104.045 100.567 104.145 100.567 104.246 100.575H112.919C112.994 100.575 113.065 100.545 113.118 100.493C113.17 100.44 113.2 100.369 113.2 100.294C113.2 100.22 113.17 100.148 113.118 100.096C113.065 100.043 112.994 100.014 112.919 100.014Z" fill="black"/>
</g>
<path d="M113.013 102.446H98.5176V116.97H113.013V102.446Z" fill="#B90101"/>
<path opacity="0.5" d="M113.013 102.446H98.5176V116.97H113.013V102.446Z" fill="white"/>
<path d="M121.914 102.446H113.013V116.97H121.914V102.446Z" fill="#B90101"/>
<path opacity="0.2" d="M121.914 102.446H113.013V116.97H121.914V102.446Z" fill="white"/>
<path d="M110.243 106.531H95.7515L98.5179 102.446H113.013L110.243 106.531Z" fill="#B90101"/>
<path opacity="0.8" d="M110.243 106.531H95.7515L98.5179 102.446H113.013L110.243 106.531Z" fill="white"/>
<path d="M115.637 106.531H124.538L121.914 102.446H113.013L115.637 106.531Z" fill="#B90101"/>
<path opacity="0.7" d="M115.637 106.531H124.538L121.914 102.446H113.013L115.637 106.531Z" fill="white"/>
<path d="M113.989 116.97H89.6489V141.359H113.989V116.97Z" fill="#B90101"/>
<path opacity="0.6" d="M113.989 116.97H89.6489V141.359H113.989V116.97Z" fill="white"/>
<path d="M128.94 116.97H113.989V141.359H128.94V116.97Z" fill="#B90101"/>
<path opacity="0.3" d="M128.94 116.97H113.989V141.359H128.94V116.97Z" fill="white"/>
<path d="M119.97 116.966V126.197L120.356 125.847L121.04 126.274L121.638 125.847L122.407 126.274L123.216 125.847L123.729 126.274L124.327 125.961V116.966H119.97Z" fill="#B90101"/>
<path opacity="0.7" d="M119.97 116.966V126.197L120.356 125.847L121.04 126.274L121.638 125.847L122.407 126.274L123.216 125.847L123.729 126.274L124.327 125.961V116.966H119.97Z" fill="white"/>
<path d="M67.0414 128.578L69.7752 136.922L66.7281 138.256L62.8999 130.95L67.0414 128.578Z" fill="#EBB376"/>
<path opacity="0.2" d="M65.0358 135.026L68.7217 133.708L67.4076 130.12L63.5347 132.158L65.0358 135.026Z" fill="black"/>
<path d="M64.6204 138.696C64.1729 138.952 63.6685 139.127 63.4 138.997C63.3309 138.956 63.2755 138.895 63.2407 138.823C63.206 138.75 63.1934 138.669 63.2047 138.59C63.2077 138.451 63.2629 138.319 63.3593 138.22C63.8597 137.703 65.5032 137.768 65.5765 137.772C65.5979 137.772 65.6188 137.78 65.6357 137.793C65.6526 137.806 65.6647 137.825 65.67 137.845C65.6776 137.865 65.6793 137.886 65.6749 137.906C65.6706 137.926 65.6604 137.945 65.6456 137.959C65.3264 138.235 64.9833 138.481 64.6204 138.696ZM63.6603 138.248C63.6042 138.279 63.5534 138.319 63.5098 138.366C63.477 138.393 63.4511 138.427 63.4341 138.466C63.4171 138.505 63.4096 138.547 63.4122 138.59C63.4122 138.744 63.4569 138.789 63.4976 138.805C63.7905 138.972 64.6977 138.46 65.312 137.992C64.7511 137.964 64.1904 138.051 63.6644 138.248H63.6603Z" fill="#B90101"/>
<path d="M65.6461 137.959C65.6341 137.963 65.6214 137.963 65.6094 137.959C65.0684 137.996 63.7787 137.642 63.6323 137.17C63.5875 137.06 63.5957 136.897 63.8072 136.743C63.8835 136.687 63.9709 136.648 64.0635 136.628C64.156 136.608 64.2518 136.609 64.3442 136.629C65.0033 136.767 65.6623 137.752 65.6949 137.796C65.7038 137.813 65.7084 137.831 65.7084 137.849C65.7084 137.868 65.7038 137.886 65.6949 137.902C65.6916 137.915 65.6855 137.926 65.6771 137.936C65.6686 137.946 65.658 137.954 65.6461 137.959ZM63.9496 136.893L63.9008 136.918C63.7584 137.015 63.7828 137.085 63.7909 137.113C63.9008 137.382 64.7999 137.715 65.3938 137.748C65.1254 137.344 64.7431 137.03 64.2954 136.844C64.1782 136.816 64.0543 136.833 63.9496 136.893Z" fill="#B90101"/>
<path d="M66.126 137.109C68.3228 136.629 69.0877 135.75 69.0877 135.75L69.4945 135.453C69.9179 135.736 70.2814 136.1 70.5644 136.523C71.2249 137.343 71.9412 138.117 72.7084 138.838C73.0054 139.131 72.6799 139.452 72.1877 139.68C72.147 139.7 70.5888 140.799 68.7053 141.889C66.4759 143.175 66.8013 143.11 64.1895 144.68C62.611 145.62 61.3906 143.59 61.9967 143.11C64.7469 140.966 65.1781 139.619 65.6826 137.821C65.8087 137.487 65.7843 137.182 66.126 137.109Z" fill="#263238"/>
<path d="M60.4305 33.7187C60.6665 33.2305 60.1986 33.7797 60.1905 33.5194C60.1905 33.6292 60.4712 33.9262 60.5282 34.0848C60.8292 34.8985 61.1181 35.7121 61.3418 36.5746C62.1026 39.3898 62.6233 42.2701 63.1318 45.1179C64.2669 51.5132 65.166 57.9532 66.0366 64.3932C66.2318 65.8903 66.4244 67.382 66.6142 68.8683C66.7078 69.6819 67.969 69.6819 67.8713 68.8683C67.2692 63.9864 66.602 59.1045 65.8698 54.2226C65.2839 50.2764 64.6493 46.3343 63.917 42.4247C63.4003 39.6949 62.9284 36.8553 61.948 34.2476C61.5615 33.2061 60.2597 31.1394 59.3402 33.0596C58.9944 33.7879 60.0766 34.4266 60.4265 33.6943L60.4305 33.7187Z" fill="#263238"/>
<path d="M39.4952 134.412L38.3642 140.978L34.6621 140.543L35.1666 134.192L39.4952 134.412Z" fill="#EBB376"/>
<path d="M32.8883 140.359C32.4082 140.303 31.9241 140.156 31.7899 139.928C31.7541 139.864 31.74 139.789 31.7495 139.716C31.759 139.643 31.7917 139.575 31.8428 139.521C31.9212 139.423 32.035 139.359 32.1601 139.342C32.8232 139.245 34.0762 140.176 34.1291 140.217C34.1447 140.228 34.1563 140.244 34.1622 140.263C34.1681 140.281 34.1679 140.301 34.1617 140.319C34.1556 140.336 34.1448 140.352 34.1304 140.363C34.116 140.375 34.0986 140.382 34.0803 140.384C33.6831 140.412 33.284 140.404 32.8883 140.359ZM32.3635 139.546C32.3055 139.538 32.2466 139.538 32.1886 139.546C32.1501 139.547 32.1125 139.558 32.0786 139.576C32.0448 139.594 32.0156 139.62 31.9933 139.652C31.9119 139.757 31.9282 139.814 31.9485 139.847C32.0991 140.119 33.0714 140.254 33.7996 140.254C33.3687 139.924 32.8783 139.681 32.3554 139.538L32.3635 139.546Z" fill="#B90101"/>
<path d="M34.0562 140.392C34.0505 140.395 34.0443 140.396 34.0379 140.396C34.0316 140.396 34.0253 140.395 34.0196 140.392C33.5843 140.132 32.7585 139.172 32.8968 138.765C32.8968 138.659 33.0107 138.541 33.267 138.549C33.3587 138.55 33.4492 138.57 33.5331 138.607C33.617 138.644 33.6926 138.698 33.7552 138.765C34.1986 139.229 34.162 140.282 34.162 140.331C34.162 140.347 34.1574 140.363 34.1488 140.377C34.1402 140.39 34.1278 140.401 34.1132 140.408C34.0929 140.41 34.0728 140.404 34.0562 140.392ZM33.2955 138.716H33.2426C33.0758 138.716 33.0554 138.777 33.0473 138.797C32.9903 139.058 33.5192 139.786 33.9627 140.128C33.97 139.685 33.8423 139.251 33.5965 138.883C33.5176 138.797 33.4109 138.743 33.2955 138.728V138.716Z" fill="#B90101"/>
<path d="M34.5157 139.904L38.7223 140.421C38.7995 140.43 38.8712 140.465 38.9258 140.521C38.9804 140.576 39.0148 140.648 39.0233 140.726L39.3651 144.241C39.373 144.315 39.366 144.391 39.3447 144.462C39.3234 144.534 39.2881 144.601 39.2409 144.659C39.1936 144.718 39.1354 144.766 39.0694 144.802C39.0035 144.837 38.9311 144.86 38.8565 144.867H38.7386C37.2252 144.652 35.8908 144.403 33.995 144.176C31.7656 143.903 32.2985 144.241 29.6745 143.956C28.092 143.785 28.0228 141.954 28.7022 141.946C31.8144 141.946 32.2457 141.051 33.5841 140.099C33.8614 139.925 34.1918 139.856 34.5157 139.904Z" fill="#263238"/>
<path opacity="0.2" d="M38.7712 138.614L39.235 135.933L35.0488 135.644L34.8413 138.256L38.7712 138.614Z" fill="black"/>
<path d="M44.4544 62.8189C32.8559 98.0051 34.5645 113.672 34.5442 114.005L34.1699 135.893L40.0485 136.409C40.0485 136.409 44.1412 116.829 43.7547 107.073C43.7059 105.82 50.2151 88.4203 52.3509 79.5922C52.3509 79.5922 56.4923 70.0156 54.5274 63.3884C54.5274 63.4047 45.3332 60.1704 44.4544 62.8189Z" fill="#263238"/>
<path opacity="0.5" d="M48.6812 73.7258C47.6255 80.3882 47.4204 87.1577 48.071 93.8717C48.9863 90.2103 51.5656 84.5555 52.3507 79.6085L48.6812 73.7258Z" fill="black"/>
<path d="M48.0142 68.2825C48.0142 68.2825 49.613 88.2169 51.9929 104.828C53.1768 113.082 62.6883 132.707 62.6883 132.707C62.6883 132.707 63.2782 132.544 66.2317 131.828C69.4863 131.039 67.9851 131.381 67.9851 131.381C67.9851 131.381 67.322 128.252 64.5882 115.47C63.8233 111.89 61.5207 107.928 61.2888 104.543C60.76 96.7887 60.1212 69.7512 59.7022 67.7862C59.2832 65.8212 49.4787 65.0442 48.0142 68.2825Z" fill="#263238"/>
<path d="M33.6002 134.489L33.3765 137.04L40.443 137.642L40.9393 135.116L33.6002 134.489Z" fill="#263238"/>
<path opacity="0.2" d="M33.6002 134.489L33.3765 137.04L40.443 137.642L40.9393 135.116L33.6002 134.489Z" fill="white"/>
<path d="M61.8013 131.963L62.623 134.387L69.2624 132.089L68.7335 129.566L61.8013 131.963Z" fill="#263238"/>
<path opacity="0.2" d="M61.8013 131.963L62.623 134.387L69.2624 132.089L68.7335 129.566L61.8013 131.963Z" fill="white"/>
<path d="M59.5519 64.0882L62.42 39.5079C62.5187 38.7011 62.4468 37.8826 62.2091 37.1053C61.9714 36.328 61.5731 35.6093 61.0401 34.9958C60.507 34.3822 59.851 33.8873 59.1146 33.5433C58.3782 33.1993 57.5778 33.0138 56.7651 32.9987L48.6815 32.8482C47.1514 32.8197 45.672 33.3966 44.565 34.4533C43.458 35.51 42.813 36.961 42.7704 38.4908L42.0991 63.0955C42.0991 63.0955 47.1275 66.5169 59.5519 64.0882Z" fill="#B90101"/>
<path d="M61.9031 67.4079L62.4198 39.5079C62.5185 38.7011 62.4466 37.8826 62.2089 37.1053C61.9712 36.328 61.5729 35.6093 61.0399 34.9958C60.5068 34.3822 59.8509 33.8873 59.1144 33.5433C58.378 33.1993 57.5776 33.0138 56.7649 32.9987L48.6813 32.8482C47.1512 32.8197 45.6718 33.3966 44.5648 34.4533C43.4578 35.51 42.8128 36.961 42.7702 38.4908L41.9321 66.4193C41.9321 66.4193 49.4543 69.8366 61.9031 67.4079Z" fill="#B90101"/>
<path opacity="0.2" d="M42.363 39.4881C42.3342 39.2404 42.3201 38.9911 42.3208 38.7417H44.5766L46.103 39.8067C46.103 39.8067 44.3574 46.1268 42.5359 49.1429L42.363 39.4881Z" fill="black"/>
<path d="M41.6727 61.12L43.261 62.728L43.7314 62.4769C43.8128 62.4331 43.902 62.4069 43.9937 62.3997C44.0854 62.3925 44.1775 62.4045 44.2645 62.435C44.3514 62.4656 44.4313 62.514 44.4992 62.5773C44.5671 62.6405 44.6216 62.7173 44.6594 62.8029C45.3324 64.2398 46.4867 65.3836 47.9136 66.0278C48.0316 66.0816 48.1317 66.1691 48.2019 66.2797C48.2722 66.3903 48.3096 66.5194 48.3096 66.6512C48.3096 66.783 48.2722 66.912 48.2019 67.0226C48.1317 67.1333 48.0316 67.2208 47.9136 67.2746C47.5492 67.4374 47.1642 67.5471 46.7699 67.6006C45.3197 67.7856 44.6119 68.5213 43.507 67.6006C42.4021 66.6798 41.7547 64.64 41.7547 64.64L39.7995 63.1862L41.6727 61.12Z" fill="#EBB376"/>
<path opacity="0.2" d="M62.4196 39.5079C62.4473 39.2771 62.4609 39.0448 62.4602 38.8123H60.2837L58.811 39.8049C58.811 39.8049 60.4953 45.6957 62.2528 48.5069L62.4196 39.5079Z" fill="black"/>
<path d="M51.3949 40.2198C51.3949 40.2946 51.3727 40.3678 51.3311 40.43C51.2895 40.4922 51.2304 40.5407 51.1613 40.5693C51.0922 40.598 51.0161 40.6055 50.9427 40.5909C50.8693 40.5763 50.8019 40.5402 50.749 40.4873C50.6961 40.4344 50.6601 40.367 50.6455 40.2936C50.6309 40.2202 50.6383 40.1441 50.667 40.075C50.6956 40.0059 50.7441 39.9468 50.8063 39.9052C50.8685 39.8636 50.9417 39.8414 51.0165 39.8414C51.1169 39.8414 51.2131 39.8813 51.2841 39.9522C51.355 40.0232 51.3949 40.1194 51.3949 40.2198Z" fill="#B90101"/>
<path d="M51.0163 45.8177C51.0171 45.8937 50.9952 45.9682 50.9535 46.0317C50.9118 46.0952 50.8521 46.1448 50.7821 46.1743C50.712 46.2037 50.6348 46.2116 50.5603 46.197C50.4857 46.1824 50.4172 46.1459 50.3635 46.0922C50.3097 46.0384 50.2732 45.9699 50.2586 45.8954C50.244 45.8208 50.2519 45.7436 50.2814 45.6735C50.3108 45.6035 50.3604 45.5438 50.424 45.5021C50.4875 45.4604 50.562 45.4385 50.6379 45.4394C50.7383 45.4394 50.8345 45.4792 50.9055 45.5502C50.9764 45.6211 51.0163 45.7174 51.0163 45.8177Z" fill="#B90101"/>
<path d="M49.442 16.087C49.442 16.087 46.7244 17.0105 47.8147 19.3131C48.905 21.6158 49.442 16.087 49.442 16.087Z" fill="#263238"/>
<path opacity="0.5" d="M49.442 16.087C49.442 16.087 46.7244 17.0105 47.8147 19.3131C48.905 21.6158 49.442 16.087 49.442 16.087Z" fill="black"/>
<path d="M48.7543 32.9784C48.6852 33.5845 48.7543 34.3412 49.4052 34.5853C50.5525 35.0125 52.6273 34.9555 52.6273 34.9555C53.5244 34.5748 54.3595 34.062 55.1048 33.434C55.1854 33.2808 55.2364 33.1138 55.2554 32.9417C53.7135 31.5179 54.0796 28.3365 54.4661 26.1641L50.3816 29.7726C50.7884 31.3877 50.8901 32.36 48.7543 32.9784Z" fill="#EBB376"/>
<path opacity="0.2" d="M52.8228 27.6205L50.4185 29.7726C50.5287 30.1626 50.605 30.5614 50.6463 30.9646C51.5738 30.8181 53.014 30.0085 53.1971 28.9955C53.1881 28.5133 53.0595 28.0408 52.8228 27.6205Z" fill="black"/>
<path d="M57.1432 22.5433C56.2442 26.0542 55.9228 27.5554 53.7951 29.0281C50.569 31.2534 46.4722 29.3779 46.2851 25.6718C46.1386 22.3358 47.6398 17.1285 51.3867 16.4165C52.212 16.2491 53.0664 16.2952 53.8689 16.5507C54.6714 16.8061 55.3953 17.2623 55.9719 17.8761C56.5486 18.4898 56.9589 19.2407 57.1639 20.0575C57.3689 20.8743 57.3617 21.73 57.1432 22.5433Z" fill="#EBB376"/>
<path d="M52.1056 22.8351C52.1049 23.1056 51.9583 23.3193 51.7796 23.3178C51.6009 23.3162 51.465 23.0992 51.4689 22.8336C51.4727 22.5679 51.6131 22.3445 51.7918 22.3461C51.9705 22.3476 52.0887 22.5691 52.1056 22.8351Z" fill="#263238"/>
<path d="M48.1032 21.633C48.1025 21.9035 47.9559 22.1171 47.7772 22.1156C47.5984 22.1141 47.4626 21.8971 47.4664 21.6314C47.4703 21.3658 47.6106 21.1424 47.7893 21.1439C47.9681 21.1454 48.0863 21.3669 48.1032 21.633Z" fill="#263238"/>
<path d="M48.9455 22.4985C48.5575 23.1014 48.0894 23.6488 47.5542 24.1258C47.6814 24.2612 47.8362 24.3676 48.0082 24.4378C48.1802 24.508 48.3653 24.5404 48.5509 24.5327L48.9455 22.4985Z" fill="#D58745"/>
<path d="M49.9097 25.9688C49.7649 25.965 49.6206 25.9487 49.4785 25.92C49.4672 25.9185 49.4564 25.9147 49.4466 25.909C49.4368 25.9033 49.4282 25.8956 49.4214 25.8865C49.4146 25.8774 49.4096 25.8671 49.4069 25.856C49.4041 25.845 49.4036 25.8336 49.4053 25.8223C49.4119 25.8004 49.4263 25.7817 49.4458 25.7697C49.4653 25.7577 49.4885 25.7533 49.5111 25.7572C49.8685 25.8325 50.2386 25.8231 50.5918 25.7298C50.9449 25.6366 51.2714 25.4621 51.5452 25.2202C51.5525 25.2107 51.5618 25.2028 51.5724 25.197C51.583 25.1913 51.5946 25.1879 51.6066 25.187C51.6187 25.1861 51.6307 25.1878 51.642 25.1919C51.6534 25.196 51.6637 25.2024 51.6724 25.2108C51.681 25.2191 51.6878 25.2292 51.6923 25.2404C51.6968 25.2516 51.6988 25.2636 51.6983 25.2756C51.6979 25.2877 51.6948 25.2995 51.6895 25.3102C51.6841 25.321 51.6765 25.3306 51.6672 25.3382C51.4317 25.556 51.1546 25.724 50.8527 25.8324C50.5507 25.9407 50.23 25.9871 49.9097 25.9688Z" fill="#263238"/>
<path d="M52.9449 21.7785C52.9094 21.788 52.8718 21.786 52.8375 21.7728C52.8031 21.7597 52.7738 21.736 52.7537 21.7053C52.5728 21.4887 52.3488 21.3121 52.096 21.1867C51.8431 21.0613 51.567 20.9899 51.2851 20.9771C51.2438 20.9707 51.2061 20.9498 51.1789 20.9181C51.1517 20.8864 51.1367 20.846 51.1367 20.8042C51.1367 20.7624 51.1517 20.722 51.1789 20.6903C51.2061 20.6586 51.2438 20.6376 51.2851 20.6313C51.6235 20.6458 51.9548 20.7328 52.2566 20.8866C52.5584 21.0403 52.8237 21.2571 53.0344 21.5222C53.0574 21.5602 53.0648 21.6056 53.0549 21.6489C53.0451 21.6922 53.0187 21.7299 52.9815 21.7541C52.9707 21.7642 52.9583 21.7724 52.9449 21.7785Z" fill="#263238"/>
<path d="M47.3021 20.0128C47.2722 20.004 47.245 19.9878 47.223 19.9658C47.201 19.9437 47.1848 19.9166 47.1759 19.8867C47.1646 19.842 47.1709 19.7946 47.1936 19.7544C47.2164 19.7142 47.2538 19.6844 47.298 19.6711C47.5644 19.5905 47.8466 19.5766 48.1197 19.6305C48.3928 19.6844 48.6484 19.8045 48.8643 19.9803C48.8796 19.9954 48.8918 20.0135 48.9002 20.0334C48.9085 20.0533 48.9128 20.0746 48.9128 20.0962C48.9128 20.1178 48.9085 20.1392 48.9002 20.1591C48.8918 20.179 48.8796 20.197 48.8643 20.2122C48.8323 20.2437 48.7892 20.2614 48.7443 20.2614C48.6993 20.2614 48.6562 20.2437 48.6242 20.2122C48.4516 20.0837 48.2516 19.997 48.0398 19.9588C47.8281 19.9207 47.6103 19.9322 47.4038 19.9925C47.372 20.0074 47.3371 20.0144 47.3021 20.0128Z" fill="#263238"/>
<path d="M48.8442 32.6082C48.8832 32.5948 48.9248 32.5908 48.9656 32.5964C49.0064 32.6019 49.0454 32.617 49.0794 32.6403C49.1134 32.6636 49.1415 32.6946 49.1614 32.7307C49.1813 32.7668 49.1925 32.807 49.194 32.8482C49.194 33.4706 49.5195 34.6789 51.6838 34.6789C53.9498 34.6789 54.8041 33.3527 55.0727 32.7587C55.0879 32.725 55.1102 32.6949 55.138 32.6705C55.1659 32.646 55.1986 32.6278 55.234 32.6171C55.2694 32.6063 55.3067 32.6032 55.3435 32.608C55.3802 32.6127 55.4155 32.6253 55.4469 32.6448L56.0328 33.0028C56.0328 33.0028 55.8497 35.4193 54.0434 36.3876C52.5585 37.2012 51.3258 35.1671 51.3258 35.1671C51.3258 35.1671 49.9751 37.4168 48.7547 36.0906C47.5342 34.7644 48.1363 32.836 48.1363 32.836L48.8442 32.6082Z" fill="#B90101"/>
<path opacity="0.6" d="M48.8442 32.6082C48.8832 32.5948 48.9248 32.5908 48.9656 32.5964C49.0064 32.6019 49.0454 32.617 49.0794 32.6403C49.1134 32.6636 49.1415 32.6946 49.1614 32.7307C49.1813 32.7668 49.1925 32.807 49.194 32.8482C49.194 33.4706 49.5195 34.6789 51.6838 34.6789C53.9498 34.6789 54.8041 33.3527 55.0727 32.7587C55.0879 32.725 55.1102 32.6949 55.138 32.6705C55.1659 32.646 55.1986 32.6278 55.234 32.6171C55.2694 32.6063 55.3067 32.6032 55.3435 32.608C55.3802 32.6127 55.4155 32.6253 55.4469 32.6448L56.0328 33.0028C56.0328 33.0028 55.8497 35.4193 54.0434 36.3876C52.5585 37.2012 51.3258 35.1671 51.3258 35.1671C51.3258 35.1671 49.9751 37.4168 48.7547 36.0906C47.5342 34.7644 48.1363 32.836 48.1363 32.836L48.8442 32.6082Z" fill="white"/>
<path d="M55.6706 25.1795C55.6706 25.1795 54.7349 24.0648 55.2434 21.7825C55.752 19.5003 50.8131 20.9079 49.8652 18.3652C49.8652 18.3652 51.0247 19.008 51.9807 18.707C51.9807 18.707 47.2453 17.8689 49.1045 14C49.1045 14 50.2965 15.2896 53.0588 15.2896C55.8211 15.2896 58.4777 17.7957 57.9854 19.9396C57.9976 19.9396 59.1734 23.2268 55.6706 25.1795Z" fill="#263238"/>
<path d="M57.5868 25.4766C57.2446 26.076 56.6783 26.515 56.0124 26.697C55.1296 26.9208 54.7024 26.1234 54.9628 25.2976C55.2069 24.5531 55.9514 23.5401 56.8342 23.6703C57.1392 23.7248 57.4102 23.898 57.5879 24.1519C57.7655 24.4058 57.8354 24.7197 57.7821 25.025C57.7483 25.1872 57.6819 25.3409 57.5868 25.4766Z" fill="#EBB376"/>
<path d="M62.2857 59.8572C62.2857 59.8572 61.8789 60.976 64.6168 62.4934C64.6168 62.4934 71.6508 58.3275 71.3335 51.5092C71.0161 44.6908 66.0448 33.1533 56.7651 33.019C56.7651 33.019 56.1833 36.5503 60.2963 41.7169C63.1441 45.3092 65.699 48.3197 65.9268 51.9608C66.1546 55.6018 62.2857 59.8572 62.2857 59.8572Z" fill="#B90101"/>
<path d="M66.1015 65.7196H59.9097C59.0222 65.7196 58.3027 66.4391 58.3027 67.3266V80.1212C58.3027 81.0087 59.0222 81.7281 59.9097 81.7281H66.1015C66.989 81.7281 67.7085 81.0087 67.7085 80.1212V67.3266C67.7085 66.4391 66.989 65.7196 66.1015 65.7196Z" fill="#B90101"/>
<path d="M61.5207 67.3265C61.4625 66.9414 61.2681 66.5901 60.9729 66.3361C60.6776 66.0822 60.3011 65.9426 59.9117 65.9426C59.5223 65.9426 59.1458 66.0822 58.8506 66.3361C58.5554 66.5901 58.361 66.9414 58.3027 67.3265V80.1211C58.361 80.5061 58.5554 80.8575 58.8506 81.1114C59.1458 81.3653 59.5223 81.505 59.9117 81.505C60.3011 81.505 60.6776 81.3653 60.9729 81.1114C61.2681 80.8575 61.4625 80.5061 61.5207 80.1211V67.3265Z" fill="#B90101"/>
<path opacity="0.2" d="M61.5207 67.3265C61.4625 66.9414 61.2681 66.5901 60.9729 66.3361C60.6776 66.0822 60.3011 65.9426 59.9117 65.9426C59.5223 65.9426 59.1458 66.0822 58.8506 66.3361C58.5554 66.5901 58.361 66.9414 58.3027 67.3265V80.1211C58.361 80.5061 58.5554 80.8575 58.8506 81.1114C59.1458 81.3653 59.5223 81.505 59.9117 81.505C60.3011 81.505 60.6776 81.3653 60.9729 81.1114C61.2681 80.8575 61.4625 80.5061 61.5207 80.1211V67.3265Z" fill="black"/>
<path d="M66.1015 65.7196H59.9097C60.3413 65.7196 60.7552 65.891 61.0603 66.1962C61.3655 66.5014 61.537 66.9153 61.537 67.3469V71.4151C61.537 71.8575 61.7127 72.2818 62.0255 72.5946C62.3383 72.9074 62.7626 73.0831 63.2049 73.0831H66.0527C66.4955 73.0831 66.9201 72.9075 67.2336 72.5948C67.547 72.2821 67.7237 71.8579 67.7248 71.4151V67.3469C67.7248 66.916 67.5539 66.5027 67.2496 66.1977C66.9453 65.8926 66.5324 65.7207 66.1015 65.7196Z" fill="#B90101"/>
<path opacity="0.4" d="M66.1015 65.7196H59.9097C60.3413 65.7196 60.7552 65.891 61.0603 66.1962C61.3655 66.5014 61.537 66.9153 61.537 67.3469V71.4151C61.537 71.8575 61.7127 72.2818 62.0255 72.5946C62.3383 72.9074 62.7626 73.0831 63.2049 73.0831H66.0527C66.4955 73.0831 66.9201 72.9075 67.2336 72.5948C67.547 72.2821 67.7237 71.8579 67.7248 71.4151V67.3469C67.7248 66.916 67.5539 66.5027 67.2496 66.1977C66.9453 65.8926 66.5324 65.7207 66.1015 65.7196Z" fill="black"/>
<path d="M63.1884 73.0586C63.1356 73.0626 63.0826 73.0626 63.0298 73.0586V76.956C63.0298 77.4767 63.3268 77.8998 63.6888 77.8998C64.0509 77.8998 64.3438 77.493 64.3438 76.956V73.0749L63.1884 73.0586Z" fill="#263238"/>
<path d="M66.0365 73.0587H65.5728V76.9398C65.5728 77.4605 65.8657 77.8836 66.2318 77.8836C66.598 77.8836 66.8868 77.4768 66.8868 76.9398V72.8227C66.6295 72.9759 66.3359 73.0574 66.0365 73.0587Z" fill="#263238"/>
<path d="M64.1079 70.1417H63.6604C63.2983 70.1417 63.0054 70.5486 63.0054 71.0856C63.0054 71.6226 63.2983 72.0294 63.6604 72.0294H64.1079C64.4699 72.0294 64.7629 71.6226 64.7629 71.0856C64.7629 70.5486 64.4699 70.1417 64.1079 70.1417Z" fill="#263238"/>
<path d="M64.7633 71.0693C64.7633 71.59 64.4704 72.0131 64.1083 72.0131C63.7462 72.0131 63.4492 71.6063 63.4492 71.0693C63.4492 70.5322 63.7462 70.1254 64.1083 70.1254C64.4704 70.1254 64.7633 70.5485 64.7633 71.0693Z" fill="#B90101"/>
<path d="M66.8867 70.1417H66.4392C66.0771 70.1417 65.7842 70.5486 65.7842 71.0856C65.7842 71.6226 66.0771 72.0294 66.4392 72.0294H66.8867C67.2487 72.0294 67.5417 71.6226 67.5417 71.0856C67.5417 70.5486 67.2487 70.1417 66.8867 70.1417Z" fill="#263238"/>
<path d="M67.5414 71.0693C67.5414 71.59 67.2485 72.0131 66.8864 72.0131C66.5244 72.0131 66.2314 71.6063 66.2314 71.0693C66.2314 70.5322 66.5244 70.1254 66.8864 70.1254C67.2485 70.1254 67.5414 70.5485 67.5414 71.0693Z" fill="#B90101"/>
<path d="M60.5526 69.3891C60.1512 64.1383 59.8556 58.8768 59.6658 53.6043C59.5234 49.6581 59.4298 45.6997 59.5274 41.7495C59.5966 39.1295 59.4786 36.0336 60.516 33.5682C60.8293 32.8238 59.6129 32.4983 59.2956 33.2346C58.311 35.5657 58.368 38.4827 58.2866 40.9643C58.1483 45.0325 58.2419 49.1008 58.3843 53.169C58.5768 58.5933 58.8779 64.0054 59.2874 69.4053C59.3484 70.219 60.6096 70.219 60.5445 69.4053L60.5526 69.3891Z" fill="#263238"/>
<g opacity="0.3">
<path d="M60.5526 69.3891C60.1512 64.1383 59.8556 58.8768 59.6658 53.6043C59.5234 49.6581 59.4298 45.6997 59.5274 41.7495C59.5966 39.1295 59.4786 36.0336 60.516 33.5682C60.8293 32.8238 59.6129 32.4983 59.2956 33.2346C58.311 35.5657 58.368 38.4827 58.2866 40.9643C58.1483 45.0325 58.2419 49.1008 58.3843 53.169C58.5768 58.5933 58.8779 64.0054 59.2874 69.4053C59.3484 70.219 60.6096 70.219 60.5445 69.4053L60.5526 69.3891Z" fill="white"/>
</g>
<path d="M62.8633 60.0199L61.3662 61.5048L60.9227 61.2729C60.8461 61.2325 60.7619 61.2082 60.6755 61.2016C60.5891 61.1949 60.5022 61.2061 60.4203 61.2343C60.3383 61.2625 60.263 61.3072 60.199 61.3656C60.135 61.424 60.0836 61.4949 60.0481 61.574C59.4136 62.9008 58.3256 63.957 56.9806 64.5519C56.8695 64.6016 56.7751 64.6824 56.7089 64.7846C56.6427 64.8867 56.6074 65.0058 56.6074 65.1276C56.6074 65.2493 56.6427 65.3684 56.7089 65.4706C56.7751 65.5727 56.8695 65.6535 56.9806 65.7032C57.3241 65.8536 57.687 65.9549 58.0587 66.0043C59.4256 66.1751 60.0928 66.8545 61.1343 66.0043C62.1757 65.154 62.786 63.2704 62.786 63.2704L64.6289 61.9279L62.8633 60.0199Z" fill="#EBB376"/>
<path d="M61.8257 59.9711C62.0739 60.6191 62.4557 61.2076 62.9464 61.6982C63.437 62.1889 64.0255 62.5707 64.6735 62.8189L65.841 62.2087C65.841 62.2087 63.6279 60.7889 62.5864 58.9053L61.8257 59.9711Z" fill="#B90101"/>
<path opacity="0.6" d="M61.8257 59.9711C62.0739 60.6191 62.4557 61.2076 62.9464 61.6982C63.437 62.1889 64.0255 62.5707 64.6735 62.8189L65.841 62.2087C65.841 62.2087 63.6279 60.7889 62.5864 58.9053L61.8257 59.9711Z" fill="white"/>
<path d="M42.4427 61.1658C42.4427 61.1658 42.8728 62.3502 39.978 63.9566C39.978 63.9566 32.5409 59.5464 32.8764 52.328C33.2119 45.1096 38.4682 32.8952 48.2797 32.7531C48.2797 32.7531 48.8948 36.4915 44.5461 41.9613C41.5351 45.7643 38.8338 48.9514 38.5929 52.8061C38.3521 56.6607 42.4427 61.1658 42.4427 61.1658Z" fill="#B90101"/>
<path d="M42.9512 61.2903C42.6784 61.9687 42.2588 62.5848 41.7196 63.0985C41.1804 63.6122 40.5337 64.012 39.8217 64.2718L38.5386 63.6329C38.5386 63.6329 40.9706 62.1464 42.1151 60.1744L42.9512 61.2903Z" fill="#B90101"/>
<path opacity="0.6" d="M42.9512 61.2903C42.6784 61.9687 42.2588 62.5848 41.7196 63.0985C41.1804 63.6122 40.5337 64.012 39.8217 64.2718L38.5386 63.6329C38.5386 63.6329 40.9706 62.1464 42.1151 60.1744L42.9512 61.2903Z" fill="white"/>
</svg>
