<svg width="190" height="175" viewBox="0 0 190 175" fill="none" xmlns="http://www.w3.org/2000/svg">
<path d="M28.3787 161.847C65.1735 179.382 124.827 179.387 161.622 161.847C198.416 144.306 198.411 115.879 161.622 98.3436C124.832 80.8086 65.1735 80.8086 28.3787 98.3436C-8.41603 115.879 -8.41068 144.312 28.3787 161.847Z" fill="#F5F5F5"/>
<path d="M161.493 148.888C168.27 148.888 173.764 146.27 173.764 143.041C173.764 139.812 168.27 137.194 161.493 137.194C154.717 137.194 149.223 139.812 149.223 143.041C149.223 146.27 154.717 148.888 161.493 148.888Z" fill="#EBEBEB"/>
<path d="M25.5859 143.879L29.927 141.375C32.3507 139.397 34.1955 136.801 35.2665 133.862C36.6067 130.167 36.4199 127.359 35.4587 125.949C34.2787 124.214 31.2192 124.518 31.0963 128.17C30.84 135.368 28.7416 140.36 25.5859 143.879Z" fill="#BA0001"/>
<path opacity="0.2" d="M25.5859 143.879L29.927 141.375C32.3507 139.397 34.1955 136.801 35.2665 133.862C36.6067 130.167 36.4199 127.359 35.4587 125.949C34.2787 124.214 31.2192 124.518 31.0963 128.17C30.84 135.368 28.7416 140.36 25.5859 143.879Z" fill="black"/>
<path d="M25.586 144.146C25.5294 144.146 25.4746 144.127 25.4293 144.093C25.384 144.059 25.3507 144.012 25.3341 143.958C25.3174 143.904 25.3184 143.846 25.3368 143.792C25.3552 143.739 25.3901 143.693 25.4365 143.66C35.4748 136.719 33.5312 127.038 33.5098 126.942C33.5025 126.907 33.5021 126.871 33.5087 126.836C33.5153 126.801 33.5288 126.767 33.5484 126.737C33.568 126.707 33.5933 126.681 33.6229 126.661C33.6524 126.641 33.6857 126.627 33.7208 126.619C33.7558 126.612 33.792 126.611 33.8272 126.618C33.8624 126.625 33.896 126.638 33.926 126.658C33.956 126.677 33.9818 126.703 34.002 126.732C34.0222 126.762 34.0364 126.795 34.0438 126.83C34.0438 126.932 36.0942 136.943 25.7568 144.098C25.7067 144.132 25.6466 144.149 25.586 144.146Z" fill="white"/>
<path d="M16.8879 148.904C16.8879 148.904 15.3768 147.676 15.7399 146.01C16.103 144.344 17.0801 143.148 15.4088 141.001C13.7375 138.855 13.273 135.993 15.27 134.444C16.7918 133.243 19.1679 134.941 20.0222 131.774C20.6522 129.457 20.4387 124.326 23.3914 122.617C26.3442 120.908 28.197 123.482 27.7325 126.964C27.3267 130.076 26.75 133.072 27.1985 133.905C28.0635 135.507 29.5426 135.288 29.4732 138.214C29.4144 140.937 26.8354 143.19 26.8354 143.19L16.8879 148.904Z" fill="#BA0001"/>
<path d="M21.8481 146.293C21.7828 146.292 21.7199 146.268 21.6709 146.225C21.6219 146.182 21.5901 146.122 21.5811 146.058C20.8175 139.73 22.649 128.806 24.1441 125.559C24.1567 125.523 24.1768 125.49 24.2032 125.463C24.2296 125.435 24.2615 125.414 24.2969 125.399C24.3324 125.385 24.3704 125.379 24.4085 125.381C24.4466 125.382 24.4839 125.392 24.5178 125.41C24.5497 125.424 24.5784 125.445 24.6022 125.47C24.6259 125.496 24.6444 125.526 24.6563 125.559C24.6682 125.592 24.6735 125.627 24.6717 125.662C24.6699 125.696 24.6612 125.731 24.646 125.762C23.1669 128.966 21.3995 139.923 22.1311 145.972C22.1386 146.042 22.1181 146.113 22.0741 146.168C22.0301 146.223 21.9661 146.258 21.8961 146.266L21.8481 146.293Z" fill="white"/>
<path d="M21.7039 141.364C21.6631 141.366 21.6225 141.356 21.5865 141.337C19.7339 140.435 18.5593 137.215 18.5113 137.066C18.4982 137.033 18.4919 136.997 18.4928 136.962C18.4936 136.926 18.5016 136.891 18.5163 136.858C18.531 136.826 18.5521 136.796 18.5783 136.772C18.6045 136.748 18.6353 136.729 18.6688 136.717C18.7024 136.705 18.738 136.7 18.7737 136.701C18.8093 136.703 18.8442 136.712 18.8763 136.728C18.9084 136.744 18.9371 136.765 18.9606 136.792C18.9841 136.819 19.0019 136.85 19.0131 136.884C19.0131 136.916 20.161 140.034 21.8214 140.841C21.8759 140.867 21.9197 140.911 21.9459 140.966C21.972 141.02 21.9788 141.082 21.9651 141.141C21.9515 141.2 21.9182 141.253 21.8707 141.29C21.8233 141.328 21.7645 141.348 21.7039 141.348V141.364Z" fill="white"/>
<path d="M21.6721 143.499C21.6186 143.499 21.5664 143.483 21.5225 143.453C21.4785 143.422 21.445 143.379 21.4265 143.329C21.3999 143.263 21.4002 143.19 21.4272 143.125C21.4542 143.06 21.5057 143.009 21.5706 142.982C24.6886 141.732 26.6319 138.022 26.6533 137.979C26.6859 137.916 26.7421 137.868 26.8097 137.847C26.8773 137.825 26.9507 137.832 27.0137 137.864C27.0767 137.897 27.1242 137.953 27.1457 138.021C27.1672 138.088 27.161 138.162 27.1285 138.225C27.043 138.385 25.073 142.154 21.7895 143.478C21.753 143.495 21.7124 143.503 21.6721 143.499Z" fill="white"/>
<path d="M130.668 114.773C130.668 114.773 128.335 110.993 128.105 106.887C127.876 102.781 128.778 101.072 130.017 100.581C131.255 100.09 131.352 101.601 131.987 102.492C132.622 103.384 133.92 102.877 134.4 100.095C134.881 97.3131 136.632 92.6197 140.274 91.7066C144.279 90.7135 142.132 95.4122 141.123 97.2437C140.114 99.0752 139.334 101.574 139.996 102.252C140.658 102.93 141.689 101.676 142.666 102.84C143.857 104.244 140.156 109.3 138.031 110.523L130.668 114.773Z" fill="#BA0001"/>
<path d="M133.866 113.188C133.831 113.186 133.797 113.178 133.765 113.163C133.733 113.148 133.704 113.128 133.681 113.102C133.657 113.076 133.638 113.046 133.626 113.013C133.614 112.98 133.609 112.945 133.61 112.91C133.972 106.305 136.031 99.9045 139.59 94.3283C139.611 94.2992 139.636 94.2746 139.666 94.2558C139.696 94.237 139.73 94.2245 139.765 94.219C139.8 94.2135 139.835 94.2151 139.87 94.2238C139.904 94.2325 139.936 94.2481 139.964 94.2695C140.02 94.3111 140.058 94.3729 140.069 94.4418C140.08 94.5106 140.063 94.581 140.023 94.638C136.528 100.133 134.505 106.434 134.149 112.937C134.147 112.972 134.138 113.006 134.123 113.038C134.108 113.069 134.086 113.097 134.06 113.121C134.034 113.144 134.003 113.162 133.97 113.173C133.937 113.185 133.901 113.19 133.866 113.188Z" fill="white"/>
<path d="M134.171 110.031C134.126 110.031 134.082 110.02 134.043 109.999C132.548 109.172 131.72 106.716 131.688 106.615C131.676 106.581 131.671 106.546 131.673 106.511C131.675 106.475 131.684 106.441 131.7 106.409C131.715 106.377 131.736 106.349 131.763 106.326C131.789 106.302 131.82 106.284 131.854 106.273C131.921 106.251 131.994 106.257 132.057 106.289C132.12 106.321 132.168 106.376 132.19 106.444C132.19 106.444 132.991 108.809 134.326 109.53C134.386 109.565 134.43 109.623 134.449 109.691C134.468 109.758 134.46 109.831 134.427 109.893C134.403 109.939 134.366 109.976 134.32 110.001C134.274 110.026 134.222 110.036 134.171 110.031Z" fill="white"/>
<path d="M134.433 108.414C134.374 108.413 134.316 108.393 134.27 108.356C134.223 108.319 134.191 108.268 134.176 108.211C134.168 108.177 134.166 108.142 134.171 108.108C134.176 108.073 134.187 108.04 134.205 108.01C134.223 107.98 134.247 107.954 134.275 107.934C134.303 107.913 134.335 107.898 134.369 107.89C138.223 106.913 139.558 104.895 139.569 104.874C139.588 104.844 139.612 104.818 139.641 104.798C139.67 104.778 139.703 104.763 139.737 104.756C139.772 104.748 139.807 104.747 139.842 104.753C139.877 104.759 139.91 104.772 139.94 104.791C139.97 104.81 139.995 104.835 140.016 104.864C140.036 104.892 140.05 104.925 140.058 104.96C140.066 104.994 140.067 105.03 140.06 105.064C140.054 105.099 140.041 105.132 140.023 105.162C139.964 105.253 138.576 107.372 134.502 108.408L134.433 108.414Z" fill="white"/>
<path d="M72.5737 106.476C72.5737 106.476 67.4531 105.226 67.1861 95.6365C66.9031 85.2885 68.4409 73.2104 62.3805 72.2333C56.3202 71.2562 52.9563 78.6407 53.031 87.2641C53.1004 94.8142 56.144 111.207 72.5524 114.421L72.5737 106.476Z" fill="#BA0001"/>
<path opacity="0.2" d="M72.5737 106.476C72.5737 106.476 67.4531 105.226 67.1861 95.6365C66.9031 85.2885 68.4409 73.2104 62.3805 72.2333C56.3202 71.2562 52.9563 78.6407 53.031 87.2641C53.1004 94.8142 56.144 111.207 72.5524 114.421L72.5737 106.476Z" fill="black"/>
<path d="M72.5739 113.439H72.5258C68.8362 112.766 65.83 110.731 63.5928 107.399C56.9611 97.5053 59.0488 79.0305 59.7376 75.8055C59.753 75.7368 59.7944 75.6767 59.8532 75.6379C59.9119 75.599 59.9834 75.5845 60.0527 75.5972C60.1218 75.6138 60.1819 75.6563 60.2206 75.7159C60.2594 75.7755 60.2738 75.8477 60.2609 75.9176C59.5828 79.1213 57.5057 97.3612 64.0359 107.1C64.9865 108.611 66.2406 109.907 67.7186 110.907C69.1967 111.907 70.8664 112.589 72.6219 112.91C72.6568 112.916 72.69 112.93 72.7197 112.949C72.7493 112.968 72.7748 112.993 72.7947 113.023C72.8146 113.052 72.8284 113.085 72.8354 113.12C72.8424 113.154 72.8425 113.19 72.8355 113.225C72.8242 113.286 72.7917 113.34 72.7438 113.38C72.6959 113.419 72.6357 113.44 72.5739 113.439Z" fill="white"/>
<path d="M72.5738 138.048C67.2823 138.764 58.691 138.753 53.7306 134.845C48.7701 130.936 49.806 127.572 51.7122 126.168C53.6184 124.764 55.2737 123.162 51.9952 120.043C48.7167 116.925 43.452 111.917 41.7433 104.404C40.0346 96.8913 40.8783 92.1925 44.2315 90.628C47.4833 89.1115 48.343 91.525 50.3346 96.5015C52.3263 101.478 56.8061 97.2116 60.6399 98.7654C64.4737 100.319 64.3189 103.395 64.5592 106.038C64.7994 108.681 66.0649 109.412 68.2381 109.412C70.4113 109.412 72.5738 110.662 72.5738 113.15V138.048Z" fill="#BA0001"/>
<path d="M72.5738 129.324C72.5509 129.329 72.5272 129.329 72.5043 129.324C72.2747 129.26 66.8017 127.668 58.8298 120.348C50.3399 112.552 46.3353 100.859 46.2926 100.741C46.2721 100.674 46.2784 100.601 46.3103 100.539C46.3421 100.476 46.397 100.428 46.4634 100.405C46.53 100.383 46.6026 100.387 46.6656 100.418C46.7285 100.449 46.7767 100.504 46.7998 100.57C46.8372 100.688 50.8045 112.253 59.1929 119.953C67.0527 127.177 72.5898 128.795 72.6485 128.811C72.6822 128.821 72.7136 128.837 72.7409 128.859C72.7682 128.881 72.791 128.908 72.8078 128.939C72.8247 128.97 72.8353 129.003 72.8392 129.038C72.843 129.073 72.8399 129.108 72.8301 129.142C72.8127 129.196 72.7784 129.243 72.7322 129.276C72.686 129.308 72.6304 129.325 72.5738 129.324Z" fill="white"/>
<path d="M61.0563 122.206C61.0026 122.207 60.95 122.191 60.906 122.16C60.8619 122.129 60.8286 122.086 60.8107 122.035C59.0967 117.635 58.7069 108.222 58.6749 107.821C58.6734 107.751 58.6992 107.683 58.747 107.631C58.7948 107.579 58.8608 107.548 58.9312 107.544C59.0009 107.545 59.0678 107.571 59.119 107.619C59.1703 107.666 59.2022 107.731 59.2088 107.8C59.2088 107.896 59.6093 117.523 61.2912 121.843C61.3041 121.876 61.3103 121.911 61.3095 121.946C61.3086 121.982 61.3008 122.017 61.2864 122.049C61.272 122.081 61.2513 122.11 61.2255 122.134C61.1998 122.159 61.1695 122.178 61.1364 122.19C61.1106 122.199 61.0836 122.205 61.0563 122.206Z" fill="white"/>
<path d="M61.0136 128.533C60.5214 128.537 60.0294 128.512 59.5401 128.458C59.505 128.454 59.4711 128.443 59.4403 128.426C59.4096 128.408 59.3825 128.385 59.3607 128.357C59.3389 128.33 59.3227 128.298 59.3132 128.264C59.3037 128.23 59.3009 128.194 59.3051 128.159C59.3093 128.124 59.3204 128.09 59.3377 128.06C59.355 128.029 59.3782 128.002 59.406 127.98C59.4337 127.958 59.4655 127.942 59.4995 127.932C59.5335 127.923 59.5691 127.92 59.6041 127.924C59.6522 127.924 64.6227 128.49 66.9024 126.168C66.9262 126.14 66.9555 126.117 66.9885 126.101C67.0215 126.084 67.0575 126.075 67.0942 126.074C67.131 126.072 67.1677 126.078 67.202 126.091C67.2363 126.104 67.2676 126.124 67.2938 126.15C67.32 126.176 67.3405 126.207 67.3542 126.241C67.3679 126.275 67.3743 126.312 67.3732 126.349C67.372 126.385 67.3633 126.421 67.3475 126.455C67.3317 126.488 67.3093 126.518 67.2815 126.542C65.6318 128.245 62.7541 128.533 61.0136 128.533Z" fill="white"/>
<path d="M57.1695 27.4239L56.5928 24.0973L53.624 26.0516C53.3528 25.5177 52.9683 25.0494 52.4974 24.6793L53.9177 20.8349L51.2479 20.2422L49.2937 23.9799C48.5866 24.0991 47.9011 24.3223 47.2593 24.642L46.4103 21.8227L43.2386 24.3163L43.4469 27.6268C42.801 28.3503 42.2152 29.1253 41.6955 29.9441L39.0791 29.8106L37.2423 33.9274L39.4903 34.8885C39.2556 35.7401 39.1071 36.613 39.0471 37.4942L36.1904 40.1213L36.7618 43.4531L39.7359 41.4989C40.0056 42.0323 40.3904 42.4992 40.8625 42.8658L39.4689 46.7156L42.1387 47.303L44.9366 44.5798C45.5827 44.4783 45.4225 43.2609 46.1273 42.9139L46.9763 45.7225L50.1426 43.2342L50.0625 41.9314C50.7033 41.2159 53.1274 39.6407 53.6507 38.8184L54.3075 37.7505L56.1443 33.6337L55.29 32.0853L54.3395 30.0669L57.1695 27.4239ZM47.4782 38.3753C45.0434 40.2868 44.2745 40.7086 43.8633 38.151C43.4522 35.5934 44.8458 31.7062 47.2807 29.7893C49.7155 27.8724 50.6446 27.7389 51.0824 30.2912C51.5202 32.8435 49.9184 36.4851 47.4782 38.3753Z" fill="#E0E0E0"/>
<path d="M51.269 20.2422L54.734 22.2389L52.7799 25.9655L49.3149 23.9688L51.269 20.2422Z" fill="#F5F5F5"/>
<path d="M60.0574 26.0941L57.089 28.0482L53.624 26.0514L56.5925 24.0974L60.0574 26.0941Z" fill="#F5F5F5"/>
<path d="M59.5823 35.6144L57.3346 34.6587L53.8696 32.662L56.1173 33.6177L59.5823 35.6144Z" fill="#E0E0E0"/>
<path d="M39.4634 46.7151L42.9283 48.7066L44.3485 44.8625L40.8835 42.8658L39.4634 46.7151Z" fill="#E0E0E0"/>
<path d="M50.4091 47.7189L46.9495 45.7222L46.1006 42.9139L49.5656 44.9106L50.4091 47.7189Z" fill="#E0E0E0"/>
<path d="M60.6296 29.4209L60.0583 26.0943L57.0895 28.0486C56.8162 27.5144 56.43 27.0462 55.9575 26.6764L57.3778 22.8319L54.7347 22.2392L52.7751 25.9769C52.0681 26.0962 51.3826 26.3193 50.7408 26.639L49.8971 23.8304L46.7254 26.3239L46.9337 29.6345C46.2871 30.3631 45.7013 31.1435 45.1823 31.9678L42.5606 31.8343L40.7238 35.9511L42.9717 36.9122C42.7392 37.766 42.5907 38.6406 42.5286 39.5233L39.6772 42.113L40.2486 45.4448L43.2174 43.4906C43.4907 44.0232 43.877 44.4897 44.3493 44.8575L42.929 48.7019L45.5988 49.2946L47.5531 45.557C48.2628 45.439 48.9506 45.214 49.5928 44.8895L50.4364 47.6981L53.6081 45.2099L53.3999 41.8994C54.0457 41.1759 54.6315 40.4008 55.1512 39.582L57.7729 39.7102L59.6097 35.5934L57.3298 34.6376C57.5661 33.7844 57.7164 32.9097 57.7783 32.0266L60.6296 29.4209ZM50.949 40.3936C48.5195 42.3052 46.1915 41.7872 45.7483 39.2349C45.3051 36.6826 46.923 33.0571 49.3578 31.1455C51.7927 29.234 54.1154 29.7573 54.5585 32.3096C55.0017 34.8619 53.3838 38.4821 50.949 40.3936Z" fill="#EBEBEB"/>
<path d="M49.896 23.8195L46.4311 21.8227L43.2598 24.316L46.7247 26.3127L49.896 23.8195Z" fill="#F5F5F5"/>
<path d="M43.2598 24.3163L43.468 27.6264L46.9329 29.6232L46.7247 26.313L43.2598 24.3163Z" fill="#E0E0E0"/>
<path d="M45.1816 31.9409L41.7167 29.9441L39.1006 29.816L42.5602 31.8127L45.1816 31.9409Z" fill="#F5F5F5"/>
<path d="M39.1003 29.816L37.2637 33.927L40.7233 35.9237L42.5599 31.8127L39.1003 29.816Z" fill="#E0E0E0"/>
<path d="M42.5279 39.491L39.0682 37.4942L36.2119 40.121L39.6715 42.1177L42.5279 39.491Z" fill="#F5F5F5"/>
<path d="M40.2482 45.4495L36.7832 43.4528L36.2119 40.1213L39.6715 42.118L40.2482 45.4495Z" fill="#E0E0E0"/>
<path d="M54.7345 22.2389L51.2695 20.2422L53.9176 20.8348L57.3773 22.8316L54.7345 22.2389Z" fill="#F5F5F5"/>
<path d="M41.6528 12.3237V7.35255L37.6962 9.13595C37.4866 8.29254 37.1247 7.49453 36.6282 6.78122L39.1218 1.75671L36.0783 0L32.9707 4.6721C32.1046 4.59644 31.2321 4.68152 30.397 4.92306L29.9592 0.60337L25.6555 3.09159L25.223 7.89718C24.2864 8.72711 23.4251 9.6384 22.6493 10.6203L19.5417 9.55243L16.4982 14.8279L18.9864 16.9637C18.5267 18.1264 18.1693 19.327 17.9185 20.5519L13.9619 23.3338V28.3102L17.9185 26.5268C18.1281 27.3702 18.49 28.1683 18.9864 28.8816L16.5089 33.9114L19.5524 35.6681L22.66 30.996C23.526 31.0714 24.3985 30.9864 25.2337 30.7451L25.6662 35.0648L29.9699 32.5765L30.4077 27.7709C31.7509 27.2808 32.9409 26.4446 33.857 25.3468L36.089 26.1317L39.1325 20.8616L37.2637 19.2597C37.6693 17.924 37.8197 16.5237 37.7068 15.1323L41.6528 12.3237ZM27.8073 24.7434C24.5075 26.6496 22.4678 25.2774 22.4678 21.481C22.4678 17.6846 25.1963 12.9911 28.5015 11.0849C31.8067 9.17867 33.8036 10.5509 33.8036 14.3794C33.8036 18.2078 31.1125 22.8319 27.8073 24.7434Z" fill="#E0E0E0"/>
<path d="M39.5376 1.99142L36.078 0L32.9707 4.67156L36.4303 6.66832L39.5376 1.99142Z" fill="#F5F5F5"/>
<path d="M45.1174 9.3493L41.6524 7.35254L37.6963 9.13574L41.1613 11.1325L45.1174 9.3493Z" fill="#F5F5F5"/>
<path d="M29.1152 37.061L25.6556 35.0642L25.2231 30.7451L28.6828 32.7418L29.1152 37.061Z" fill="#E0E0E0"/>
<path d="M16.4927 33.9108L19.9576 35.9076L22.4509 30.8837L18.986 28.8869L16.4927 33.9108Z" fill="#E0E0E0"/>
<path d="M45.1181 14.3474V9.37629L41.1615 11.1437C40.9541 10.2995 40.592 9.5011 40.0936 8.78893L42.5872 3.76443L39.5436 2.00238L36.436 6.67982C35.57 6.60153 34.6969 6.68666 33.8623 6.93078L33.4245 2.60041L29.1208 5.08864L28.683 9.89422C27.7477 10.7255 26.8866 11.6367 26.1093 12.6174L23.0017 11.5495L19.9582 16.8249L22.4518 18.9608C21.9896 20.1226 21.6322 21.3234 21.3838 22.5489L17.4272 25.3308V30.3073L21.3838 28.5239C21.5911 29.3681 21.9532 30.1665 22.4518 30.8786L19.9582 35.9031L23.0017 37.6598L26.1093 32.9877C26.9754 33.0634 27.8479 32.9783 28.683 32.7368L29.1208 37.0564L33.4245 34.5682L33.857 29.7626C34.7936 28.9327 35.6549 28.0214 36.4307 27.0395L39.5383 28.1074L42.5818 22.8373L40.0883 20.7014C40.5503 19.5396 40.9077 18.3387 41.1562 17.1133L45.1181 14.3474ZM31.2727 26.7672C27.9675 28.6734 25.287 27.1249 25.287 23.3125C25.287 19.5 27.9568 14.86 31.2727 12.9484C34.5885 11.0369 37.253 12.5907 37.253 16.4031C37.253 20.2155 34.5725 24.8289 31.2727 26.7405V26.7672Z" fill="#EBEBEB"/>
<path d="M22.6488 10.6309L26.1084 12.6276L23.0011 11.5438L19.5415 9.54175L22.6488 10.6309Z" fill="#F0F0F0"/>
<path d="M19.5411 9.54782L16.4971 14.8245L19.9609 16.8227L23.0049 11.546L19.5411 9.54782Z" fill="#F5F5F5"/>
<path d="M16.4927 14.8172L19.9576 16.814L22.4509 18.9602L18.986 16.9688L16.4927 14.8172Z" fill="#E0E0E0"/>
<path d="M17.9181 20.5573L21.383 22.554L17.4269 25.3356L13.9619 23.3388L17.9181 20.5573Z" fill="#F5F5F5"/>
<path d="M13.9619 23.3391L17.4269 25.3359V30.3117L13.9619 28.315V23.3391Z" fill="#E0E0E0"/>
<path d="M33.4239 2.60015L29.9589 0.603394L25.6558 3.09133L29.1154 5.08809L33.4239 2.60015Z" fill="#F5F5F5"/>
<path d="M77.8496 145.193L128.041 116.21C128.152 116.171 128.248 116.099 128.315 116.003C128.383 115.907 128.42 115.793 128.42 115.676C128.42 115.559 128.383 115.444 128.315 115.349C128.248 115.253 128.152 115.181 128.041 115.142L123.401 112.472C123.114 112.327 122.796 112.252 122.475 112.252C122.153 112.252 121.836 112.327 121.548 112.472L71.3407 141.428C71.2301 141.467 71.1343 141.539 71.0666 141.635C70.9988 141.731 70.9624 141.845 70.9624 141.962C70.9624 142.079 70.9988 142.194 71.0666 142.289C71.1343 142.385 71.2301 142.457 71.3407 142.496L75.9968 145.166C76.2821 145.315 76.5983 145.395 76.92 145.399C77.2417 145.404 77.5601 145.333 77.8496 145.193Z" fill="#E0E0E0"/>
<path d="M126.664 4.309L81.4058 30.4407C80.733 30.8798 80.1731 31.4711 79.7714 32.1669C79.3697 32.8626 79.1376 33.6432 79.0938 34.4454V141.807C79.0938 143.281 80.1296 143.879 81.4058 143.142L126.664 117.011C127.337 116.573 127.898 115.981 128.3 115.285C128.702 114.59 128.933 113.808 128.976 113.006V5.64389C128.976 4.17018 127.945 3.57215 126.664 4.309Z" fill="#455A64"/>
<path d="M81.4055 30.4407L126.663 4.30901C127.806 3.64691 128.751 4.05805 128.943 5.20605C128.837 4.48428 128.578 3.79329 128.185 3.17853C127.792 2.56376 127.274 2.03917 126.663 1.63924L124.784 0.571333C124.067 0.207818 123.275 0.0183716 122.472 0.0183716C121.668 0.0183716 120.876 0.207818 120.16 0.571333L74.8966 26.6817C74.2149 27.1091 73.6527 27.7025 73.2627 28.4063L79.7716 32.144C80.1615 31.4458 80.7241 30.8593 81.4055 30.4407Z" fill="#37474F"/>
<path d="M72.5742 138.048C72.6181 138.851 72.8502 139.631 73.2519 140.327C73.6536 141.023 74.2135 141.614 74.8862 142.053L76.7711 143.121C77.4235 143.447 78.1374 143.632 78.8662 143.663C79.5949 143.695 80.3221 143.572 81 143.303C79.9321 143.719 79.0831 143.105 79.0831 141.786V34.4454C79.1099 33.6398 79.3434 32.8547 79.7612 32.1654L73.2523 28.4277C72.8403 29.1118 72.6071 29.8885 72.5742 30.6864V138.048Z" fill="#263238"/>
<path d="M82.6496 44.7454L125.435 20.05C126.204 19.6122 126.824 19.9699 126.824 20.8509V100.314C126.798 100.795 126.659 101.264 126.418 101.682C126.176 102.099 125.84 102.454 125.435 102.717L82.6656 127.412C81.8967 127.855 81.2773 127.498 81.2773 126.611V47.1481C81.3016 46.6681 81.4385 46.2005 81.6769 45.7831C81.9153 45.3657 82.2485 45.0102 82.6496 44.7454Z" fill="white"/>
<path d="M104.035 21.4436C103.799 21.5986 103.602 21.8069 103.461 22.0517C103.32 22.2965 103.239 22.571 103.223 22.8531C103.223 23.387 103.586 23.5845 104.035 23.3229C104.272 23.1688 104.469 22.9607 104.61 22.7157C104.751 22.4707 104.832 22.1958 104.846 21.9134C104.846 21.3955 104.483 21.1873 104.035 21.4436Z" fill="#37474F"/>
<path d="M104.034 118.863C103.101 119.474 102.325 120.296 101.768 121.262C101.212 122.229 100.891 123.313 100.831 124.427C100.831 126.471 102.267 127.304 104.034 126.279C104.967 125.668 105.744 124.846 106.3 123.88C106.857 122.913 107.178 121.83 107.238 120.716C107.248 118.671 105.807 117.838 104.034 118.863Z" fill="#37474F"/>
<path d="M96.3507 29.7092C95.8815 30.0206 95.4921 30.438 95.2138 30.9277C94.9356 31.4174 94.7764 31.9656 94.749 32.5281C94.749 33.5639 95.4751 33.9856 96.3507 33.4678C96.8249 33.1592 97.2195 32.7431 97.5025 32.2533C97.7854 31.7634 97.9487 31.2137 97.9791 30.6488C97.9791 29.613 97.253 29.1913 96.3507 29.7092Z" fill="#37474F"/>
<path d="M100.34 29.3568C100.34 30.0509 100.874 30.3125 101.499 29.9441L112.178 23.7663C112.508 23.5597 112.786 23.2779 112.987 22.9439C113.188 22.6099 113.308 22.233 113.336 21.844C113.336 21.1552 112.802 20.8936 112.178 21.262L101.499 27.4399C101.168 27.6459 100.891 27.9269 100.69 28.2599C100.489 28.5929 100.369 28.9687 100.34 29.3568Z" fill="#37474F"/>
<path d="M76.1836 48.1839C76.5625 48.4307 76.8779 48.7633 77.1042 49.1548C77.3305 49.5462 77.4614 49.9855 77.4863 50.437C77.4863 51.2698 76.9043 51.6062 76.1836 51.1897C75.806 50.9421 75.4919 50.6091 75.2665 50.2178C75.0412 49.8264 74.9109 49.3876 74.8862 48.9367C74.8862 48.1092 75.4682 47.7728 76.1836 48.1839Z" fill="#37474F"/>
<path d="M76.1836 58.2116C76.5625 58.4584 76.8779 58.791 77.1042 59.1825C77.3305 59.5739 77.4614 60.0132 77.4863 60.4647C77.4863 61.2922 76.9043 61.6286 76.1836 61.2175C75.806 60.9698 75.4919 60.6368 75.2665 60.2455C75.0412 59.8541 74.9109 59.4153 74.8862 58.9644C74.8862 58.1316 75.4682 57.7952 76.1836 58.2116Z" fill="#37474F"/>
<path d="M75.7778 48.3869C76.1567 48.6337 76.4721 48.9663 76.6984 49.3577C76.9247 49.7491 77.0556 50.1884 77.0805 50.6399C77.0805 51.4674 76.4986 51.8038 75.7778 51.3927C75.3989 51.1459 75.0835 50.8133 74.8572 50.4219C74.6309 50.0304 74.5 49.5911 74.4751 49.1397C74.4804 48.3068 75.0624 47.9864 75.7778 48.3869Z" fill="#455A64"/>
<path d="M75.7778 58.4092C76.1574 58.6565 76.4732 58.99 76.6996 59.3824C76.9259 59.7748 77.0565 60.2152 77.0805 60.6676C77.0805 61.4951 76.4986 61.8315 75.7778 61.415C75.398 61.1692 75.082 60.8368 74.8555 60.4452C74.6291 60.0535 74.4987 59.6138 74.4751 59.162C74.4804 58.3345 75.0624 57.9981 75.7778 58.4092Z" fill="#455A64"/>
<path d="M135.485 23.3658C135.485 22.4794 134.865 22.1217 134.096 22.5648L128.976 25.5176L91.3268 47.2602C90.9224 47.5229 90.5858 47.8776 90.3445 48.2951C90.1033 48.7127 89.9641 49.1814 89.9385 49.663V129.105C89.9385 129.991 90.5579 130.349 91.3268 129.906L128.992 108.158L134.096 105.21C134.501 104.947 134.837 104.593 135.079 104.175C135.32 103.758 135.459 103.289 135.485 102.807V23.3658Z" fill="white"/>
<path d="M136.018 23.3658C136.052 23.098 136.006 22.8263 135.886 22.5846C135.766 22.3429 135.577 22.1419 135.344 22.0068C135.11 21.8718 134.842 21.8086 134.572 21.8252C134.303 21.8419 134.044 21.9375 133.829 22.1003L128.943 24.9249L91.0594 46.817C90.5717 47.1249 90.1661 47.5468 89.8778 48.0463C89.5894 48.5458 89.4269 49.108 89.4042 49.6843V129.105C89.3827 129.371 89.434 129.639 89.5525 129.878C89.6709 130.118 89.8522 130.321 90.077 130.466C90.2681 130.577 90.4859 130.635 90.707 130.632C91.02 130.622 91.3252 130.532 91.5934 130.37L129.504 108.478L134.379 105.664C134.864 105.353 135.267 104.931 135.555 104.432C135.843 103.933 136.008 103.372 136.034 102.797L136.018 23.3658ZM128.954 107.565L128.516 107.821L91.0808 129.436C91.0179 129.484 90.945 129.518 90.8674 129.534C90.7898 129.551 90.7095 129.55 90.6323 129.532C90.5629 129.489 90.4934 129.34 90.4934 129.094V49.663C90.5211 49.2753 90.6364 48.8989 90.8306 48.5623C91.0248 48.2256 91.293 47.9374 91.6147 47.7194L129.013 26.0943L134.352 23.0027C134.415 22.9543 134.488 22.9206 134.566 22.904C134.643 22.8874 134.724 22.8883 134.801 22.9066C134.87 22.9493 134.94 23.0988 134.94 23.3444V102.807C134.912 103.195 134.797 103.571 134.603 103.908C134.408 104.245 134.14 104.533 133.818 104.751L128.943 107.565H128.954Z" fill="#BA0001"/>
<path d="M112.711 41.8246C117.517 39.0587 121.388 41.2906 121.388 46.8384C121.388 52.3862 117.501 59.1193 112.711 61.8639C107.922 64.6084 104.035 62.3978 104.035 56.8554C104.035 51.3129 107.922 44.5958 112.711 41.8246Z" fill="#BA0001"/>
<path d="M112.711 46.1816C114.265 45.2847 115.525 46.0108 115.525 47.7833C115.472 48.7598 115.19 49.71 114.701 50.557C114.212 51.4039 113.53 52.1236 112.711 52.6577C111.157 53.5547 109.897 52.8286 109.897 51.0561C109.95 50.0796 110.233 49.1293 110.721 48.2824C111.21 47.4355 111.892 46.7157 112.711 46.1816Z" fill="#BA0001"/>
<path d="M118.195 55.7501C118.195 52.8026 116.129 51.6066 113.571 53.0803L111.969 54.004C109.417 55.4777 107.345 59.0659 107.345 62.0133V62.8089C108.824 63.2948 110.682 63.0332 112.685 61.8638C114.903 60.4956 116.779 58.6381 118.168 56.4335L118.195 55.7501Z" fill="#BA0001"/>
<path opacity="0.7" d="M112.711 46.1816C114.265 45.2847 115.525 46.0108 115.525 47.7833C115.472 48.7598 115.19 49.71 114.701 50.557C114.212 51.4039 113.53 52.1236 112.711 52.6577C111.157 53.5547 109.897 52.8286 109.897 51.0561C109.95 50.0796 110.233 49.1293 110.721 48.2824C111.21 47.4355 111.892 46.7157 112.711 46.1816Z" fill="white"/>
<path opacity="0.7" d="M118.195 55.7501C118.195 52.8026 116.129 51.6066 113.571 53.0803L111.969 54.004C109.417 55.4777 107.345 59.0659 107.345 62.0133V62.8089C108.824 63.2948 110.682 63.0332 112.685 61.8638C114.903 60.4956 116.779 58.6381 118.168 56.4335L118.195 55.7501Z" fill="white"/>
<path d="M95.9237 74.0647L107.089 67.6199C107.623 67.3262 108.012 67.5612 108.012 68.1538V68.5223C107.996 68.8432 107.903 69.1555 107.743 69.4339C107.582 69.7123 107.358 69.9488 107.089 70.1241L95.9237 76.569C95.4165 76.8626 95 76.6223 95 76.035V75.6666C95.0173 75.3458 95.11 75.0336 95.2705 74.7553C95.431 74.477 95.6548 74.2404 95.9237 74.0647Z" fill="#BA0001"/>
<path opacity="0.1" d="M95.9237 74.0647L107.089 67.6199C107.623 67.3262 108.012 67.5612 108.012 68.1538V68.5223C107.996 68.8432 107.903 69.1555 107.743 69.4339C107.582 69.7123 107.358 69.9488 107.089 70.1241L95.9237 76.569C95.4165 76.8626 95 76.6223 95 76.035V75.6666C95.0173 75.3458 95.11 75.0336 95.2705 74.7553C95.431 74.477 95.6548 74.2404 95.9237 74.0647Z" fill="black"/>
<path d="M95.4645 81.8444L129.242 62.3444C129.493 62.1949 129.702 62.3124 129.702 62.6114V66.552C129.692 66.7119 129.646 66.8674 129.566 67.0064C129.487 67.1454 129.376 67.264 129.242 67.3529L95.4645 86.8529C95.2082 87.0024 95 86.8796 95 86.5859V82.6453C95.0092 82.4847 95.056 82.3286 95.1367 82.1894C95.2174 82.0503 95.3297 81.9321 95.4645 81.8444Z" fill="#BA0001"/>
<path opacity="0.2" d="M95.4645 81.8444L129.242 62.3444C129.493 62.1949 129.702 62.3124 129.702 62.6114V66.552C129.692 66.7119 129.646 66.8674 129.566 67.0064C129.487 67.1454 129.376 67.264 129.242 67.3529L95.4645 86.8529C95.2082 87.0024 95 86.8796 95 86.5859V82.6453C95.0092 82.4847 95.056 82.3286 95.1367 82.1894C95.2174 82.0503 95.3297 81.9321 95.4645 81.8444Z" fill="white"/>
<path d="M95.9237 91.5944L107.089 85.1496C107.623 84.8559 108.012 85.0962 108.012 85.6835V86.0519C107.996 86.3729 107.904 86.6855 107.743 86.9639C107.583 87.2423 107.358 87.4788 107.089 87.6538L95.9237 94.0986C95.4165 94.3976 95 94.1574 95 93.5647V93.1963C95.0182 92.8757 95.1112 92.5638 95.2716 92.2856C95.432 92.0074 95.6554 91.7707 95.9237 91.5944Z" fill="#BA0001"/>
<path opacity="0.1" d="M95.9237 91.5944L107.089 85.1496C107.623 84.8559 108.012 85.0962 108.012 85.6835V86.0519C107.996 86.3729 107.904 86.6855 107.743 86.9639C107.583 87.2423 107.358 87.4788 107.089 87.6538L95.9237 94.0986C95.4165 94.3976 95 94.1574 95 93.5647V93.1963C95.0182 92.8757 95.1112 92.5638 95.2716 92.2856C95.432 92.0074 95.6554 91.7707 95.9237 91.5944Z" fill="black"/>
<path d="M95.4645 99.3741L129.242 79.8741C129.493 79.7246 129.702 79.8474 129.702 80.1411V84.0817C129.692 84.2416 129.646 84.3972 129.566 84.5362C129.487 84.6751 129.376 84.7937 129.242 84.8826L95.4645 104.383C95.2082 104.532 95 104.415 95 104.116V100.175C95.0092 100.014 95.056 99.8583 95.1367 99.7192C95.2174 99.58 95.3297 99.4618 95.4645 99.3741Z" fill="#BA0001"/>
<path opacity="0.2" d="M95.4645 99.3741L129.242 79.8741C129.493 79.7246 129.702 79.8474 129.702 80.1411V84.0817C129.692 84.2416 129.646 84.3972 129.566 84.5362C129.487 84.6751 129.376 84.7937 129.242 84.8826L95.4645 104.383C95.2082 104.532 95 104.415 95 104.116V100.175C95.0092 100.014 95.056 99.8583 95.1367 99.7192C95.2174 99.58 95.3297 99.4618 95.4645 99.3741Z" fill="white"/>
<path d="M108.936 101.611L122.285 93.9171C122.819 93.6181 123.214 93.8584 123.214 94.451V98.5732C123.197 98.8945 123.104 99.2072 122.942 99.4856C122.781 99.764 122.556 100 122.285 100.175L108.936 107.875C108.402 108.168 108.013 107.928 108.013 107.341V103.213C108.031 102.893 108.124 102.581 108.285 102.303C108.445 102.025 108.668 101.788 108.936 101.611Z" fill="#BA0001"/>
<path opacity="0.1" d="M108.936 101.611L122.285 93.9171C122.819 93.6181 123.214 93.8584 123.214 94.451V98.5732C123.197 98.8945 123.104 99.2072 122.942 99.4856C122.781 99.764 122.556 100 122.285 100.175L108.936 107.875C108.402 108.168 108.013 107.928 108.013 107.341V103.213C108.031 102.893 108.124 102.581 108.285 102.303C108.445 102.025 108.668 101.788 108.936 101.611Z" fill="black"/>
<path d="M140.546 84.2152C140.546 84.2152 133.99 75.17 133.605 74.07C133.301 73.2584 133.605 72.0517 133.701 71.491C133.797 70.9304 133.883 69.6809 133.979 69.3552C134.139 68.7465 133.354 68.8693 132.911 69.4246C132.468 69.98 132.318 71.0906 132.089 71.2721C131.859 71.4537 130.113 68.9067 129.2 67.732C128.287 66.5573 127.716 65.8418 127.155 66.2797C126.754 66.5947 127.053 67.2781 127.716 68.282C128.102 68.8225 128.459 69.384 128.783 69.9639C128.885 70.1829 128.34 70.1989 128.047 70.6527C127.817 71.0051 128.047 71.5765 127.726 71.8488C127.529 71.9988 127.394 72.2162 127.347 72.4594C127.299 72.7026 127.343 72.9547 127.47 73.1677C128.064 74.101 128.831 74.9128 129.729 75.5598C130.711 76.2379 131.106 76.4782 131.688 77.4019C132.27 78.3256 137.492 87.7606 137.845 88.3266C138.197 88.8926 138.875 90.0459 139.906 90.078C140.936 90.11 149.373 82.8482 149.805 82.4851C151.194 81.3265 151.637 81.1609 151.872 82.2022C151.953 82.5723 152.013 82.9466 152.053 83.3235C152.219 84.6477 153.121 89.3785 153.121 89.3785C153.121 89.3785 157.393 91.4449 160.901 90.4464C164.409 89.4479 165.594 87.9582 165.594 87.9582L163.838 85.0962C164.313 83.9161 166.507 79.1319 167.217 75.784L156.218 74.006C155.994 73.9579 155.631 73.8671 155.15 73.7443C154.547 73.5841 153.014 73.0555 151.856 74.07C148.075 77.3645 140.557 84.2152 140.557 84.2152" fill="#FFA8A7"/>
<path d="M162.353 139.714L160.383 142.453C161.278 142.871 162.256 143.081 163.244 143.067C165.012 143.131 165.497 142.533 165.562 142.416C165.861 141.775 165.396 140.622 165.268 139.629L162.353 139.714Z" fill="#37474F"/>
<path d="M160.495 141.14C160.495 141.14 158.103 140.985 156.453 140.782C154.803 140.579 153.495 141.38 153.879 142.058C154.264 142.737 155.177 143.303 156.597 143.778C157.809 144.189 159.267 144.483 160.527 144.846C161.787 145.209 162.663 145.684 163.394 145.428C164.211 145.145 164.564 144.819 164.494 144.221C164.316 143.37 164.095 142.529 163.832 141.701L160.495 141.14Z" fill="#37474F"/>
<path d="M165.562 136.964C165.562 136.964 165.263 139.452 165.241 139.986C165.22 140.52 162.812 140.691 162.353 139.714L162.278 136.671L165.562 136.964Z" fill="#F28F8F"/>
<path d="M163.137 138.492L163.997 142.272C163.997 142.272 164.077 142.731 162.112 143.024C160.147 143.318 157.062 141.994 156.533 141.727C156.004 141.46 155.946 140.921 157.878 141.028C159.811 141.134 160.495 141.14 160.495 141.14L159.865 139.469L163.137 138.492Z" fill="#FFA8A7"/>
<path d="M167.185 75.752L168.547 75.3729C168.547 75.3729 171.393 84.3807 171.708 85.2511C172.023 86.1214 172.381 87.0398 171.767 88.1131C171.035 89.3892 167.185 94.5205 167.185 94.5205L164.74 92.1284L167.516 87.0452L165.06 82.0794L167.185 75.752Z" fill="#F28F8F"/>
<path d="M153.201 64.0531C152.882 63.4539 152.72 62.7835 152.73 62.1046C152.741 61.4257 152.923 60.7606 153.26 60.1713C154.616 57.6563 157.639 56.4336 161.237 56.8981C162.903 57.117 164.868 58.5 165.942 60.5664C167.127 62.857 167.239 67.4704 167.543 69.2164L153.201 64.0531Z" fill="#37474F"/>
<path d="M153.105 65.0409C153.105 65.0409 152.251 66.6693 152.4 66.8188C152.622 66.9481 152.864 67.0384 153.116 67.0857L153.105 65.0409Z" fill="#FFA8A7"/>
<path d="M155.7 59.8936C154.771 60.497 153.169 61.6076 153.1 65.2652C153.025 69.0029 153.559 70.2363 154.114 70.6688C154.488 70.9625 156.683 70.813 157.622 70.594C158.562 70.3751 161.269 69.0349 162.246 67.0005C163.394 64.6084 163.159 61.127 161.456 60.0591C160.589 59.5465 159.606 59.2624 158.6 59.2334C157.593 59.2045 156.595 59.4316 155.7 59.8936Z" fill="#FFA8A7"/>
<path d="M165.562 87.9368C167.207 90.4998 168.766 92.7424 169.108 95.6364C169.812 101.718 167.506 108.67 167.009 113.171C167.943 114.452 168.481 115.978 168.558 117.561C168.558 119.424 165.562 136.964 165.562 136.964C165.562 136.964 163.384 137.627 162.278 136.671L160.223 104.404L161.291 100.474L165.562 87.9368Z" fill="#BA0001"/>
<path opacity="0.2" d="M165.562 87.9368C167.207 90.4998 168.766 92.7424 169.108 95.6364C169.812 101.718 167.506 108.67 167.009 113.171C167.943 114.452 168.481 115.978 168.558 117.561C168.558 119.424 165.562 136.964 165.562 136.964C165.562 136.964 163.384 137.627 162.278 136.671L160.223 104.404L161.291 100.474L165.562 87.9368Z" fill="black"/>
<path d="M160.223 104.404L161.291 100.474C163.335 99.9358 165.307 99.1523 167.164 98.1407C167.164 98.1407 166.053 100.164 162.86 101.275L161.21 106.321L161.072 117.881L160.223 104.404Z" fill="#BA0001"/>
<path opacity="0.3" d="M160.223 104.404L161.291 100.474C163.335 99.9358 165.307 99.1523 167.164 98.1407C167.164 98.1407 166.053 100.164 162.86 101.275L161.21 106.321L161.072 117.881L160.223 104.404Z" fill="black"/>
<path d="M165.562 87.9368C166.443 89.3785 168.547 91.8347 168.099 94.2001C167.565 97.0621 166.016 99.0751 161.307 100.474L156.886 116.493C156.886 116.493 159.187 118.628 159.892 120.695C160.597 122.761 163.138 138.502 163.138 138.502C163.138 138.502 162.348 139.789 159.865 139.479C159.865 139.479 151.21 119.723 150.601 118.436C149.862 117.133 149.603 115.612 149.87 114.138C150.142 112.066 153.073 89.3892 153.073 89.3892L165.562 87.9368Z" fill="#BA0001"/>
<path opacity="0.2" d="M165.562 87.9368C166.443 89.3785 168.547 91.8347 168.099 94.2001C167.565 97.0621 166.016 99.0751 161.307 100.474L156.886 116.493C156.886 116.493 159.187 118.628 159.892 120.695C160.597 122.761 163.138 138.502 163.138 138.502C163.138 138.502 162.348 139.789 159.865 139.479C159.865 139.479 151.21 119.723 150.601 118.436C149.862 117.133 149.603 115.612 149.87 114.138C150.142 112.066 153.073 89.3892 153.073 89.3892L165.562 87.9368Z" fill="black"/>
<path d="M167.186 75.752L156.186 73.9739C155.962 73.9259 155.599 73.8351 155.118 73.7123C155.118 73.7123 154.648 80.611 151.824 82.1915C151.893 82.5225 151.952 82.891 152.005 83.3128C152.171 84.637 153.073 89.3678 153.073 89.3678C153.073 89.3678 157.345 91.4342 160.853 90.4357C164.361 89.4372 165.546 87.9475 165.546 87.9475L163.79 85.0855C164.281 83.8948 166.491 79.1106 167.186 75.752Z" fill="#BA0001"/>
<path opacity="0.7" d="M167.186 75.752L156.186 73.9739C155.962 73.9259 155.599 73.8351 155.118 73.7123C155.118 73.7123 154.648 80.611 151.824 82.1915C151.893 82.5225 151.952 82.891 152.005 83.3128C152.171 84.637 153.073 89.3678 153.073 89.3678C153.073 89.3678 157.345 91.4342 160.853 90.4357C164.361 89.4372 165.546 87.9475 165.546 87.9475L163.79 85.0855C164.281 83.8948 166.491 79.1106 167.186 75.752Z" fill="white"/>
<path d="M164.285 83.9482C162.825 84.8252 161.294 85.5806 159.71 86.2065C161.148 86.1778 162.556 85.7887 163.805 85.0747L164.285 83.9482Z" fill="#BA0001"/>
<path d="M155.428 60.0751C155.428 60.0751 154.894 63.5458 156.154 65.5855C156.154 65.5855 156.624 64.2026 157.793 64.4642C158.963 64.7259 159.027 66.269 158.204 67.134C157.995 67.3766 157.722 67.5554 157.416 67.6499C157.11 67.7443 156.784 67.7506 156.474 67.668C156.474 67.668 156.287 70.1775 156.186 72.2813C156.085 74.3851 155.529 78.9718 157.895 80.8246C160.26 82.6774 166.198 83.3288 168.98 79.4416C170.528 77.2791 168.472 73.456 167.516 69.1684C166.635 65.2278 166.139 59.3863 161.958 58.4466C157.777 57.5068 155.428 60.0751 155.428 60.0751Z" fill="#37474F"/>
<path d="M170.768 12.6547L169.887 13.1887C169.961 12.8752 170.002 12.5549 170.01 12.2329C170.01 10.4441 168.755 9.72331 167.207 10.631C166.735 10.9153 166.315 11.2762 165.963 11.6989C165.963 9.29614 164.275 8.31901 162.193 9.5204C161.096 10.236 160.182 11.2003 159.527 12.3349C158.872 13.4695 158.494 14.7425 158.423 16.0507C158.423 16.1735 158.423 16.2909 158.423 16.4084C157.887 16.3409 157.344 16.4658 156.891 16.7608C156.075 17.2925 155.396 18.0091 154.909 18.8524C154.422 19.6957 154.14 20.642 154.087 21.6145C154.087 21.8405 154.11 22.066 154.157 22.2872L153.687 22.5596C152.411 23.2964 151.375 24.7327 151.375 25.7633C151.375 26.7938 152.411 27.0394 153.687 26.2972L170.774 16.4458C172.05 15.7089 173.086 14.2726 173.086 13.2421C173.086 12.2115 172.044 11.9125 170.768 12.6547Z" fill="#EBEBEB"/>
</svg>
