<svg width="30" height="30" viewBox="0 0 30 30" fill="none" xmlns="http://www.w3.org/2000/svg">
<path d="M15.3684 11.2682C14.599 11.1922 13.8249 11.3559 13.1521 11.7368C12.4794 12.1178 11.9408 12.6973 11.6101 13.3962C11.2794 14.0951 11.1729 14.8791 11.305 15.6409C11.4371 16.4026 11.8015 17.105 12.3482 17.6517C12.8949 18.1984 13.5972 18.5627 14.359 18.6948C15.1208 18.827 15.9048 18.7204 16.6036 18.3898C17.3025 18.0591 17.8821 17.5205 18.263 16.8477C18.644 16.1749 18.8077 15.4009 18.7317 14.6314C18.6451 13.7689 18.2629 12.9629 17.6499 12.3499C17.037 11.737 16.2309 11.3548 15.3684 11.2682ZM24.3977 15C24.3953 15.4076 24.3654 15.8146 24.3081 16.2182L26.9571 18.2959C27.0724 18.3915 27.1502 18.5249 27.1764 18.6724C27.2027 18.8199 27.1759 18.972 27.1006 19.1016L24.5946 23.4375C24.5185 23.5658 24.3995 23.6632 24.2587 23.7124C24.1178 23.7616 23.9641 23.7595 23.8247 23.7064L21.1938 22.6471C21.0487 22.5893 20.8916 22.5684 20.7364 22.5863C20.5813 22.6042 20.4331 22.6603 20.3049 22.7496C19.9034 23.0261 19.4815 23.2717 19.0428 23.4844C18.9049 23.5514 18.7856 23.6514 18.6955 23.7754C18.6054 23.8995 18.5472 24.0438 18.526 24.1957L18.1317 27.0018C18.1058 27.15 18.0292 27.2846 17.9151 27.3826C17.801 27.4806 17.6563 27.5359 17.5059 27.5391H12.4938C12.3459 27.5365 12.2032 27.4836 12.0894 27.3892C11.9755 27.2947 11.8972 27.1642 11.8674 27.0193L11.4737 24.2174C11.4516 24.0638 11.3919 23.9181 11.2999 23.7932C11.2079 23.6683 11.0864 23.568 10.9463 23.5014C10.5082 23.2899 10.0877 23.0436 9.68892 22.7648C9.56124 22.676 9.41346 22.6203 9.25891 22.6028C9.10435 22.5854 8.94787 22.6066 8.80357 22.6646L6.17329 23.7234C6.0339 23.7765 5.88026 23.7787 5.73941 23.7296C5.59857 23.6805 5.47957 23.5833 5.40337 23.4551L2.89732 19.1191C2.82197 18.9896 2.79505 18.8375 2.82134 18.69C2.84763 18.5424 2.92542 18.409 3.04087 18.3135L5.27974 16.5557C5.4024 16.4583 5.4988 16.3318 5.56019 16.1878C5.62158 16.0437 5.64603 15.8866 5.6313 15.7307C5.61021 15.4863 5.59732 15.2426 5.59732 14.9982C5.59732 14.7539 5.60962 14.5137 5.6313 14.2746C5.64442 14.1196 5.61878 13.9639 5.55669 13.8213C5.4946 13.6787 5.39802 13.5538 5.27564 13.4578L3.03794 11.7C2.92437 11.604 2.84821 11.471 2.82282 11.3245C2.79743 11.1779 2.82442 11.0271 2.89908 10.8984L5.40513 6.5625C5.48123 6.43417 5.6002 6.33683 5.74105 6.28763C5.8819 6.23843 6.0356 6.24053 6.17505 6.29355L8.80591 7.35293C8.95099 7.41069 9.10814 7.43156 9.26327 7.41367C9.41839 7.39577 9.56666 7.33967 9.69478 7.25039C10.0963 6.9739 10.5182 6.72827 10.9569 6.51562C11.0948 6.44859 11.2141 6.34864 11.3042 6.22458C11.3944 6.10052 11.4526 5.95618 11.4737 5.8043L11.868 2.99824C11.8939 2.85005 11.9705 2.71545 12.0846 2.61745C12.1988 2.51944 12.3434 2.46412 12.4938 2.46094H17.5059C17.6538 2.4635 17.7965 2.51637 17.9103 2.61084C18.0242 2.70531 18.1025 2.83575 18.1323 2.98066L18.526 5.78262C18.5481 5.93617 18.6078 6.08188 18.6998 6.2068C18.7918 6.33171 18.9133 6.43196 19.0534 6.49863C19.4915 6.71013 19.912 6.95643 20.3108 7.23516C20.4385 7.32399 20.5863 7.37966 20.7408 7.39716C20.8954 7.41465 21.0518 7.39341 21.1961 7.33535L23.8264 6.27656C23.9658 6.22348 24.1195 6.2213 24.2603 6.27039C24.4011 6.31948 24.5201 6.4167 24.5963 6.54492L27.1024 10.8809C27.1777 11.0104 27.2047 11.1625 27.1784 11.31C27.1521 11.4576 27.0743 11.591 26.9588 11.6865L24.72 13.4443C24.5968 13.5414 24.4998 13.6677 24.4379 13.8118C24.376 13.9559 24.3511 14.1132 24.3655 14.2693C24.3848 14.5119 24.3977 14.7557 24.3977 15Z" stroke="#222222" stroke-width="2" stroke-linecap="round" stroke-linejoin="round"/>
</svg>
